<svg width="838" height="262" viewBox="0 0 838 262" fill="none" xmlns="http://www.w3.org/2000/svg">
<rect x="54.5" y="23" width="187" height="76" fill="#F6E500"/>
<path d="M90.854 61L87.536 56.226L89.006 55.316L92.912 61H90.854ZM84.372 61V51.2H86.164V61H84.372ZM85.618 56.87V55.302H88.922V56.87H85.618ZM89.174 56.31L87.508 56.086L90.854 51.2H92.786L89.174 56.31ZM98.67 61.14C97.9047 61.14 97.2 61.014 96.556 60.762C95.912 60.51 95.352 60.16 94.876 59.712C94.4 59.2547 94.0314 58.7227 93.77 58.116C93.5087 57.5 93.378 56.828 93.378 56.1C93.378 55.372 93.5087 54.7047 93.77 54.098C94.0314 53.482 94.4 52.95 94.876 52.502C95.352 52.0447 95.912 51.69 96.556 51.438C97.2 51.186 97.9 51.06 98.656 51.06C99.4214 51.06 100.121 51.186 100.756 51.438C101.4 51.69 101.96 52.0447 102.436 52.502C102.912 52.95 103.281 53.482 103.542 54.098C103.803 54.7047 103.934 55.372 103.934 56.1C103.934 56.828 103.803 57.5 103.542 58.116C103.281 58.732 102.912 59.264 102.436 59.712C101.96 60.16 101.4 60.51 100.756 60.762C100.121 61.014 99.426 61.14 98.67 61.14ZM98.656 59.544C99.1507 59.544 99.608 59.46 100.028 59.292C100.448 59.124 100.812 58.886 101.12 58.578C101.428 58.2607 101.666 57.8967 101.834 57.486C102.011 57.066 102.1 56.604 102.1 56.1C102.1 55.596 102.011 55.1387 101.834 54.728C101.666 54.308 101.428 53.944 101.12 53.636C100.812 53.3187 100.448 53.076 100.028 52.908C99.608 52.74 99.1507 52.656 98.656 52.656C98.1614 52.656 97.704 52.74 97.284 52.908C96.8734 53.076 96.5094 53.3187 96.192 53.636C95.884 53.944 95.6414 54.308 95.464 54.728C95.296 55.1387 95.212 55.596 95.212 56.1C95.212 56.5947 95.296 57.052 95.464 57.472C95.6414 57.892 95.884 58.2607 96.192 58.578C96.5 58.886 96.864 59.124 97.284 59.292C97.704 59.46 98.1614 59.544 98.656 59.544ZM112.834 51.2H114.654V61H112.834V51.2ZM107.766 61H105.946V51.2H107.766V61ZM112.974 56.8H107.612V55.246H112.974V56.8ZM121.911 61.14C121.165 61.14 120.469 61.0187 119.825 60.776C119.191 60.524 118.635 60.174 118.159 59.726C117.693 59.2687 117.329 58.732 117.067 58.116C116.806 57.5 116.675 56.828 116.675 56.1C116.675 55.372 116.806 54.7 117.067 54.084C117.329 53.468 117.697 52.936 118.173 52.488C118.649 52.0307 119.205 51.6807 119.839 51.438C120.474 51.186 121.169 51.06 121.925 51.06C122.728 51.06 123.461 51.2 124.123 51.48C124.786 51.7507 125.346 52.1567 125.803 52.698L124.627 53.804C124.273 53.4213 123.876 53.1367 123.437 52.95C122.999 52.754 122.523 52.656 122.009 52.656C121.496 52.656 121.025 52.74 120.595 52.908C120.175 53.076 119.807 53.314 119.489 53.622C119.181 53.93 118.939 54.294 118.761 54.714C118.593 55.134 118.509 55.596 118.509 56.1C118.509 56.604 118.593 57.066 118.761 57.486C118.939 57.906 119.181 58.27 119.489 58.578C119.807 58.886 120.175 59.124 120.595 59.292C121.025 59.46 121.496 59.544 122.009 59.544C122.523 59.544 122.999 59.4507 123.437 59.264C123.876 59.068 124.273 58.774 124.627 58.382L125.803 59.502C125.346 60.034 124.786 60.44 124.123 60.72C123.461 61 122.723 61.14 121.911 61.14ZM129.442 61V52.292L129.876 52.74H126.208V51.2H134.496V52.74H130.828L131.248 52.292V61H129.442ZM136.065 61V51.2H140.097C140.965 51.2 141.707 51.34 142.323 51.62C142.949 51.9 143.429 52.3013 143.765 52.824C144.101 53.3467 144.269 53.9673 144.269 54.686C144.269 55.4047 144.101 56.0253 143.765 56.548C143.429 57.0707 142.949 57.472 142.323 57.752C141.707 58.032 140.965 58.172 140.097 58.172H137.073L137.885 57.318V61H136.065ZM137.885 57.514L137.073 56.632H140.013C140.816 56.632 141.418 56.464 141.819 56.128C142.23 55.7827 142.435 55.302 142.435 54.686C142.435 54.0607 142.23 53.58 141.819 53.244C141.418 52.908 140.816 52.74 140.013 52.74H137.073L137.885 51.844V57.514ZM145.912 59.46C146.426 59.6373 146.878 59.684 147.27 59.6C147.662 59.516 148.012 59.2313 148.32 58.746L148.796 58.004L148.978 57.808L152.394 51.2H154.186L149.93 59.11C149.585 59.7727 149.174 60.2767 148.698 60.622C148.222 60.9673 147.709 61.1587 147.158 61.196C146.617 61.2427 146.052 61.14 145.464 60.888L145.912 59.46ZM148.936 59.376L144.568 51.2H146.514L149.93 57.976L148.936 59.376ZM161.934 61L158.616 56.226L160.086 55.316L163.992 61H161.934ZM155.452 61V51.2H157.244V61H155.452ZM156.698 56.87V55.302H160.002V56.87H156.698ZM160.254 56.31L158.588 56.086L161.934 51.2H163.866L160.254 56.31ZM167.19 61V52.292L167.624 52.74H163.956V51.2H172.244V52.74H168.576L168.996 52.292V61H167.19ZM173.827 61V51.2H175.619V58.158L180.883 51.2H182.577V61H180.785V54.056L175.521 61H173.827ZM185.339 61V51.2H189.721C190.822 51.2 191.681 51.4193 192.297 51.858C192.913 52.2873 193.221 52.908 193.221 53.72C193.221 54.5227 192.927 55.1433 192.339 55.582C191.751 56.0113 190.976 56.226 190.015 56.226L190.267 55.722C191.359 55.722 192.204 55.9413 192.801 56.38C193.398 56.8187 193.697 57.4533 193.697 58.284C193.697 59.1333 193.384 59.8007 192.759 60.286C192.134 60.762 191.21 61 189.987 61H185.339ZM187.131 59.6H189.931C190.566 59.6 191.046 59.4833 191.373 59.25C191.7 59.0073 191.863 58.6387 191.863 58.144C191.863 57.6493 191.7 57.29 191.373 57.066C191.046 56.8327 190.566 56.716 189.931 56.716H187.131V59.6ZM187.131 55.386H189.567C190.155 55.386 190.603 55.2693 190.911 55.036C191.219 54.7933 191.373 54.448 191.373 54C191.373 53.5333 191.219 53.1833 190.911 52.95C190.603 52.7167 190.155 52.6 189.567 52.6H187.131V55.386ZM195.098 63.114L195.91 60.02L196.148 61.056C195.821 61.056 195.546 60.958 195.322 60.762C195.107 60.5567 195 60.2813 195 59.936C195 59.5813 195.107 59.3013 195.322 59.096C195.546 58.8813 195.817 58.774 196.134 58.774C196.461 58.774 196.731 58.8813 196.946 59.096C197.161 59.3107 197.268 59.5907 197.268 59.936C197.268 60.0293 197.259 60.132 197.24 60.244C197.221 60.3467 197.189 60.468 197.142 60.608C197.105 60.748 197.039 60.9253 196.946 61.14L196.232 63.114H195.098ZM90.49 74.192C89.9767 74.4067 89.4773 74.5653 88.992 74.668C88.5067 74.7707 88.0353 74.822 87.578 74.822C86.3273 74.822 85.3613 74.5233 84.68 73.926C84.008 73.3193 83.672 72.4513 83.672 71.322V68.2H85.478V71.126C85.478 71.8167 85.6787 72.344 86.08 72.708C86.4813 73.072 87.0553 73.254 87.802 73.254C88.25 73.254 88.698 73.2027 89.146 73.1C89.6033 72.9973 90.042 72.8387 90.462 72.624L90.49 74.192ZM90.21 78V68.2H92.016V78H90.21ZM96.4426 72.274H101.315V73.772H96.4426V72.274ZM96.5826 76.474H102.113V78H94.7626V68.2H101.917V69.726H96.5826V76.474ZM104.142 78V68.2H108.174C109.042 68.2 109.784 68.34 110.4 68.62C111.025 68.9 111.506 69.3013 111.842 69.824C112.178 70.3467 112.346 70.9673 112.346 71.686C112.346 72.4047 112.178 73.0253 111.842 73.548C111.506 74.0707 111.025 74.472 110.4 74.752C109.784 75.032 109.042 75.172 108.174 75.172H105.15L105.962 74.318V78H104.142ZM105.962 74.514L105.15 73.632H108.09C108.892 73.632 109.494 73.464 109.896 73.128C110.306 72.7827 110.512 72.302 110.512 71.686C110.512 71.0607 110.306 70.58 109.896 70.244C109.494 69.908 108.892 69.74 108.09 69.74H105.15L105.962 68.844V74.514ZM115.838 78V69.292L116.272 69.74H112.604V68.2H120.892V69.74H117.224L117.644 69.292V78H115.838ZM124.142 72.274H129.014V73.772H124.142V72.274ZM124.282 76.474H129.812V78H122.462V68.2H129.616V69.726H124.282V76.474ZM142.763 78L139.907 73.226L141.447 72.316L144.863 78H142.763ZM138.087 73.87V72.302H141.041V73.87H138.087ZM141.545 73.31L139.851 73.086L142.721 68.2H144.653L141.545 73.31ZM132.683 78H130.583L133.999 72.316L135.553 73.226L132.683 78ZM138.619 78H136.841V68.2H138.619V78ZM137.373 73.87H134.405V72.302H137.373V73.87ZM133.915 73.31L130.793 68.2H132.725L135.581 73.086L133.915 73.31ZM146.142 78V68.2H147.934V75.158L153.198 68.2H154.892V78H153.1V71.056L147.836 78H146.142Z" fill="black"/>
<rect x="243.5" y="23" width="187" height="76" fill="#F6E500"/>
<rect x="433.5" y="23" width="187" height="76" fill="#F6E500"/>
<rect x="54.5" y="165" width="246" height="76" fill="#F6E500"/>
<path d="M622.5 23H809.416L837.5 61L809.416 99H622.5V23Z" fill="#F6E500"/>
<path d="M303.5 165H548.665L585.5 203L548.665 241H303.5V165Z" fill="#F6E500"/>
<path d="M6.4 229.074L6.4 227.274L19 227.274L19 229.074L6.4 229.074ZM19 236.31L19 238.11L6.4 238.11L6.4 236.31L19 236.31ZM13.384 228.912L13.384 236.49L11.818 236.49L11.818 228.912L13.384 228.912ZM19 225.411L6.4 219.705L6.4 217.923L19 212.199L19 214.089L7.408 219.183L7.408 218.463L19 223.557L19 225.411ZM15.85 222.981L14.41 222.495L14.41 215.403L15.85 214.881L15.85 222.981ZM19 210.319L6.4 210.319L6.4 208.519L17.434 208.519L17.434 201.697L19 201.697L19 210.319ZM19 199.631L6.4 199.631L6.4 193.979C6.4 192.527 6.694 191.411 7.282 190.631C7.858 189.851 8.65 189.461 9.658 189.461C10.342 189.461 10.918 189.617 11.386 189.929C11.854 190.229 12.214 190.637 12.466 191.153C12.718 191.669 12.844 192.227 12.844 192.827L12.304 192.503C12.304 191.783 12.43 191.147 12.682 190.595C12.934 190.043 13.306 189.605 13.798 189.281C14.278 188.957 14.878 188.795 15.598 188.795C16.678 188.795 17.518 189.203 18.118 190.019C18.706 190.823 19 192.023 19 193.619L19 199.631ZM17.542 197.831L17.542 193.691C17.542 192.695 17.374 191.933 17.038 191.405C16.702 190.877 16.174 190.613 15.454 190.613C14.722 190.613 14.188 190.877 13.852 191.405C13.516 191.933 13.348 192.695 13.348 193.691L13.348 197.993L11.89 197.993L11.89 194.141C11.89 193.229 11.722 192.521 11.386 192.017C11.05 191.513 10.546 191.261 9.874 191.261C9.202 191.261 8.698 191.513 8.362 192.017C8.026 192.521 7.858 193.229 7.858 194.141L7.858 197.831L17.542 197.831ZM11.836 184.37L11.836 177.89L13.366 177.89L13.366 184.37L11.836 184.37ZM17.434 184.208L17.434 176.864L19 176.864L19 186.008L6.4 186.008L6.4 177.116L7.966 177.116L7.966 184.208L17.434 184.208ZM11.836 172.312L11.836 165.832L13.366 165.832L13.366 172.312L11.836 172.312ZM17.434 172.15L17.434 164.806L19 164.806L19 173.95L6.4 173.95L6.4 165.058L7.966 165.058L7.966 172.15L17.434 172.15ZM19 161.891L6.4 161.891L6.4 156.977C6.4 155.873 6.574 154.931 6.922 154.151C7.27 153.371 7.774 152.771 8.434 152.351C9.094 151.931 9.88 151.721 10.792 151.721C11.704 151.721 12.49 151.931 13.15 152.351C13.798 152.771 14.296 153.371 14.644 154.151C14.992 154.931 15.166 155.873 15.166 156.977L15.166 160.901L14.338 160.091L19 160.091L19 161.891ZM19 153.467L14.428 156.671L14.428 154.745L19 151.505L19 153.467ZM14.518 160.091L13.636 160.901L13.636 157.031C13.636 155.879 13.39 155.009 12.898 154.421C12.394 153.821 11.692 153.521 10.792 153.521C9.892 153.521 9.196 153.821 8.704 154.421C8.212 155.009 7.966 155.879 7.966 157.031L7.966 160.901L7.066 160.091L14.518 160.091ZM16.642 141.387L8.758 141.387L8.758 139.875L16.642 139.875L16.642 141.387ZM13.42 144.663L11.998 144.663L11.998 136.599L13.42 136.599L13.42 144.663ZM19 128.669L6.39999 128.669L6.39999 123.359C6.39999 122.015 6.66399 120.833 7.19199 119.813C7.71999 118.781 8.45799 117.983 9.40599 117.419C10.354 116.843 11.452 116.555 12.7 116.555C13.948 116.555 15.046 116.843 15.994 117.419C16.942 117.983 17.68 118.781 18.208 119.813C18.736 120.833 19 122.015 19 123.359L19 128.669ZM17.434 126.869L17.434 123.467C17.434 122.423 17.236 121.523 16.84 120.767C16.444 119.999 15.892 119.405 15.184 118.985C14.464 118.565 13.636 118.355 12.7 118.355C11.752 118.355 10.924 118.565 10.216 118.985C9.50799 119.405 8.95599 119.999 8.55999 120.767C8.16399 121.523 7.96599 122.423 7.96599 123.467L7.96599 126.869L17.434 126.869ZM11.836 112.159L11.836 105.679L13.366 105.679L13.366 112.159L11.836 112.159ZM17.434 111.997L17.434 104.653L19 104.653L19 113.797L6.39999 113.797L6.39999 104.905L7.96599 104.905L7.96599 111.997L17.434 111.997ZM19 101.739L6.39999 101.739L6.39999 99.9389L17.434 99.9389L17.434 93.1169L19 93.1169L19 101.739ZM19 91.0514L6.39999 91.0514L6.39999 89.5754L15.922 83.9234L15.922 84.7154L6.39999 79.1354L6.39999 77.6594L19 77.6414L19 79.3694L9.11799 79.3874L9.11799 78.9734L17.47 83.9414L17.47 84.7694L9.11799 89.7734L9.11799 89.3234L19 89.3234L19 91.0514ZM19 73.86L6.39999 73.86L6.39999 72.06L19 72.06L19 73.86ZM19 70.1957L6.39999 64.4897L6.39999 62.7077L19 56.9837L19 58.8737L7.40799 63.9677L7.40799 63.2477L19 68.3417L19 70.1957ZM15.85 67.7657L14.41 67.2797L14.41 60.1877L15.85 59.6657L15.85 67.7657ZM19 46.6342L6.39999 52.1782L6.39999 50.2342L18.028 45.1402L18.028 46.2562L6.39999 41.1262L6.39999 39.3262L19 44.8522L19 46.6342ZM19.144 34.0474C19.144 35.0074 19 35.9254 18.712 36.8014C18.412 37.6774 18.028 38.3674 17.56 38.8714L16.156 38.2054C16.576 37.7254 16.924 37.1134 17.2 36.3694C17.476 35.6254 17.614 34.8514 17.614 34.0474C17.614 33.3154 17.53 32.7214 17.362 32.2654C17.194 31.8094 16.966 31.4734 16.678 31.2574C16.378 31.0414 16.042 30.9334 15.67 30.9334C15.238 30.9334 14.89 31.0774 14.626 31.3654C14.362 31.6414 14.152 32.0074 13.996 32.4634C13.828 32.9074 13.684 33.3994 13.564 33.9394C13.444 34.4794 13.306 35.0254 13.15 35.5774C12.982 36.1174 12.772 36.6154 12.52 37.0714C12.268 37.5154 11.932 37.8754 11.512 38.1514C11.08 38.4274 10.528 38.5654 9.85599 38.5654C9.20799 38.5654 8.61399 38.3974 8.07399 38.0614C7.52199 37.7134 7.08399 37.1854 6.75999 36.4774C6.42399 35.7574 6.25599 34.8454 6.25599 33.7414C6.25599 33.0094 6.35199 32.2834 6.54399 31.5634C6.73599 30.8434 7.01199 30.2194 7.37199 29.6914L8.81199 30.2854C8.45199 30.8254 8.19399 31.3954 8.03799 31.9954C7.86999 32.5954 7.78599 33.1774 7.78599 33.7414C7.78599 34.4494 7.87599 35.0314 8.05599 35.4874C8.23599 35.9434 8.47599 36.2794 8.77599 36.4954C9.07599 36.6994 9.41199 36.8014 9.78399 36.8014C10.228 36.8014 10.582 36.6634 10.846 36.3874C11.11 36.0994 11.32 35.7334 11.476 35.2894C11.632 34.8334 11.776 34.3354 11.908 33.7954C12.028 33.2554 12.166 32.7154 12.322 32.1754C12.478 31.6234 12.682 31.1254 12.934 30.6814C13.186 30.2254 13.522 29.8594 13.942 29.5834C14.362 29.3074 14.902 29.1694 15.562 29.1694C16.198 29.1694 16.792 29.3434 17.344 29.6914C17.884 30.0394 18.322 30.5794 18.658 31.3114C18.982 32.0314 19.144 32.9434 19.144 34.0474Z" fill="black"/>
<path d="M271.882 68.16V60.74H268.046L267.976 62.476C267.948 63.1293 267.906 63.75 267.85 64.338C267.803 64.9167 267.724 65.444 267.612 65.92C267.509 66.396 267.365 66.7927 267.178 67.11C266.991 67.4273 266.763 67.6373 266.492 67.74L264.532 67.46C264.887 67.4787 265.176 67.3573 265.4 67.096C265.633 66.8347 265.815 66.4707 265.946 66.004C266.077 65.5373 266.175 64.9913 266.24 64.366C266.305 63.7313 266.352 63.0453 266.38 62.308L266.492 59.2H273.674V68.16H271.882ZM264.196 71.086L264.21 67.46H275.088V71.086H273.408V69H265.89V71.086H264.196ZM278.482 63.274H283.354V64.772H278.482V63.274ZM278.622 67.474H284.152V69H276.802V59.2H283.956V60.726H278.622V67.474ZM288.239 69V60.292L288.673 60.74H285.005V59.2H293.293V60.74H289.625L290.045 60.292V69H288.239ZM293.124 69L297.534 59.2H299.326L303.75 69H301.846L298.052 60.166H298.78L295 69H293.124ZM295.154 66.732L295.644 65.304H300.936L301.426 66.732H295.154ZM305.085 69.14C304.926 69.14 304.767 69.126 304.609 69.098C304.45 69.07 304.277 69.0373 304.091 69L304.217 67.418C304.347 67.4553 304.487 67.474 304.637 67.474C305.029 67.474 305.341 67.3153 305.575 66.998C305.808 66.6713 305.976 66.1953 306.079 65.57C306.181 64.9447 306.251 64.1747 306.289 63.26L306.429 59.2H313.639V69H311.847V60.292L312.267 60.74H307.605L307.997 60.278L307.899 63.19C307.871 64.1607 307.805 65.0147 307.703 65.752C307.6 66.4893 307.441 67.11 307.227 67.614C307.021 68.1087 306.746 68.4867 306.401 68.748C306.055 69.0093 305.617 69.14 305.085 69.14ZM316.409 69V59.2H318.201V66.158L323.465 59.2H325.159V69H323.367V62.056L318.103 69H316.409ZM327.907 69V59.2H331.939C332.807 59.2 333.549 59.34 334.165 59.62C334.79 59.9 335.271 60.3013 335.607 60.824C335.943 61.3467 336.111 61.9673 336.111 62.686C336.111 63.4047 335.943 64.0253 335.607 64.548C335.271 65.0707 334.79 65.472 334.165 65.752C333.549 66.032 332.807 66.172 331.939 66.172H328.915L329.727 65.318V69H327.907ZM329.727 65.514L328.915 64.632H331.855C332.658 64.632 333.26 64.464 333.661 64.128C334.072 63.7827 334.277 63.302 334.277 62.686C334.277 62.0607 334.072 61.58 333.661 61.244C333.26 60.908 332.658 60.74 331.855 60.74H328.915L329.727 59.844V65.514ZM342.52 69.14C341.754 69.14 341.05 69.014 340.406 68.762C339.762 68.51 339.202 68.16 338.726 67.712C338.25 67.2547 337.881 66.7227 337.62 66.116C337.358 65.5 337.228 64.828 337.228 64.1C337.228 63.372 337.358 62.7047 337.62 62.098C337.881 61.482 338.25 60.95 338.726 60.502C339.202 60.0447 339.762 59.69 340.406 59.438C341.05 59.186 341.75 59.06 342.506 59.06C343.271 59.06 343.971 59.186 344.606 59.438C345.25 59.69 345.81 60.0447 346.286 60.502C346.762 60.95 347.13 61.482 347.392 62.098C347.653 62.7047 347.784 63.372 347.784 64.1C347.784 64.828 347.653 65.5 347.392 66.116C347.13 66.732 346.762 67.264 346.286 67.712C345.81 68.16 345.25 68.51 344.606 68.762C343.971 69.014 343.276 69.14 342.52 69.14ZM342.506 67.544C343 67.544 343.458 67.46 343.878 67.292C344.298 67.124 344.662 66.886 344.97 66.578C345.278 66.2607 345.516 65.8967 345.684 65.486C345.861 65.066 345.95 64.604 345.95 64.1C345.95 63.596 345.861 63.1387 345.684 62.728C345.516 62.308 345.278 61.944 344.97 61.636C344.662 61.3187 344.298 61.076 343.878 60.908C343.458 60.74 343 60.656 342.506 60.656C342.011 60.656 341.554 60.74 341.134 60.908C340.723 61.076 340.359 61.3187 340.042 61.636C339.734 61.944 339.491 62.308 339.314 62.728C339.146 63.1387 339.062 63.596 339.062 64.1C339.062 64.5947 339.146 65.052 339.314 65.472C339.491 65.892 339.734 66.2607 340.042 66.578C340.35 66.886 340.714 67.124 341.134 67.292C341.554 67.46 342.011 67.544 342.506 67.544ZM349.81 69V59.2H354.192C355.293 59.2 356.152 59.4193 356.768 59.858C357.384 60.2873 357.692 60.908 357.692 61.72C357.692 62.5227 357.398 63.1433 356.81 63.582C356.222 64.0113 355.447 64.226 354.486 64.226L354.738 63.722C355.83 63.722 356.674 63.9413 357.272 64.38C357.869 64.8187 358.168 65.4533 358.168 66.284C358.168 67.1333 357.855 67.8007 357.23 68.286C356.604 68.762 355.68 69 354.458 69H349.81ZM351.602 67.6H354.402C355.036 67.6 355.517 67.4833 355.844 67.25C356.17 67.0073 356.334 66.6387 356.334 66.144C356.334 65.6493 356.17 65.29 355.844 65.066C355.517 64.8327 355.036 64.716 354.402 64.716H351.602V67.6ZM351.602 63.386H354.038C354.626 63.386 355.074 63.2693 355.382 63.036C355.69 62.7933 355.844 62.448 355.844 62C355.844 61.5333 355.69 61.1833 355.382 60.95C355.074 60.7167 354.626 60.6 354.038 60.6H351.602V63.386ZM366.723 69L363.405 64.226L364.875 63.316L368.781 69H366.723ZM360.241 69V59.2H362.033V69H360.241ZM361.487 64.87V63.302H364.791V64.87H361.487ZM365.043 64.31L363.377 64.086L366.723 59.2H368.655L365.043 64.31ZM368.606 69L373.016 59.2H374.808L379.232 69H377.328L373.534 60.166H374.262L370.482 69H368.606ZM370.636 66.732L371.126 65.304H376.418L376.908 66.732H370.636Z" fill="black"/>
<path d="M460.372 61V51.2H464.404C465.272 51.2 466.014 51.34 466.63 51.62C467.255 51.9 467.736 52.3013 468.072 52.824C468.408 53.3467 468.576 53.9673 468.576 54.686C468.576 55.4047 468.408 56.0253 468.072 56.548C467.736 57.0707 467.255 57.472 466.63 57.752C466.014 58.032 465.272 58.172 464.404 58.172H461.38L462.192 57.318V61H460.372ZM462.192 57.514L461.38 56.632H464.32C465.123 56.632 465.725 56.464 466.126 56.128C466.537 55.7827 466.742 55.302 466.742 54.686C466.742 54.0607 466.537 53.58 466.126 53.244C465.725 52.908 465.123 52.74 464.32 52.74H461.38L462.192 51.844V57.514ZM468.56 61L472.97 51.2H474.762L479.186 61H477.282L473.488 52.166H474.216L470.436 61H468.56ZM470.59 58.732L471.08 57.304H476.372L476.862 58.732H470.59ZM485.06 61.14C484.313 61.14 483.618 61.0187 482.974 60.776C482.339 60.524 481.784 60.174 481.308 59.726C480.841 59.2687 480.477 58.732 480.216 58.116C479.954 57.5 479.824 56.828 479.824 56.1C479.824 55.372 479.954 54.7 480.216 54.084C480.477 53.468 480.846 52.936 481.322 52.488C481.798 52.0307 482.353 51.6807 482.988 51.438C483.622 51.186 484.318 51.06 485.074 51.06C485.876 51.06 486.609 51.2 487.272 51.48C487.934 51.7507 488.494 52.1567 488.952 52.698L487.776 53.804C487.421 53.4213 487.024 53.1367 486.586 52.95C486.147 52.754 485.671 52.656 485.158 52.656C484.644 52.656 484.173 52.74 483.744 52.908C483.324 53.076 482.955 53.314 482.638 53.622C482.33 53.93 482.087 54.294 481.91 54.714C481.742 55.134 481.658 55.596 481.658 56.1C481.658 56.604 481.742 57.066 481.91 57.486C482.087 57.906 482.33 58.27 482.638 58.578C482.955 58.886 483.324 59.124 483.744 59.292C484.173 59.46 484.644 59.544 485.158 59.544C485.671 59.544 486.147 59.4507 486.586 59.264C487.024 59.068 487.421 58.774 487.776 58.382L488.952 59.502C488.494 60.034 487.934 60.44 487.272 60.72C486.609 61 485.872 61.14 485.06 61.14ZM496.664 57.192C496.15 57.4067 495.651 57.5653 495.166 57.668C494.68 57.7707 494.209 57.822 493.752 57.822C492.501 57.822 491.535 57.5233 490.854 56.926C490.182 56.3193 489.846 55.4513 489.846 54.322V51.2H491.652V54.126C491.652 54.8167 491.852 55.344 492.254 55.708C492.655 56.072 493.229 56.254 493.976 56.254C494.424 56.254 494.872 56.2027 495.32 56.1C495.777 55.9973 496.216 55.8387 496.636 55.624L496.664 57.192ZM496.384 61V51.2H498.19V61H496.384ZM502.616 55.274H507.488V56.772H502.616V55.274ZM502.756 59.474H508.286V61H500.936V51.2H508.09V52.726H502.756V59.474ZM512.373 61V52.292L512.807 52.74H509.139V51.2H517.427V52.74H513.759L514.179 52.292V61H512.373ZM464.88 78.14C464.133 78.14 463.438 78.0187 462.794 77.776C462.159 77.524 461.604 77.174 461.128 76.726C460.661 76.2687 460.297 75.732 460.036 75.116C459.775 74.5 459.644 73.828 459.644 73.1C459.644 72.372 459.775 71.7 460.036 71.084C460.297 70.468 460.666 69.936 461.142 69.488C461.618 69.0307 462.173 68.6807 462.808 68.438C463.443 68.186 464.138 68.06 464.894 68.06C465.697 68.06 466.429 68.2 467.092 68.48C467.755 68.7507 468.315 69.1567 468.772 69.698L467.596 70.804C467.241 70.4213 466.845 70.1367 466.406 69.95C465.967 69.754 465.491 69.656 464.978 69.656C464.465 69.656 463.993 69.74 463.564 69.908C463.144 70.076 462.775 70.314 462.458 70.622C462.15 70.93 461.907 71.294 461.73 71.714C461.562 72.134 461.478 72.596 461.478 73.1C461.478 73.604 461.562 74.066 461.73 74.486C461.907 74.906 462.15 75.27 462.458 75.578C462.775 75.886 463.144 76.124 463.564 76.292C463.993 76.46 464.465 76.544 464.978 76.544C465.491 76.544 465.967 76.4507 466.406 76.264C466.845 76.068 467.241 75.774 467.596 75.382L468.772 76.502C468.315 77.034 467.755 77.44 467.092 77.72C466.429 78 465.692 78.14 464.88 78.14ZM472.41 78V69.292L472.844 69.74H469.176V68.2H477.464V69.74H473.796L474.216 69.292V78H472.41ZM483.447 78.14C482.682 78.14 481.977 78.014 481.333 77.762C480.689 77.51 480.129 77.16 479.653 76.712C479.177 76.2547 478.809 75.7227 478.547 75.116C478.286 74.5 478.155 73.828 478.155 73.1C478.155 72.372 478.286 71.7047 478.547 71.098C478.809 70.482 479.177 69.95 479.653 69.502C480.129 69.0447 480.689 68.69 481.333 68.438C481.977 68.186 482.677 68.06 483.433 68.06C484.199 68.06 484.899 68.186 485.533 68.438C486.177 68.69 486.737 69.0447 487.213 69.502C487.689 69.95 488.058 70.482 488.319 71.098C488.581 71.7047 488.711 72.372 488.711 73.1C488.711 73.828 488.581 74.5 488.319 75.116C488.058 75.732 487.689 76.264 487.213 76.712C486.737 77.16 486.177 77.51 485.533 77.762C484.899 78.014 484.203 78.14 483.447 78.14ZM483.433 76.544C483.928 76.544 484.385 76.46 484.805 76.292C485.225 76.124 485.589 75.886 485.897 75.578C486.205 75.2607 486.443 74.8967 486.611 74.486C486.789 74.066 486.877 73.604 486.877 73.1C486.877 72.596 486.789 72.1387 486.611 71.728C486.443 71.308 486.205 70.944 485.897 70.636C485.589 70.3187 485.225 70.076 484.805 69.908C484.385 69.74 483.928 69.656 483.433 69.656C482.939 69.656 482.481 69.74 482.061 69.908C481.651 70.076 481.287 70.3187 480.969 70.636C480.661 70.944 480.419 71.308 480.241 71.728C480.073 72.1387 479.989 72.596 479.989 73.1C479.989 73.5947 480.073 74.052 480.241 74.472C480.419 74.892 480.661 75.2607 480.969 75.578C481.277 75.886 481.641 76.124 482.061 76.292C482.481 76.46 482.939 76.544 483.433 76.544ZM490.738 78V68.2H492.53V75.158L497.794 68.2H499.488V78H497.696V71.056L492.432 78H490.738ZM502.249 78V68.2H503.733L508.031 75.354H507.233L511.461 68.2H512.945L512.973 78H511.237L511.223 70.902H511.587L508.003 76.88H507.191L503.551 70.902H503.971V78H502.249ZM520.266 78.14C519.5 78.14 518.796 78.014 518.152 77.762C517.508 77.51 516.948 77.16 516.472 76.712C515.996 76.2547 515.627 75.7227 515.366 75.116C515.104 74.5 514.974 73.828 514.974 73.1C514.974 72.372 515.104 71.7047 515.366 71.098C515.627 70.482 515.996 69.95 516.472 69.502C516.948 69.0447 517.508 68.69 518.152 68.438C518.796 68.186 519.496 68.06 520.252 68.06C521.017 68.06 521.717 68.186 522.352 68.438C522.996 68.69 523.556 69.0447 524.032 69.502C524.508 69.95 524.876 70.482 525.138 71.098C525.399 71.7047 525.53 72.372 525.53 73.1C525.53 73.828 525.399 74.5 525.138 75.116C524.876 75.732 524.508 76.264 524.032 76.712C523.556 77.16 522.996 77.51 522.352 77.762C521.717 78.014 521.022 78.14 520.266 78.14ZM520.252 76.544C520.746 76.544 521.204 76.46 521.624 76.292C522.044 76.124 522.408 75.886 522.716 75.578C523.024 75.2607 523.262 74.8967 523.43 74.486C523.607 74.066 523.696 73.604 523.696 73.1C523.696 72.596 523.607 72.1387 523.43 71.728C523.262 71.308 523.024 70.944 522.716 70.636C522.408 70.3187 522.044 70.076 521.624 69.908C521.204 69.74 520.746 69.656 520.252 69.656C519.757 69.656 519.3 69.74 518.88 69.908C518.469 70.076 518.105 70.3187 517.788 70.636C517.48 70.944 517.237 71.308 517.06 71.728C516.892 72.1387 516.808 72.596 516.808 73.1C516.808 73.5947 516.892 74.052 517.06 74.472C517.237 74.892 517.48 75.2607 517.788 75.578C518.096 75.886 518.46 76.124 518.88 76.292C519.3 76.46 519.757 76.544 520.252 76.544ZM532.05 78.14C531.303 78.14 530.608 78.0187 529.964 77.776C529.329 77.524 528.774 77.174 528.298 76.726C527.831 76.2687 527.467 75.732 527.206 75.116C526.945 74.5 526.814 73.828 526.814 73.1C526.814 72.372 526.945 71.7 527.206 71.084C527.467 70.468 527.836 69.936 528.312 69.488C528.788 69.0307 529.343 68.6807 529.978 68.438C530.613 68.186 531.308 68.06 532.064 68.06C532.867 68.06 533.599 68.2 534.262 68.48C534.925 68.7507 535.485 69.1567 535.942 69.698L534.766 70.804C534.411 70.4213 534.015 70.1367 533.576 69.95C533.137 69.754 532.661 69.656 532.148 69.656C531.635 69.656 531.163 69.74 530.734 69.908C530.314 70.076 529.945 70.314 529.628 70.622C529.32 70.93 529.077 71.294 528.9 71.714C528.732 72.134 528.648 72.596 528.648 73.1C528.648 73.604 528.732 74.066 528.9 74.486C529.077 74.906 529.32 75.27 529.628 75.578C529.945 75.886 530.314 76.124 530.734 76.292C531.163 76.46 531.635 76.544 532.148 76.544C532.661 76.544 533.137 76.4507 533.576 76.264C534.015 76.068 534.411 75.774 534.766 75.382L535.942 76.502C535.485 77.034 534.925 77.44 534.262 77.72C533.599 78 532.862 78.14 532.05 78.14ZM539.58 78V69.292L540.014 69.74H536.346V68.2H544.634V69.74H540.966L541.386 69.292V78H539.58ZM546.218 78V68.2H548.01V75.158L553.274 68.2H554.968V78H553.176V71.056L547.912 78H546.218Z" fill="black"/>
<path d="M648.88 67.14C648.133 67.14 647.438 67.0187 646.794 66.776C646.159 66.524 645.604 66.174 645.128 65.726C644.661 65.2687 644.297 64.732 644.036 64.116C643.775 63.5 643.644 62.828 643.644 62.1C643.644 61.372 643.775 60.7 644.036 60.084C644.297 59.468 644.666 58.936 645.142 58.488C645.618 58.0307 646.173 57.6807 646.808 57.438C647.443 57.186 648.138 57.06 648.894 57.06C649.697 57.06 650.429 57.2 651.092 57.48C651.755 57.7507 652.315 58.1567 652.772 58.698L651.596 59.804C651.241 59.4213 650.845 59.1367 650.406 58.95C649.967 58.754 649.491 58.656 648.978 58.656C648.465 58.656 647.993 58.74 647.564 58.908C647.144 59.076 646.775 59.314 646.458 59.622C646.15 59.93 645.907 60.294 645.73 60.714C645.562 61.134 645.478 61.596 645.478 62.1C645.478 62.604 645.562 63.066 645.73 63.486C645.907 63.906 646.15 64.27 646.458 64.578C646.775 64.886 647.144 65.124 647.564 65.292C647.993 65.46 648.465 65.544 648.978 65.544C649.491 65.544 649.967 65.4507 650.406 65.264C650.845 65.068 651.241 64.774 651.596 64.382L652.772 65.502C652.315 66.034 651.755 66.44 651.092 66.72C650.429 67 649.692 67.14 648.88 67.14ZM656.41 67V58.292L656.844 58.74H653.176V57.2H661.464V58.74H657.796L658.216 58.292V67H656.41ZM663.034 67V57.2H667.066C667.934 57.2 668.676 57.34 669.292 57.62C669.917 57.9 670.398 58.3013 670.734 58.824C671.07 59.3467 671.238 59.9673 671.238 60.686C671.238 61.4047 671.07 62.0253 670.734 62.548C670.398 63.0707 669.917 63.472 669.292 63.752C668.676 64.032 667.934 64.172 667.066 64.172H664.042L664.854 63.318V67H663.034ZM664.854 63.514L664.042 62.632H666.982C667.785 62.632 668.387 62.464 668.788 62.128C669.199 61.7827 669.404 61.302 669.404 60.686C669.404 60.0607 669.199 59.58 668.788 59.244C668.387 58.908 667.785 58.74 666.982 58.74H664.042L664.854 57.844V63.514ZM677.647 67.14C676.881 67.14 676.177 67.014 675.533 66.762C674.889 66.51 674.329 66.16 673.853 65.712C673.377 65.2547 673.008 64.7227 672.747 64.116C672.485 63.5 672.355 62.828 672.355 62.1C672.355 61.372 672.485 60.7047 672.747 60.098C673.008 59.482 673.377 58.95 673.853 58.502C674.329 58.0447 674.889 57.69 675.533 57.438C676.177 57.186 676.877 57.06 677.633 57.06C678.398 57.06 679.098 57.186 679.733 57.438C680.377 57.69 680.937 58.0447 681.413 58.502C681.889 58.95 682.257 59.482 682.519 60.098C682.78 60.7047 682.911 61.372 682.911 62.1C682.911 62.828 682.78 63.5 682.519 64.116C682.257 64.732 681.889 65.264 681.413 65.712C680.937 66.16 680.377 66.51 679.733 66.762C679.098 67.014 678.403 67.14 677.647 67.14ZM677.633 65.544C678.127 65.544 678.585 65.46 679.005 65.292C679.425 65.124 679.789 64.886 680.097 64.578C680.405 64.2607 680.643 63.8967 680.811 63.486C680.988 63.066 681.077 62.604 681.077 62.1C681.077 61.596 680.988 61.1387 680.811 60.728C680.643 60.308 680.405 59.944 680.097 59.636C679.789 59.3187 679.425 59.076 679.005 58.908C678.585 58.74 678.127 58.656 677.633 58.656C677.138 58.656 676.681 58.74 676.261 58.908C675.85 59.076 675.486 59.3187 675.169 59.636C674.861 59.944 674.618 60.308 674.441 60.728C674.273 61.1387 674.189 61.596 674.189 62.1C674.189 62.5947 674.273 63.052 674.441 63.472C674.618 63.892 674.861 64.2607 675.169 64.578C675.477 64.886 675.841 65.124 676.261 65.292C676.681 65.46 677.138 65.544 677.633 65.544ZM684.937 67V57.2H686.729V64.158L691.993 57.2H693.687V67H691.895V60.056L686.631 67H684.937ZM698.493 67V58.292L698.927 58.74H695.259V57.2H703.547V58.74H699.879L700.299 58.292V67H698.493ZM706.796 61.274H711.668V62.772H706.796V61.274ZM706.936 65.474H712.466V67H705.116V57.2H712.27V58.726H706.936V65.474ZM714.313 67.14C714.154 67.14 713.996 67.126 713.837 67.098C713.678 67.07 713.506 67.0373 713.319 67L713.445 65.418C713.576 65.4553 713.716 65.474 713.865 65.474C714.257 65.474 714.57 65.3153 714.803 64.998C715.036 64.6713 715.204 64.1953 715.307 63.57C715.41 62.9447 715.48 62.1747 715.517 61.26L715.657 57.2H722.867V67H721.075V58.292L721.495 58.74H716.833L717.225 58.278L717.127 61.19C717.099 62.1607 717.034 63.0147 716.931 63.752C716.828 64.4893 716.67 65.11 716.455 65.614C716.25 66.1087 715.974 66.4867 715.629 66.748C715.284 67.0093 714.845 67.14 714.313 67.14ZM730.146 60.518C731.313 60.518 732.213 60.7793 732.848 61.302C733.483 61.8247 733.8 62.6087 733.8 63.654C733.8 64.7553 733.45 65.5907 732.75 66.16C732.059 66.72 731.093 67 729.852 67H725.638V57.2H727.43V60.518H730.146ZM729.768 65.6C730.468 65.6 731.009 65.4367 731.392 65.11C731.784 64.7833 731.98 64.3073 731.98 63.682C731.98 63.066 731.789 62.618 731.406 62.338C731.023 62.0487 730.477 61.904 729.768 61.904H727.43V65.6H729.768ZM740.167 67.14C739.42 67.14 738.725 67.0187 738.081 66.776C737.446 66.524 736.891 66.174 736.415 65.726C735.948 65.2687 735.584 64.732 735.323 64.116C735.062 63.5 734.931 62.828 734.931 62.1C734.931 61.372 735.062 60.7 735.323 60.084C735.584 59.468 735.953 58.936 736.429 58.488C736.905 58.0307 737.46 57.6807 738.095 57.438C738.73 57.186 739.425 57.06 740.181 57.06C740.984 57.06 741.716 57.2 742.379 57.48C743.042 57.7507 743.602 58.1567 744.059 58.698L742.883 59.804C742.528 59.4213 742.132 59.1367 741.693 58.95C741.254 58.754 740.778 58.656 740.265 58.656C739.752 58.656 739.28 58.74 738.851 58.908C738.431 59.076 738.062 59.314 737.745 59.622C737.437 59.93 737.194 60.294 737.017 60.714C736.849 61.134 736.765 61.596 736.765 62.1C736.765 62.604 736.849 63.066 737.017 63.486C737.194 63.906 737.437 64.27 737.745 64.578C738.062 64.886 738.431 65.124 738.851 65.292C739.28 65.46 739.752 65.544 740.265 65.544C740.778 65.544 741.254 65.4507 741.693 65.264C742.132 65.068 742.528 64.774 742.883 64.382L744.059 65.502C743.602 66.034 743.042 66.44 742.379 66.72C741.716 67 740.979 67.14 740.167 67.14ZM747.698 67V58.292L748.132 58.74H744.464V57.2H752.752V58.74H749.084L749.504 58.292V67H747.698ZM754.335 67V57.2H758.717C759.819 57.2 760.677 57.4193 761.293 57.858C761.909 58.2873 762.217 58.908 762.217 59.72C762.217 60.5227 761.923 61.1433 761.335 61.582C760.747 62.0113 759.973 62.226 759.011 62.226L759.263 61.722C760.355 61.722 761.2 61.9413 761.797 62.38C762.395 62.8187 762.693 63.4533 762.693 64.284C762.693 65.1333 762.381 65.8007 761.755 66.286C761.13 66.762 760.206 67 758.983 67H754.335ZM756.127 65.6H758.927C759.562 65.6 760.043 65.4833 760.369 65.25C760.696 65.0073 760.859 64.6387 760.859 64.144C760.859 63.6493 760.696 63.29 760.369 63.066C760.043 62.8327 759.562 62.716 758.927 62.716H756.127V65.6ZM756.127 61.386H758.563C759.151 61.386 759.599 61.2693 759.907 61.036C760.215 60.7933 760.369 60.448 760.369 60C760.369 59.5333 760.215 59.1833 759.907 58.95C759.599 58.7167 759.151 58.6 758.563 58.6H756.127V61.386ZM769.317 67.14C768.551 67.14 767.847 67.014 767.203 66.762C766.559 66.51 765.999 66.16 765.523 65.712C765.047 65.2547 764.678 64.7227 764.417 64.116C764.155 63.5 764.025 62.828 764.025 62.1C764.025 61.372 764.155 60.7047 764.417 60.098C764.678 59.482 765.047 58.95 765.523 58.502C765.999 58.0447 766.559 57.69 767.203 57.438C767.847 57.186 768.547 57.06 769.303 57.06C770.068 57.06 770.768 57.186 771.403 57.438C772.047 57.69 772.607 58.0447 773.083 58.502C773.559 58.95 773.927 59.482 774.189 60.098C774.45 60.7047 774.581 61.372 774.581 62.1C774.581 62.828 774.45 63.5 774.189 64.116C773.927 64.732 773.559 65.264 773.083 65.712C772.607 66.16 772.047 66.51 771.403 66.762C770.768 67.014 770.073 67.14 769.317 67.14ZM769.303 65.544C769.797 65.544 770.255 65.46 770.675 65.292C771.095 65.124 771.459 64.886 771.767 64.578C772.075 64.2607 772.313 63.8967 772.481 63.486C772.658 63.066 772.747 62.604 772.747 62.1C772.747 61.596 772.658 61.1387 772.481 60.728C772.313 60.308 772.075 59.944 771.767 59.636C771.459 59.3187 771.095 59.076 770.675 58.908C770.255 58.74 769.797 58.656 769.303 58.656C768.808 58.656 768.351 58.74 767.931 58.908C767.52 59.076 767.156 59.3187 766.839 59.636C766.531 59.944 766.288 60.308 766.111 60.728C765.943 61.1387 765.859 61.596 765.859 62.1C765.859 62.5947 765.943 63.052 766.111 63.472C766.288 63.892 766.531 64.2607 766.839 64.578C767.147 64.886 767.511 65.124 767.931 65.292C768.351 65.46 768.808 65.544 769.303 65.544Z" fill="black"/>
<path d="M334.88 211.14C334.133 211.14 333.438 211.019 332.794 210.776C332.159 210.524 331.604 210.174 331.128 209.726C330.661 209.269 330.297 208.732 330.036 208.116C329.775 207.5 329.644 206.828 329.644 206.1C329.644 205.372 329.775 204.7 330.036 204.084C330.297 203.468 330.666 202.936 331.142 202.488C331.618 202.031 332.173 201.681 332.808 201.438C333.443 201.186 334.138 201.06 334.894 201.06C335.697 201.06 336.429 201.2 337.092 201.48C337.755 201.751 338.315 202.157 338.772 202.698L337.596 203.804C337.241 203.421 336.845 203.137 336.406 202.95C335.967 202.754 335.491 202.656 334.978 202.656C334.465 202.656 333.993 202.74 333.564 202.908C333.144 203.076 332.775 203.314 332.458 203.622C332.15 203.93 331.907 204.294 331.73 204.714C331.562 205.134 331.478 205.596 331.478 206.1C331.478 206.604 331.562 207.066 331.73 207.486C331.907 207.906 332.15 208.27 332.458 208.578C332.775 208.886 333.144 209.124 333.564 209.292C333.993 209.46 334.465 209.544 334.978 209.544C335.491 209.544 335.967 209.451 336.406 209.264C336.845 209.068 337.241 208.774 337.596 208.382L338.772 209.502C338.315 210.034 337.755 210.44 337.092 210.72C336.429 211 335.692 211.14 334.88 211.14ZM342.41 211V202.292L342.844 202.74H339.176V201.2H347.464V202.74H343.796L344.216 202.292V211H342.41ZM349.034 211V201.2H353.066C353.934 201.2 354.676 201.34 355.292 201.62C355.917 201.9 356.398 202.301 356.734 202.824C357.07 203.347 357.238 203.967 357.238 204.686C357.238 205.405 357.07 206.025 356.734 206.548C356.398 207.071 355.917 207.472 355.292 207.752C354.676 208.032 353.934 208.172 353.066 208.172H350.042L350.854 207.318V211H349.034ZM350.854 207.514L350.042 206.632H352.982C353.785 206.632 354.387 206.464 354.788 206.128C355.199 205.783 355.404 205.302 355.404 204.686C355.404 204.061 355.199 203.58 354.788 203.244C354.387 202.908 353.785 202.74 352.982 202.74H350.042L350.854 201.844V207.514ZM363.647 211.14C362.881 211.14 362.177 211.014 361.533 210.762C360.889 210.51 360.329 210.16 359.853 209.712C359.377 209.255 359.008 208.723 358.747 208.116C358.485 207.5 358.355 206.828 358.355 206.1C358.355 205.372 358.485 204.705 358.747 204.098C359.008 203.482 359.377 202.95 359.853 202.502C360.329 202.045 360.889 201.69 361.533 201.438C362.177 201.186 362.877 201.06 363.633 201.06C364.398 201.06 365.098 201.186 365.733 201.438C366.377 201.69 366.937 202.045 367.413 202.502C367.889 202.95 368.257 203.482 368.519 204.098C368.78 204.705 368.911 205.372 368.911 206.1C368.911 206.828 368.78 207.5 368.519 208.116C368.257 208.732 367.889 209.264 367.413 209.712C366.937 210.16 366.377 210.51 365.733 210.762C365.098 211.014 364.403 211.14 363.647 211.14ZM363.633 209.544C364.127 209.544 364.585 209.46 365.005 209.292C365.425 209.124 365.789 208.886 366.097 208.578C366.405 208.261 366.643 207.897 366.811 207.486C366.988 207.066 367.077 206.604 367.077 206.1C367.077 205.596 366.988 205.139 366.811 204.728C366.643 204.308 366.405 203.944 366.097 203.636C365.789 203.319 365.425 203.076 365.005 202.908C364.585 202.74 364.127 202.656 363.633 202.656C363.138 202.656 362.681 202.74 362.261 202.908C361.85 203.076 361.486 203.319 361.169 203.636C360.861 203.944 360.618 204.308 360.441 204.728C360.273 205.139 360.189 205.596 360.189 206.1C360.189 206.595 360.273 207.052 360.441 207.472C360.618 207.892 360.861 208.261 361.169 208.578C361.477 208.886 361.841 209.124 362.261 209.292C362.681 209.46 363.138 209.544 363.633 209.544ZM370.937 211V201.2H372.729V208.158L377.993 201.2H379.687V211H377.895V204.056L372.631 211H370.937ZM384.493 211V202.292L384.927 202.74H381.259V201.2H389.547V202.74H385.879L386.299 202.292V211H384.493ZM392.796 205.274H397.668V206.772H392.796V205.274ZM392.936 209.474H398.466V211H391.116V201.2H398.27V202.726H392.936V209.474ZM400.313 211.14C400.154 211.14 399.996 211.126 399.837 211.098C399.678 211.07 399.506 211.037 399.319 211L399.445 209.418C399.576 209.455 399.716 209.474 399.865 209.474C400.257 209.474 400.57 209.315 400.803 208.998C401.036 208.671 401.204 208.195 401.307 207.57C401.41 206.945 401.48 206.175 401.517 205.26L401.657 201.2H408.867V211H407.075V202.292L407.495 202.74H402.833L403.225 202.278L403.127 205.19C403.099 206.161 403.034 207.015 402.931 207.752C402.828 208.489 402.67 209.11 402.455 209.614C402.25 210.109 401.974 210.487 401.629 210.748C401.284 211.009 400.845 211.14 400.313 211.14ZM416.146 204.518C417.313 204.518 418.213 204.779 418.848 205.302C419.483 205.825 419.8 206.609 419.8 207.654C419.8 208.755 419.45 209.591 418.75 210.16C418.059 210.72 417.093 211 415.852 211H411.638V201.2H413.43V204.518H416.146ZM415.768 209.6C416.468 209.6 417.009 209.437 417.392 209.11C417.784 208.783 417.98 208.307 417.98 207.682C417.98 207.066 417.789 206.618 417.406 206.338C417.023 206.049 416.477 205.904 415.768 205.904H413.43V209.6H415.768ZM426.167 211.14C425.42 211.14 424.725 211.019 424.081 210.776C423.446 210.524 422.891 210.174 422.415 209.726C421.948 209.269 421.584 208.732 421.323 208.116C421.062 207.5 420.931 206.828 420.931 206.1C420.931 205.372 421.062 204.7 421.323 204.084C421.584 203.468 421.953 202.936 422.429 202.488C422.905 202.031 423.46 201.681 424.095 201.438C424.73 201.186 425.425 201.06 426.181 201.06C426.984 201.06 427.716 201.2 428.379 201.48C429.042 201.751 429.602 202.157 430.059 202.698L428.883 203.804C428.528 203.421 428.132 203.137 427.693 202.95C427.254 202.754 426.778 202.656 426.265 202.656C425.752 202.656 425.28 202.74 424.851 202.908C424.431 203.076 424.062 203.314 423.745 203.622C423.437 203.93 423.194 204.294 423.017 204.714C422.849 205.134 422.765 205.596 422.765 206.1C422.765 206.604 422.849 207.066 423.017 207.486C423.194 207.906 423.437 208.27 423.745 208.578C424.062 208.886 424.431 209.124 424.851 209.292C425.28 209.46 425.752 209.544 426.265 209.544C426.778 209.544 427.254 209.451 427.693 209.264C428.132 209.068 428.528 208.774 428.883 208.382L430.059 209.502C429.602 210.034 429.042 210.44 428.379 210.72C427.716 211 426.979 211.14 426.167 211.14ZM433.698 211V202.292L434.132 202.74H430.464V201.2H438.752V202.74H435.084L435.504 202.292V211H433.698ZM440.335 211V201.2H444.717C445.819 201.2 446.677 201.419 447.293 201.858C447.909 202.287 448.217 202.908 448.217 203.72C448.217 204.523 447.923 205.143 447.335 205.582C446.747 206.011 445.973 206.226 445.011 206.226L445.263 205.722C446.355 205.722 447.2 205.941 447.797 206.38C448.395 206.819 448.693 207.453 448.693 208.284C448.693 209.133 448.381 209.801 447.755 210.286C447.13 210.762 446.206 211 444.983 211H440.335ZM442.127 209.6H444.927C445.562 209.6 446.043 209.483 446.369 209.25C446.696 209.007 446.859 208.639 446.859 208.144C446.859 207.649 446.696 207.29 446.369 207.066C446.043 206.833 445.562 206.716 444.927 206.716H442.127V209.6ZM442.127 205.386H444.563C445.151 205.386 445.599 205.269 445.907 205.036C446.215 204.793 446.369 204.448 446.369 204C446.369 203.533 446.215 203.183 445.907 202.95C445.599 202.717 445.151 202.6 444.563 202.6H442.127V205.386ZM455.317 211.14C454.551 211.14 453.847 211.014 453.203 210.762C452.559 210.51 451.999 210.16 451.523 209.712C451.047 209.255 450.678 208.723 450.417 208.116C450.155 207.5 450.025 206.828 450.025 206.1C450.025 205.372 450.155 204.705 450.417 204.098C450.678 203.482 451.047 202.95 451.523 202.502C451.999 202.045 452.559 201.69 453.203 201.438C453.847 201.186 454.547 201.06 455.303 201.06C456.068 201.06 456.768 201.186 457.403 201.438C458.047 201.69 458.607 202.045 459.083 202.502C459.559 202.95 459.927 203.482 460.189 204.098C460.45 204.705 460.581 205.372 460.581 206.1C460.581 206.828 460.45 207.5 460.189 208.116C459.927 208.732 459.559 209.264 459.083 209.712C458.607 210.16 458.047 210.51 457.403 210.762C456.768 211.014 456.073 211.14 455.317 211.14ZM455.303 209.544C455.797 209.544 456.255 209.46 456.675 209.292C457.095 209.124 457.459 208.886 457.767 208.578C458.075 208.261 458.313 207.897 458.481 207.486C458.658 207.066 458.747 206.604 458.747 206.1C458.747 205.596 458.658 205.139 458.481 204.728C458.313 204.308 458.075 203.944 457.767 203.636C457.459 203.319 457.095 203.076 456.675 202.908C456.255 202.74 455.797 202.656 455.303 202.656C454.808 202.656 454.351 202.74 453.931 202.908C453.52 203.076 453.156 203.319 452.839 203.636C452.531 203.944 452.288 204.308 452.111 204.728C451.943 205.139 451.859 205.596 451.859 206.1C451.859 206.595 451.943 207.052 452.111 207.472C452.288 207.892 452.531 208.261 452.839 208.578C453.147 208.886 453.511 209.124 453.931 209.292C454.351 209.46 454.808 209.544 455.303 209.544Z" fill="black"/>
<path d="M624.386 211V201.2H628.768C629.869 201.2 630.728 201.419 631.344 201.858C631.96 202.287 632.268 202.908 632.268 203.72C632.268 204.523 631.974 205.143 631.386 205.582C630.798 206.011 630.023 206.226 629.062 206.226L629.314 205.722C630.406 205.722 631.251 205.941 631.848 206.38C632.445 206.819 632.744 207.453 632.744 208.284C632.744 209.133 632.431 209.801 631.806 210.286C631.181 210.762 630.257 211 629.034 211H624.386ZM626.178 209.6H628.978C629.613 209.6 630.093 209.483 630.42 209.25C630.747 209.007 630.91 208.639 630.91 208.144C630.91 207.649 630.747 207.29 630.42 207.066C630.093 206.833 629.613 206.716 628.978 206.716H626.178V209.6ZM626.178 205.386H628.614C629.202 205.386 629.65 205.269 629.958 205.036C630.266 204.793 630.42 204.448 630.42 204C630.42 203.533 630.266 203.183 629.958 202.95C629.65 202.717 629.202 202.6 628.614 202.6H626.178V205.386ZM639.339 204.518C640.506 204.518 641.407 204.779 642.041 205.302C642.676 205.825 642.993 206.609 642.993 207.654C642.993 208.755 642.643 209.591 641.943 210.16C641.253 210.72 640.287 211 639.045 211H634.831V201.2H636.623V204.518H639.339ZM638.961 209.6C639.661 209.6 640.203 209.437 640.585 209.11C640.977 208.783 641.173 208.307 641.173 207.682C641.173 207.066 640.982 206.618 640.599 206.338C640.217 206.049 639.671 205.904 638.961 205.904H636.623V209.6H638.961ZM644.407 211V201.2H646.199V211H644.407ZM648.968 211V201.2H650.76V208.158L656.024 201.2H657.718V211H655.926V204.056L650.662 211H648.968ZM660.48 211V201.2H667.13L667.116 202.74H661.838L662.258 202.306L662.272 211H660.48ZM668.655 211V201.2H672.687C673.555 201.2 674.297 201.34 674.913 201.62C675.539 201.9 676.019 202.301 676.355 202.824C676.691 203.347 676.859 203.967 676.859 204.686C676.859 205.405 676.691 206.025 676.355 206.548C676.019 207.071 675.539 207.472 674.913 207.752C674.297 208.032 673.555 208.172 672.687 208.172H669.663L670.475 207.318V211H668.655ZM670.475 207.514L669.663 206.632H672.603C673.406 206.632 674.008 206.464 674.409 206.128C674.82 205.783 675.025 205.302 675.025 204.686C675.025 204.061 674.82 203.58 674.409 203.244C674.008 202.908 673.406 202.74 672.603 202.74H669.663L670.475 201.844V207.514ZM676.843 211L681.253 201.2H683.045L687.469 211H685.565L681.771 202.166H682.499L678.719 211H676.843ZM678.873 208.732L679.363 207.304H684.655L685.145 208.732H678.873ZM695.86 201.2H697.68V211H695.86V201.2ZM690.792 211H688.972V201.2H690.792V211ZM696 206.8H690.638V205.246H696V206.8ZM707.317 201.2H709.137V211H707.317V201.2ZM702.249 211H700.429V201.2H702.249V211ZM707.457 206.8H702.095V205.246H707.457V206.8ZM716.436 211.14C715.67 211.14 714.966 211.014 714.322 210.762C713.678 210.51 713.118 210.16 712.642 209.712C712.166 209.255 711.797 208.723 711.536 208.116C711.274 207.5 711.144 206.828 711.144 206.1C711.144 205.372 711.274 204.705 711.536 204.098C711.797 203.482 712.166 202.95 712.642 202.502C713.118 202.045 713.678 201.69 714.322 201.438C714.966 201.186 715.666 201.06 716.422 201.06C717.187 201.06 717.887 201.186 718.522 201.438C719.166 201.69 719.726 202.045 720.202 202.502C720.678 202.95 721.046 203.482 721.308 204.098C721.569 204.705 721.7 205.372 721.7 206.1C721.7 206.828 721.569 207.5 721.308 208.116C721.046 208.732 720.678 209.264 720.202 209.712C719.726 210.16 719.166 210.51 718.522 210.762C717.887 211.014 717.192 211.14 716.436 211.14ZM716.422 209.544C716.916 209.544 717.374 209.46 717.794 209.292C718.214 209.124 718.578 208.886 718.886 208.578C719.194 208.261 719.432 207.897 719.6 207.486C719.777 207.066 719.866 206.604 719.866 206.1C719.866 205.596 719.777 205.139 719.6 204.728C719.432 204.308 719.194 203.944 718.886 203.636C718.578 203.319 718.214 203.076 717.794 202.908C717.374 202.74 716.916 202.656 716.422 202.656C715.927 202.656 715.47 202.74 715.05 202.908C714.639 203.076 714.275 203.319 713.958 203.636C713.65 203.944 713.407 204.308 713.23 204.728C713.062 205.139 712.978 205.596 712.978 206.1C712.978 206.595 713.062 207.052 713.23 207.472C713.407 207.892 713.65 208.261 713.958 208.578C714.266 208.886 714.63 209.124 715.05 209.292C715.47 209.46 715.927 209.544 716.422 209.544ZM725.392 205.274H730.264V206.772H725.392V205.274ZM725.532 209.474H731.062V211H723.712V201.2H730.866V202.726H725.532V209.474ZM736.974 211V201.2H741.356C742.457 201.2 743.316 201.419 743.932 201.858C744.548 202.287 744.856 202.908 744.856 203.72C744.856 204.523 744.562 205.143 743.974 205.582C743.386 206.011 742.611 206.226 741.65 206.226L741.902 205.722C742.994 205.722 743.839 205.941 744.436 206.38C745.033 206.819 745.332 207.453 745.332 208.284C745.332 209.133 745.019 209.801 744.394 210.286C743.769 210.762 742.845 211 741.622 211H736.974ZM738.766 209.6H741.566C742.201 209.6 742.681 209.483 743.008 209.25C743.335 209.007 743.498 208.639 743.498 208.144C743.498 207.649 743.335 207.29 743.008 207.066C742.681 206.833 742.201 206.716 741.566 206.716H738.766V209.6ZM738.766 205.386H741.202C741.79 205.386 742.238 205.269 742.546 205.036C742.854 204.793 743.008 204.448 743.008 204C743.008 203.533 742.854 203.183 742.546 202.95C742.238 202.717 741.79 202.6 741.202 202.6H738.766V205.386ZM747.405 211V201.2H751.437C752.305 201.2 753.047 201.34 753.663 201.62C754.289 201.9 754.769 202.301 755.105 202.824C755.441 203.347 755.609 203.967 755.609 204.686C755.609 205.405 755.441 206.025 755.105 206.548C754.769 207.071 754.289 207.472 753.663 207.752C753.047 208.032 752.305 208.172 751.437 208.172H748.413L749.225 207.318V211H747.405ZM749.225 207.514L748.413 206.632H751.353C752.156 206.632 752.758 206.464 753.159 206.128C753.57 205.783 753.775 205.302 753.775 204.686C753.775 204.061 753.57 203.58 753.159 203.244C752.758 202.908 752.156 202.74 751.353 202.74H748.413L749.225 201.844V207.514ZM759.011 205.274H763.883V206.772H759.011V205.274ZM759.151 209.474H764.681V211H757.331V201.2H764.485V202.726H759.151V209.474ZM766.724 211V201.2H768.208L772.506 208.354H771.708L775.936 201.2H777.42L777.448 211H775.712L775.698 203.902H776.062L772.478 209.88H771.666L768.026 203.902H768.446V211H766.724ZM785.888 211V207.864L786.336 208.27H783.466C782.645 208.27 781.936 208.135 781.338 207.864C780.75 207.584 780.298 207.187 779.98 206.674C779.663 206.151 779.504 205.526 779.504 204.798C779.504 204.042 779.672 203.398 780.008 202.866C780.344 202.325 780.82 201.914 781.436 201.634C782.052 201.345 782.776 201.2 783.606 201.2H787.68V211H785.888ZM779.532 211L781.954 207.5H783.788L781.45 211H779.532ZM785.888 207.276V202.236L786.336 202.74H783.662C782.916 202.74 782.342 202.913 781.94 203.258C781.548 203.594 781.352 204.098 781.352 204.77C781.352 205.414 781.539 205.913 781.912 206.268C782.295 206.613 782.855 206.786 783.592 206.786H786.336L785.888 207.276Z" fill="black"/>
<path d="M90.854 203L87.536 198.226L89.006 197.316L92.912 203H90.854ZM84.372 203V193.2H86.164V203H84.372ZM85.618 198.87V197.302H88.922V198.87H85.618ZM89.174 198.31L87.508 198.086L90.854 193.2H92.786L89.174 198.31ZM98.67 203.14C97.9047 203.14 97.2 203.014 96.556 202.762C95.912 202.51 95.352 202.16 94.876 201.712C94.4 201.255 94.0314 200.723 93.77 200.116C93.5087 199.5 93.378 198.828 93.378 198.1C93.378 197.372 93.5087 196.705 93.77 196.098C94.0314 195.482 94.4 194.95 94.876 194.502C95.352 194.045 95.912 193.69 96.556 193.438C97.2 193.186 97.9 193.06 98.656 193.06C99.4214 193.06 100.121 193.186 100.756 193.438C101.4 193.69 101.96 194.045 102.436 194.502C102.912 194.95 103.281 195.482 103.542 196.098C103.803 196.705 103.934 197.372 103.934 198.1C103.934 198.828 103.803 199.5 103.542 200.116C103.281 200.732 102.912 201.264 102.436 201.712C101.96 202.16 101.4 202.51 100.756 202.762C100.121 203.014 99.426 203.14 98.67 203.14ZM98.656 201.544C99.1507 201.544 99.608 201.46 100.028 201.292C100.448 201.124 100.812 200.886 101.12 200.578C101.428 200.261 101.666 199.897 101.834 199.486C102.011 199.066 102.1 198.604 102.1 198.1C102.1 197.596 102.011 197.139 101.834 196.728C101.666 196.308 101.428 195.944 101.12 195.636C100.812 195.319 100.448 195.076 100.028 194.908C99.608 194.74 99.1507 194.656 98.656 194.656C98.1614 194.656 97.704 194.74 97.284 194.908C96.8734 195.076 96.5094 195.319 96.192 195.636C95.884 195.944 95.6414 196.308 95.464 196.728C95.296 197.139 95.212 197.596 95.212 198.1C95.212 198.595 95.296 199.052 95.464 199.472C95.6414 199.892 95.884 200.261 96.192 200.578C96.5 200.886 96.864 201.124 97.284 201.292C97.704 201.46 98.1614 201.544 98.656 201.544ZM112.834 193.2H114.654V203H112.834V193.2ZM107.766 203H105.946V193.2H107.766V203ZM112.974 198.8H107.612V197.246H112.974V198.8ZM121.911 203.14C121.165 203.14 120.469 203.019 119.825 202.776C119.191 202.524 118.635 202.174 118.159 201.726C117.693 201.269 117.329 200.732 117.067 200.116C116.806 199.5 116.675 198.828 116.675 198.1C116.675 197.372 116.806 196.7 117.067 196.084C117.329 195.468 117.697 194.936 118.173 194.488C118.649 194.031 119.205 193.681 119.839 193.438C120.474 193.186 121.169 193.06 121.925 193.06C122.728 193.06 123.461 193.2 124.123 193.48C124.786 193.751 125.346 194.157 125.803 194.698L124.627 195.804C124.273 195.421 123.876 195.137 123.437 194.95C122.999 194.754 122.523 194.656 122.009 194.656C121.496 194.656 121.025 194.74 120.595 194.908C120.175 195.076 119.807 195.314 119.489 195.622C119.181 195.93 118.939 196.294 118.761 196.714C118.593 197.134 118.509 197.596 118.509 198.1C118.509 198.604 118.593 199.066 118.761 199.486C118.939 199.906 119.181 200.27 119.489 200.578C119.807 200.886 120.175 201.124 120.595 201.292C121.025 201.46 121.496 201.544 122.009 201.544C122.523 201.544 122.999 201.451 123.437 201.264C123.876 201.068 124.273 200.774 124.627 200.382L125.803 201.502C125.346 202.034 124.786 202.44 124.123 202.72C123.461 203 122.723 203.14 121.911 203.14ZM129.442 203V194.292L129.876 194.74H126.208V193.2H134.496V194.74H130.828L131.248 194.292V203H129.442ZM136.065 203V193.2H140.097C140.965 193.2 141.707 193.34 142.323 193.62C142.949 193.9 143.429 194.301 143.765 194.824C144.101 195.347 144.269 195.967 144.269 196.686C144.269 197.405 144.101 198.025 143.765 198.548C143.429 199.071 142.949 199.472 142.323 199.752C141.707 200.032 140.965 200.172 140.097 200.172H137.073L137.885 199.318V203H136.065ZM137.885 199.514L137.073 198.632H140.013C140.816 198.632 141.418 198.464 141.819 198.128C142.23 197.783 142.435 197.302 142.435 196.686C142.435 196.061 142.23 195.58 141.819 195.244C141.418 194.908 140.816 194.74 140.013 194.74H137.073L137.885 193.844V199.514ZM145.912 201.46C146.426 201.637 146.878 201.684 147.27 201.6C147.662 201.516 148.012 201.231 148.32 200.746L148.796 200.004L148.978 199.808L152.394 193.2H154.186L149.93 201.11C149.585 201.773 149.174 202.277 148.698 202.622C148.222 202.967 147.709 203.159 147.158 203.196C146.617 203.243 146.052 203.14 145.464 202.888L145.912 201.46ZM148.936 201.376L144.568 193.2H146.514L149.93 199.976L148.936 201.376ZM161.934 203L158.616 198.226L160.086 197.316L163.992 203H161.934ZM155.452 203V193.2H157.244V203H155.452ZM156.698 198.87V197.302H160.002V198.87H156.698ZM160.254 198.31L158.588 198.086L161.934 193.2H163.866L160.254 198.31ZM167.19 203V194.292L167.624 194.74H163.956V193.2H172.244V194.74H168.576L168.996 194.292V203H167.19ZM173.827 203V193.2H175.619V200.158L180.883 193.2H182.577V203H180.785V196.056L175.521 203H173.827ZM185.339 203V193.2H189.721C190.822 193.2 191.681 193.419 192.297 193.858C192.913 194.287 193.221 194.908 193.221 195.72C193.221 196.523 192.927 197.143 192.339 197.582C191.751 198.011 190.976 198.226 190.015 198.226L190.267 197.722C191.359 197.722 192.204 197.941 192.801 198.38C193.398 198.819 193.697 199.453 193.697 200.284C193.697 201.133 193.384 201.801 192.759 202.286C192.134 202.762 191.21 203 189.987 203H185.339ZM187.131 201.6H189.931C190.566 201.6 191.046 201.483 191.373 201.25C191.7 201.007 191.863 200.639 191.863 200.144C191.863 199.649 191.7 199.29 191.373 199.066C191.046 198.833 190.566 198.716 189.931 198.716H187.131V201.6ZM187.131 197.386H189.567C190.155 197.386 190.603 197.269 190.911 197.036C191.219 196.793 191.373 196.448 191.373 196C191.373 195.533 191.219 195.183 190.911 194.95C190.603 194.717 190.155 194.6 189.567 194.6H187.131V197.386ZM195.098 205.114L195.91 202.02L196.148 203.056C195.821 203.056 195.546 202.958 195.322 202.762C195.107 202.557 195 202.281 195 201.936C195 201.581 195.107 201.301 195.322 201.096C195.546 200.881 195.817 200.774 196.134 200.774C196.461 200.774 196.731 200.881 196.946 201.096C197.161 201.311 197.268 201.591 197.268 201.936C197.268 202.029 197.259 202.132 197.24 202.244C197.221 202.347 197.189 202.468 197.142 202.608C197.105 202.748 197.039 202.925 196.946 203.14L196.232 205.114H195.098ZM90.49 216.192C89.9767 216.407 89.4773 216.565 88.992 216.668C88.5067 216.771 88.0353 216.822 87.578 216.822C86.3273 216.822 85.3613 216.523 84.68 215.926C84.008 215.319 83.672 214.451 83.672 213.322V210.2H85.478V213.126C85.478 213.817 85.6787 214.344 86.08 214.708C86.4813 215.072 87.0553 215.254 87.802 215.254C88.25 215.254 88.698 215.203 89.146 215.1C89.6033 214.997 90.042 214.839 90.462 214.624L90.49 216.192ZM90.21 220V210.2H92.016V220H90.21ZM96.4426 214.274H101.315V215.772H96.4426V214.274ZM96.5826 218.474H102.113V220H94.7626V210.2H101.917V211.726H96.5826V218.474ZM104.142 220V210.2H108.174C109.042 210.2 109.784 210.34 110.4 210.62C111.025 210.9 111.506 211.301 111.842 211.824C112.178 212.347 112.346 212.967 112.346 213.686C112.346 214.405 112.178 215.025 111.842 215.548C111.506 216.071 111.025 216.472 110.4 216.752C109.784 217.032 109.042 217.172 108.174 217.172H105.15L105.962 216.318V220H104.142ZM105.962 216.514L105.15 215.632H108.09C108.892 215.632 109.494 215.464 109.896 215.128C110.306 214.783 110.512 214.302 110.512 213.686C110.512 213.061 110.306 212.58 109.896 212.244C109.494 211.908 108.892 211.74 108.09 211.74H105.15L105.962 210.844V216.514ZM115.838 220V211.292L116.272 211.74H112.604V210.2H120.892V211.74H117.224L117.644 211.292V220H115.838ZM124.142 214.274H129.014V215.772H124.142V214.274ZM124.282 218.474H129.812V220H122.462V210.2H129.616V211.726H124.282V218.474ZM142.763 220L139.907 215.226L141.447 214.316L144.863 220H142.763ZM138.087 215.87V214.302H141.041V215.87H138.087ZM141.545 215.31L139.851 215.086L142.721 210.2H144.653L141.545 215.31ZM132.683 220H130.583L133.999 214.316L135.553 215.226L132.683 220ZM138.619 220H136.841V210.2H138.619V220ZM137.373 215.87H134.405V214.302H137.373V215.87ZM133.915 215.31L130.793 210.2H132.725L135.581 215.086L133.915 215.31ZM146.142 220V210.2H147.934V217.158L153.198 210.2H154.892V220H153.1V213.056L147.836 220H146.142Z" fill="black"/>
<line x1="586.5" y1="2.18557e-08" x2="586.5" y2="262" stroke="black" stroke-dasharray="4 4"/>
<line x1="527.5" y1="99" x2="527.5" y2="139" stroke="black"/>
<path d="M301.146 165.354C301.342 165.549 301.658 165.549 301.854 165.354L305.036 162.172C305.231 161.976 305.231 161.66 305.036 161.464C304.84 161.269 304.524 161.269 304.328 161.464L301.5 164.293L298.672 161.464C298.476 161.269 298.16 161.269 297.964 161.464C297.769 161.66 297.769 161.976 297.964 162.172L301.146 165.354ZM301.5 139L301 139L301 165L301.5 165L302 165L302 139L301.5 139Z" fill="black"/>
<line x1="527" y1="138.5" x2="301" y2="138.5" stroke="black"/>
</svg>
