<svg width="654" height="197" viewBox="0 0 654 197" fill="none" xmlns="http://www.w3.org/2000/svg">
<path d="M415 0H654V154H415L451.5 77L415 0Z" fill="#2D333D"/>
<path d="M514.172 58V45.4H519.806C521.222 45.4 522.326 45.682 523.118 46.246C523.91 46.798 524.306 47.596 524.306 48.64C524.306 49.672 523.928 50.47 523.172 51.034C522.416 51.586 521.42 51.862 520.184 51.862L520.508 51.214C521.912 51.214 522.998 51.496 523.766 52.06C524.534 52.624 524.918 53.44 524.918 54.508C524.918 55.6 524.516 56.458 523.712 57.082C522.908 57.694 521.72 58 520.148 58H514.172ZM516.476 56.2H520.076C520.892 56.2 521.51 56.05 521.93 55.75C522.35 55.438 522.56 54.964 522.56 54.328C522.56 53.692 522.35 53.23 521.93 52.942C521.51 52.642 520.892 52.492 520.076 52.492H516.476V56.2ZM516.476 50.782H519.608C520.364 50.782 520.94 50.632 521.336 50.332C521.732 50.02 521.93 49.576 521.93 49C521.93 48.4 521.732 47.95 521.336 47.65C520.94 47.35 520.364 47.2 519.608 47.2H516.476V50.782ZM525.981 58L531.651 45.4H533.955L539.643 58H537.195L532.317 46.642H533.253L528.393 58H525.981ZM528.591 55.084L529.221 53.248H536.025L536.655 55.084H528.591ZM549.064 56.02L548.542 56.596V45.4H550.846V56.596L550.288 56.02H556.03L555.472 56.596V45.4H557.776V58H541.594V45.4H543.898V56.596L543.358 56.02H549.064ZM563.476 50.638H569.74V52.564H563.476V50.638ZM563.656 56.038H570.766V58H561.316V45.4H570.514V47.362H563.656V56.038ZM498.281 78V65.4H506.831L506.813 67.38H500.027L500.567 66.822L500.585 78H498.281ZM513.201 78.18C512.217 78.18 511.311 78.018 510.483 77.694C509.655 77.37 508.935 76.92 508.323 76.344C507.711 75.756 507.237 75.072 506.901 74.292C506.565 73.5 506.397 72.636 506.397 71.7C506.397 70.764 506.565 69.906 506.901 69.126C507.237 68.334 507.711 67.65 508.323 67.074C508.935 66.486 509.655 66.03 510.483 65.706C511.311 65.382 512.211 65.22 513.183 65.22C514.167 65.22 515.067 65.382 515.883 65.706C516.711 66.03 517.431 66.486 518.043 67.074C518.655 67.65 519.129 68.334 519.465 69.126C519.801 69.906 519.969 70.764 519.969 71.7C519.969 72.636 519.801 73.5 519.465 74.292C519.129 75.084 518.655 75.768 518.043 76.344C517.431 76.92 516.711 77.37 515.883 77.694C515.067 78.018 514.173 78.18 513.201 78.18ZM513.183 76.128C513.819 76.128 514.407 76.02 514.947 75.804C515.487 75.588 515.955 75.282 516.351 74.886C516.747 74.478 517.053 74.01 517.269 73.482C517.497 72.942 517.611 72.348 517.611 71.7C517.611 71.052 517.497 70.464 517.269 69.936C517.053 69.396 516.747 68.928 516.351 68.532C515.955 68.124 515.487 67.812 514.947 67.596C514.407 67.38 513.819 67.272 513.183 67.272C512.547 67.272 511.959 67.38 511.419 67.596C510.891 67.812 510.423 68.124 510.015 68.532C509.619 68.928 509.307 69.396 509.079 69.936C508.863 70.464 508.755 71.052 508.755 71.7C508.755 72.336 508.863 72.924 509.079 73.464C509.307 74.004 509.619 74.478 510.015 74.886C510.411 75.282 510.879 75.588 511.419 75.804C511.959 76.02 512.547 76.128 513.183 76.128ZM525.026 78V66.804L525.584 67.38H520.868V65.4H531.524V67.38H526.808L527.348 66.804V78H525.026ZM539.217 78.18C538.233 78.18 537.327 78.018 536.499 77.694C535.671 77.37 534.951 76.92 534.339 76.344C533.727 75.756 533.253 75.072 532.917 74.292C532.581 73.5 532.413 72.636 532.413 71.7C532.413 70.764 532.581 69.906 532.917 69.126C533.253 68.334 533.727 67.65 534.339 67.074C534.951 66.486 535.671 66.03 536.499 65.706C537.327 65.382 538.227 65.22 539.199 65.22C540.183 65.22 541.083 65.382 541.899 65.706C542.727 66.03 543.447 66.486 544.059 67.074C544.671 67.65 545.145 68.334 545.481 69.126C545.817 69.906 545.985 70.764 545.985 71.7C545.985 72.636 545.817 73.5 545.481 74.292C545.145 75.084 544.671 75.768 544.059 76.344C543.447 76.92 542.727 77.37 541.899 77.694C541.083 78.018 540.189 78.18 539.217 78.18ZM539.199 76.128C539.835 76.128 540.423 76.02 540.963 75.804C541.503 75.588 541.971 75.282 542.367 74.886C542.763 74.478 543.069 74.01 543.285 73.482C543.513 72.942 543.627 72.348 543.627 71.7C543.627 71.052 543.513 70.464 543.285 69.936C543.069 69.396 542.763 68.928 542.367 68.532C541.971 68.124 541.503 67.812 540.963 67.596C540.423 67.38 539.835 67.272 539.199 67.272C538.563 67.272 537.975 67.38 537.435 67.596C536.907 67.812 536.439 68.124 536.031 68.532C535.635 68.928 535.323 69.396 535.095 69.936C534.879 70.464 534.771 71.052 534.771 71.7C534.771 72.336 534.879 72.924 535.095 73.464C535.323 74.004 535.635 74.478 536.031 74.886C536.427 75.282 536.895 75.588 537.435 75.804C537.975 76.02 538.563 76.128 539.199 76.128ZM548.59 78V65.4H554.224C555.64 65.4 556.744 65.682 557.536 66.246C558.328 66.798 558.724 67.596 558.724 68.64C558.724 69.672 558.346 70.47 557.59 71.034C556.834 71.586 555.838 71.862 554.602 71.862L554.926 71.214C556.33 71.214 557.416 71.496 558.184 72.06C558.952 72.624 559.336 73.44 559.336 74.508C559.336 75.6 558.934 76.458 558.13 77.082C557.326 77.694 556.138 78 554.566 78H548.59ZM550.894 76.2H554.494C555.31 76.2 555.928 76.05 556.348 75.75C556.768 75.438 556.978 74.964 556.978 74.328C556.978 73.692 556.768 73.23 556.348 72.942C555.928 72.642 555.31 72.492 554.494 72.492H550.894V76.2ZM550.894 70.782H554.026C554.782 70.782 555.358 70.632 555.754 70.332C556.15 70.02 556.348 69.576 556.348 69C556.348 68.4 556.15 67.95 555.754 67.65C555.358 67.35 554.782 67.2 554.026 67.2H550.894V70.782ZM567.851 78.18C566.867 78.18 565.961 78.018 565.133 77.694C564.305 77.37 563.585 76.92 562.973 76.344C562.361 75.756 561.887 75.072 561.551 74.292C561.215 73.5 561.047 72.636 561.047 71.7C561.047 70.764 561.215 69.906 561.551 69.126C561.887 68.334 562.361 67.65 562.973 67.074C563.585 66.486 564.305 66.03 565.133 65.706C565.961 65.382 566.861 65.22 567.833 65.22C568.817 65.22 569.717 65.382 570.533 65.706C571.361 66.03 572.081 66.486 572.693 67.074C573.305 67.65 573.779 68.334 574.115 69.126C574.451 69.906 574.619 70.764 574.619 71.7C574.619 72.636 574.451 73.5 574.115 74.292C573.779 75.084 573.305 75.768 572.693 76.344C572.081 76.92 571.361 77.37 570.533 77.694C569.717 78.018 568.823 78.18 567.851 78.18ZM567.833 76.128C568.469 76.128 569.057 76.02 569.597 75.804C570.137 75.588 570.605 75.282 571.001 74.886C571.397 74.478 571.703 74.01 571.919 73.482C572.147 72.942 572.261 72.348 572.261 71.7C572.261 71.052 572.147 70.464 571.919 69.936C571.703 69.396 571.397 68.928 571.001 68.532C570.605 68.124 570.137 67.812 569.597 67.596C569.057 67.38 568.469 67.272 567.833 67.272C567.197 67.272 566.609 67.38 566.069 67.596C565.541 67.812 565.073 68.124 564.665 68.532C564.269 68.928 563.957 69.396 563.729 69.936C563.513 70.464 563.405 71.052 563.405 71.7C563.405 72.336 563.513 72.924 563.729 73.464C563.957 74.004 564.269 74.478 564.665 74.886C565.061 75.282 565.529 75.588 566.069 75.804C566.609 76.02 567.197 76.128 567.833 76.128ZM579.366 70.638H585.63V72.564H579.366V70.638ZM579.546 76.038H586.656V78H577.206V65.4H586.404V67.362H579.546V76.038ZM501.53 96.758L502.286 95.048C502.826 95.42 503.414 95.708 504.05 95.912C504.698 96.104 505.34 96.206 505.976 96.218C506.612 96.23 507.188 96.158 507.704 96.002C508.232 95.846 508.652 95.612 508.964 95.3C509.276 94.988 509.432 94.598 509.432 94.13C509.432 93.566 509.198 93.146 508.73 92.87C508.274 92.582 507.65 92.438 506.858 92.438H503.924V90.602H506.678C507.386 90.602 507.932 90.458 508.316 90.17C508.712 89.882 508.91 89.492 508.91 89C508.91 88.592 508.778 88.256 508.514 87.992C508.262 87.728 507.914 87.53 507.47 87.398C507.038 87.266 506.546 87.206 505.994 87.218C505.454 87.218 504.89 87.302 504.302 87.47C503.714 87.626 503.156 87.86 502.628 88.172L501.89 86.282C502.682 85.862 503.51 85.568 504.374 85.4C505.25 85.232 506.096 85.184 506.912 85.256C507.728 85.328 508.46 85.514 509.108 85.814C509.768 86.114 510.296 86.51 510.692 87.002C511.088 87.482 511.286 88.052 511.286 88.712C511.286 89.312 511.124 89.846 510.8 90.314C510.488 90.77 510.056 91.124 509.504 91.376C508.952 91.628 508.31 91.754 507.578 91.754L507.668 91.178C508.496 91.178 509.216 91.322 509.828 91.61C510.452 91.886 510.932 92.27 511.268 92.762C511.616 93.254 511.79 93.824 511.79 94.472C511.79 95.084 511.634 95.63 511.322 96.11C511.01 96.578 510.584 96.974 510.044 97.298C509.504 97.61 508.886 97.844 508.19 98C507.494 98.144 506.762 98.198 505.994 98.162C505.226 98.126 504.458 97.994 503.69 97.766C502.934 97.538 502.214 97.202 501.53 96.758ZM522.831 96.92V87.38H517.899L517.809 89.612C517.773 90.452 517.719 91.25 517.647 92.006C517.587 92.75 517.485 93.428 517.341 94.04C517.209 94.652 517.023 95.162 516.783 95.57C516.543 95.978 516.249 96.248 515.901 96.38L513.381 96.02C513.837 96.044 514.209 95.888 514.497 95.552C514.797 95.216 515.031 94.748 515.199 94.148C515.367 93.548 515.493 92.846 515.577 92.042C515.661 91.226 515.721 90.344 515.757 89.396L515.901 85.4H525.135V96.92H522.831ZM512.949 100.682L512.967 96.02H526.953V100.682H524.793V98H515.127V100.682H512.949ZM527.572 98L533.242 85.4H535.546L541.234 98H538.786L533.908 86.642H534.844L529.984 98H527.572ZM530.182 95.084L530.812 93.248H537.616L538.246 95.084H530.182ZM552.022 85.4H554.362V98H552.022V85.4ZM545.506 98H543.166V85.4H545.506V98ZM552.202 92.6H545.308V90.602H552.202V92.6ZM557.915 98V85.4H560.219V94.346L566.987 85.4H569.165V98H566.861V89.072L560.093 98H557.915ZM574.858 90.638H581.122V92.564H574.858V90.638ZM575.038 96.038H582.148V98H572.698V85.4H581.896V87.362H575.038V96.038Z" fill="white"/>
<path d="M90.26 184.2H92.08V194H90.26V184.2ZM85.192 194H83.372V184.2H85.192V194ZM90.4 189.8H85.038V188.246H90.4V189.8ZM93.583 194L97.993 184.2H99.785L104.209 194H102.305L98.511 185.166H99.239L95.459 194H93.583ZM95.613 191.732L96.103 190.304H101.395L101.885 191.732H95.613ZM111.536 192.46L111.13 192.908V184.2H112.922V192.908L112.488 192.46H116.954L116.52 192.908V184.2H118.312V194H105.726V184.2H107.518V192.908L107.098 192.46H111.536ZM119.819 194L124.229 184.2H126.021L130.445 194H128.541L124.747 185.166H125.475L121.695 194H119.819ZM121.849 191.732L122.339 190.304H127.631L128.121 191.732H121.849ZM134.851 193.034L135.439 191.704C135.859 191.993 136.317 192.217 136.811 192.376C137.315 192.525 137.815 192.605 138.309 192.614C138.804 192.623 139.252 192.567 139.653 192.446C140.064 192.325 140.391 192.143 140.633 191.9C140.876 191.657 140.997 191.354 140.997 190.99C140.997 190.551 140.815 190.225 140.451 190.01C140.097 189.786 139.611 189.674 138.995 189.674H136.713V188.246H138.855C139.406 188.246 139.831 188.134 140.129 187.91C140.437 187.686 140.591 187.383 140.591 187C140.591 186.683 140.489 186.421 140.283 186.216C140.087 186.011 139.817 185.857 139.471 185.754C139.135 185.651 138.753 185.605 138.323 185.614C137.903 185.614 137.465 185.679 137.007 185.81C136.55 185.931 136.116 186.113 135.705 186.356L135.131 184.886C135.747 184.559 136.391 184.331 137.063 184.2C137.745 184.069 138.403 184.032 139.037 184.088C139.672 184.144 140.241 184.289 140.745 184.522C141.259 184.755 141.669 185.063 141.977 185.446C142.285 185.819 142.439 186.263 142.439 186.776C142.439 187.243 142.313 187.658 142.061 188.022C141.819 188.377 141.483 188.652 141.053 188.848C140.624 189.044 140.125 189.142 139.555 189.142L139.625 188.694C140.269 188.694 140.829 188.806 141.305 189.03C141.791 189.245 142.164 189.543 142.425 189.926C142.696 190.309 142.831 190.752 142.831 191.256C142.831 191.732 142.71 192.157 142.467 192.53C142.225 192.894 141.893 193.202 141.473 193.454C141.053 193.697 140.573 193.879 140.031 194C139.49 194.112 138.921 194.154 138.323 194.126C137.726 194.098 137.129 193.995 136.531 193.818C135.943 193.641 135.383 193.379 134.851 193.034ZM149.459 194.14C148.694 194.14 147.989 194.014 147.345 193.762C146.701 193.51 146.141 193.16 145.665 192.712C145.189 192.255 144.82 191.723 144.559 191.116C144.298 190.5 144.167 189.828 144.167 189.1C144.167 188.372 144.298 187.705 144.559 187.098C144.82 186.482 145.189 185.95 145.665 185.502C146.141 185.045 146.701 184.69 147.345 184.438C147.989 184.186 148.689 184.06 149.445 184.06C150.21 184.06 150.91 184.186 151.545 184.438C152.189 184.69 152.749 185.045 153.225 185.502C153.701 185.95 154.07 186.482 154.331 187.098C154.592 187.705 154.723 188.372 154.723 189.1C154.723 189.828 154.592 190.5 154.331 191.116C154.07 191.732 153.701 192.264 153.225 192.712C152.749 193.16 152.189 193.51 151.545 193.762C150.91 194.014 150.215 194.14 149.459 194.14ZM149.445 192.544C149.94 192.544 150.397 192.46 150.817 192.292C151.237 192.124 151.601 191.886 151.909 191.578C152.217 191.261 152.455 190.897 152.623 190.486C152.8 190.066 152.889 189.604 152.889 189.1C152.889 188.596 152.8 188.139 152.623 187.728C152.455 187.308 152.217 186.944 151.909 186.636C151.601 186.319 151.237 186.076 150.817 185.908C150.397 185.74 149.94 185.656 149.445 185.656C148.95 185.656 148.493 185.74 148.073 185.908C147.662 186.076 147.298 186.319 146.981 186.636C146.673 186.944 146.43 187.308 146.253 187.728C146.085 188.139 146.001 188.596 146.001 189.1C146.001 189.595 146.085 190.052 146.253 190.472C146.43 190.892 146.673 191.261 146.981 191.578C147.289 191.886 147.653 192.124 148.073 192.292C148.493 192.46 148.95 192.544 149.445 192.544ZM163.623 184.2H165.443V194H163.623V184.2ZM158.555 194H156.735V184.2H158.555V194ZM163.763 189.8H158.401V188.246H163.763V189.8ZM166.946 194L171.356 184.2H173.148L177.572 194H175.668L171.874 185.166H172.602L168.822 194H166.946ZM168.976 191.732L169.466 190.304H174.758L175.248 191.732H168.976ZM187.494 194.14C186.729 194.14 186.024 194.014 185.38 193.762C184.736 193.51 184.176 193.16 183.7 192.712C183.224 192.255 182.856 191.723 182.594 191.116C182.333 190.5 182.202 189.828 182.202 189.1C182.202 188.372 182.333 187.705 182.594 187.098C182.856 186.482 183.224 185.95 183.7 185.502C184.176 185.045 184.736 184.69 185.38 184.438C186.024 184.186 186.724 184.06 187.48 184.06C188.246 184.06 188.946 184.186 189.58 184.438C190.224 184.69 190.784 185.045 191.26 185.502C191.736 185.95 192.105 186.482 192.366 187.098C192.628 187.705 192.758 188.372 192.758 189.1C192.758 189.828 192.628 190.5 192.366 191.116C192.105 191.732 191.736 192.264 191.26 192.712C190.784 193.16 190.224 193.51 189.58 193.762C188.946 194.014 188.25 194.14 187.494 194.14ZM187.48 192.544C187.975 192.544 188.432 192.46 188.852 192.292C189.272 192.124 189.636 191.886 189.944 191.578C190.252 191.261 190.49 190.897 190.658 190.486C190.836 190.066 190.924 189.604 190.924 189.1C190.924 188.596 190.836 188.139 190.658 187.728C190.49 187.308 190.252 186.944 189.944 186.636C189.636 186.319 189.272 186.076 188.852 185.908C188.432 185.74 187.975 185.656 187.48 185.656C186.986 185.656 186.528 185.74 186.108 185.908C185.698 186.076 185.334 186.319 185.016 186.636C184.708 186.944 184.466 187.308 184.288 187.728C184.12 188.139 184.036 188.596 184.036 189.1C184.036 189.595 184.12 190.052 184.288 190.472C184.466 190.892 184.708 191.261 185.016 191.578C185.324 191.886 185.688 192.124 186.108 192.292C186.528 192.46 186.986 192.544 187.48 192.544ZM196.692 194V185.292L197.126 185.74H193.458V184.2H201.746V185.74H198.078L198.498 185.292V194H196.692ZM203.329 194V184.2H207.711C208.813 184.2 209.671 184.419 210.287 184.858C210.903 185.287 211.211 185.908 211.211 186.72C211.211 187.523 210.917 188.143 210.329 188.582C209.741 189.011 208.967 189.226 208.005 189.226L208.257 188.722C209.349 188.722 210.194 188.941 210.791 189.38C211.389 189.819 211.687 190.453 211.687 191.284C211.687 192.133 211.375 192.801 210.749 193.286C210.124 193.762 209.2 194 207.977 194H203.329ZM205.121 192.6H207.921C208.556 192.6 209.037 192.483 209.363 192.25C209.69 192.007 209.853 191.639 209.853 191.144C209.853 190.649 209.69 190.29 209.363 190.066C209.037 189.833 208.556 189.716 207.921 189.716H205.121V192.6ZM205.121 188.386H207.557C208.145 188.386 208.593 188.269 208.901 188.036C209.209 187.793 209.363 187.448 209.363 187C209.363 186.533 209.209 186.183 208.901 185.95C208.593 185.717 208.145 185.6 207.557 185.6H205.121V188.386ZM215.441 188.274H220.313V189.772H215.441V188.274ZM215.581 192.474H221.111V194H213.761V184.2H220.915V185.726H215.581V192.474ZM225.198 194V185.292L225.632 185.74H221.964V184.2H230.252V185.74H226.584L227.004 185.292V194H225.198ZM236.193 194.14C235.446 194.14 234.751 194.019 234.107 193.776C233.472 193.524 232.917 193.174 232.441 192.726C231.974 192.269 231.61 191.732 231.349 191.116C231.087 190.5 230.957 189.828 230.957 189.1C230.957 188.372 231.087 187.7 231.349 187.084C231.61 186.468 231.979 185.936 232.455 185.488C232.931 185.031 233.486 184.681 234.121 184.438C234.755 184.186 235.451 184.06 236.207 184.06C237.009 184.06 237.742 184.2 238.405 184.48C239.067 184.751 239.627 185.157 240.085 185.698L238.909 186.804C238.554 186.421 238.157 186.137 237.719 185.95C237.28 185.754 236.804 185.656 236.291 185.656C235.777 185.656 235.306 185.74 234.877 185.908C234.457 186.076 234.088 186.314 233.771 186.622C233.463 186.93 233.22 187.294 233.043 187.714C232.875 188.134 232.791 188.596 232.791 189.1C232.791 189.604 232.875 190.066 233.043 190.486C233.22 190.906 233.463 191.27 233.771 191.578C234.088 191.886 234.457 192.124 234.877 192.292C235.306 192.46 235.777 192.544 236.291 192.544C236.804 192.544 237.28 192.451 237.719 192.264C238.157 192.068 238.554 191.774 238.909 191.382L240.085 192.502C239.627 193.034 239.067 193.44 238.405 193.72C237.742 194 237.005 194.14 236.193 194.14ZM243.723 194V185.292L244.157 185.74H240.489V184.2H248.777V185.74H245.109L245.529 185.292V194H243.723ZM250.361 194V184.2H254.743C255.844 184.2 256.703 184.419 257.319 184.858C257.935 185.287 258.243 185.908 258.243 186.72C258.243 187.523 257.949 188.143 257.361 188.582C256.773 189.011 255.998 189.226 255.037 189.226L255.289 188.722C256.381 188.722 257.225 188.941 257.823 189.38C258.42 189.819 258.719 190.453 258.719 191.284C258.719 192.133 258.406 192.801 257.781 193.286C257.155 193.762 256.231 194 255.009 194H250.361ZM252.153 192.6H254.953C255.587 192.6 256.068 192.483 256.395 192.25C256.721 192.007 256.885 191.639 256.885 191.144C256.885 190.649 256.721 190.29 256.395 190.066C256.068 189.833 255.587 189.716 254.953 189.716H252.153V192.6ZM252.153 188.386H254.589C255.177 188.386 255.625 188.269 255.933 188.036C256.241 187.793 256.395 187.448 256.395 187C256.395 186.533 256.241 186.183 255.933 185.95C255.625 185.717 255.177 185.6 254.589 185.6H252.153V188.386ZM262.472 188.274H267.344V189.772H262.472V188.274ZM262.612 192.474H268.142V194H260.792V184.2H267.946V185.726H262.612V192.474ZM277.059 184.2H278.879V194H277.059V184.2ZM271.991 194H270.171V184.2H271.991V194ZM277.199 189.8H271.837V188.246H277.199V189.8ZM288.516 184.2H290.336V194H288.516V184.2ZM283.448 194H281.628V184.2H283.448V194ZM288.656 189.8H283.294V188.246H288.656V189.8ZM297.635 194.14C296.87 194.14 296.165 194.014 295.521 193.762C294.877 193.51 294.317 193.16 293.841 192.712C293.365 192.255 292.996 191.723 292.735 191.116C292.474 190.5 292.343 189.828 292.343 189.1C292.343 188.372 292.474 187.705 292.735 187.098C292.996 186.482 293.365 185.95 293.841 185.502C294.317 185.045 294.877 184.69 295.521 184.438C296.165 184.186 296.865 184.06 297.621 184.06C298.386 184.06 299.086 184.186 299.721 184.438C300.365 184.69 300.925 185.045 301.401 185.502C301.877 185.95 302.246 186.482 302.507 187.098C302.768 187.705 302.899 188.372 302.899 189.1C302.899 189.828 302.768 190.5 302.507 191.116C302.246 191.732 301.877 192.264 301.401 192.712C300.925 193.16 300.365 193.51 299.721 193.762C299.086 194.014 298.391 194.14 297.635 194.14ZM297.621 192.544C298.116 192.544 298.573 192.46 298.993 192.292C299.413 192.124 299.777 191.886 300.085 191.578C300.393 191.261 300.631 190.897 300.799 190.486C300.976 190.066 301.065 189.604 301.065 189.1C301.065 188.596 300.976 188.139 300.799 187.728C300.631 187.308 300.393 186.944 300.085 186.636C299.777 186.319 299.413 186.076 298.993 185.908C298.573 185.74 298.116 185.656 297.621 185.656C297.126 185.656 296.669 185.74 296.249 185.908C295.838 186.076 295.474 186.319 295.157 186.636C294.849 186.944 294.606 187.308 294.429 187.728C294.261 188.139 294.177 188.596 294.177 189.1C294.177 189.595 294.261 190.052 294.429 190.472C294.606 190.892 294.849 191.261 295.157 191.578C295.465 191.886 295.829 192.124 296.249 192.292C296.669 192.46 297.126 192.544 297.621 192.544ZM309.419 194.14C308.672 194.14 307.977 194.019 307.333 193.776C306.698 193.524 306.143 193.174 305.667 192.726C305.2 192.269 304.836 191.732 304.575 191.116C304.314 190.5 304.183 189.828 304.183 189.1C304.183 188.372 304.314 187.7 304.575 187.084C304.836 186.468 305.205 185.936 305.681 185.488C306.157 185.031 306.712 184.681 307.347 184.438C307.982 184.186 308.677 184.06 309.433 184.06C310.236 184.06 310.968 184.2 311.631 184.48C312.294 184.751 312.854 185.157 313.311 185.698L312.135 186.804C311.78 186.421 311.384 186.137 310.945 185.95C310.506 185.754 310.03 185.656 309.517 185.656C309.004 185.656 308.532 185.74 308.103 185.908C307.683 186.076 307.314 186.314 306.997 186.622C306.689 186.93 306.446 187.294 306.269 187.714C306.101 188.134 306.017 188.596 306.017 189.1C306.017 189.604 306.101 190.066 306.269 190.486C306.446 190.906 306.689 191.27 306.997 191.578C307.314 191.886 307.683 192.124 308.103 192.292C308.532 192.46 309.004 192.544 309.517 192.544C310.03 192.544 310.506 192.451 310.945 192.264C311.384 192.068 311.78 191.774 312.135 191.382L313.311 192.502C312.854 193.034 312.294 193.44 311.631 193.72C310.968 194 310.231 194.14 309.419 194.14ZM316.95 194V185.292L317.384 185.74H313.716V184.2H322.004V185.74H318.336L318.756 185.292V194H316.95ZM323.587 194V184.2H325.379V191.158L330.643 184.2H332.337V194H330.545V187.056L325.281 194H323.587Z" fill="black"/>
<path d="M414.368 1L449.42 75H1V1H414.368Z" fill="#F6E500" stroke="#F4F6FA" stroke-width="2"/>
<path d="M449.42 79L414.368 153H3V79H449.42Z" fill="#F6E500" stroke="#F4F6FA" stroke-width="2"/>
<path d="M248.886 46V36.2H257.552V46H255.76V37.292L256.18 37.74H250.258L250.678 37.292V46H248.886ZM260.315 46V36.2H264.347C265.215 36.2 265.957 36.34 266.573 36.62C267.199 36.9 267.679 37.3013 268.015 37.824C268.351 38.3467 268.519 38.9673 268.519 39.686C268.519 40.4047 268.351 41.0253 268.015 41.548C267.679 42.0707 267.199 42.472 266.573 42.752C265.957 43.032 265.215 43.172 264.347 43.172H261.323L262.135 42.318V46H260.315ZM262.135 42.514L261.323 41.632H264.263C265.066 41.632 265.668 41.464 266.069 41.128C266.48 40.7827 266.685 40.302 266.685 39.686C266.685 39.0607 266.48 38.58 266.069 38.244C265.668 37.908 265.066 37.74 264.263 37.74H261.323L262.135 36.844V42.514ZM274.928 46.14C274.163 46.14 273.458 46.014 272.814 45.762C272.17 45.51 271.61 45.16 271.134 44.712C270.658 44.2547 270.289 43.7227 270.028 43.116C269.767 42.5 269.636 41.828 269.636 41.1C269.636 40.372 269.767 39.7047 270.028 39.098C270.289 38.482 270.658 37.95 271.134 37.502C271.61 37.0447 272.17 36.69 272.814 36.438C273.458 36.186 274.158 36.06 274.914 36.06C275.679 36.06 276.379 36.186 277.014 36.438C277.658 36.69 278.218 37.0447 278.694 37.502C279.17 37.95 279.539 38.482 279.8 39.098C280.061 39.7047 280.192 40.372 280.192 41.1C280.192 41.828 280.061 42.5 279.8 43.116C279.539 43.732 279.17 44.264 278.694 44.712C278.218 45.16 277.658 45.51 277.014 45.762C276.379 46.014 275.684 46.14 274.928 46.14ZM274.914 44.544C275.409 44.544 275.866 44.46 276.286 44.292C276.706 44.124 277.07 43.886 277.378 43.578C277.686 43.2607 277.924 42.8967 278.092 42.486C278.269 42.066 278.358 41.604 278.358 41.1C278.358 40.596 278.269 40.1387 278.092 39.728C277.924 39.308 277.686 38.944 277.378 38.636C277.07 38.3187 276.706 38.076 276.286 37.908C275.866 37.74 275.409 37.656 274.914 37.656C274.419 37.656 273.962 37.74 273.542 37.908C273.131 38.076 272.767 38.3187 272.45 38.636C272.142 38.944 271.899 39.308 271.722 39.728C271.554 40.1387 271.47 40.596 271.47 41.1C271.47 41.5947 271.554 42.052 271.722 42.472C271.899 42.892 272.142 43.2607 272.45 43.578C272.758 43.886 273.122 44.124 273.542 44.292C273.962 44.46 274.419 44.544 274.914 44.544ZM282.218 46V36.2H284.01V43.158L289.274 36.2H290.968V46H289.176V39.056L283.912 46H282.218ZM292.75 45.034L293.338 43.704C293.758 43.9933 294.215 44.2173 294.71 44.376C295.214 44.5253 295.713 44.6047 296.208 44.614C296.702 44.6233 297.15 44.5673 297.552 44.446C297.962 44.3247 298.289 44.1427 298.532 43.9C298.774 43.6573 298.896 43.354 298.896 42.99C298.896 42.5513 298.714 42.2247 298.35 42.01C297.995 41.786 297.51 41.674 296.894 41.674H294.612V40.246H296.754C297.304 40.246 297.729 40.134 298.028 39.91C298.336 39.686 298.49 39.3827 298.49 39C298.49 38.6827 298.387 38.4213 298.182 38.216C297.986 38.0107 297.715 37.8567 297.37 37.754C297.034 37.6513 296.651 37.6047 296.222 37.614C295.802 37.614 295.363 37.6793 294.906 37.81C294.448 37.9313 294.014 38.1133 293.604 38.356L293.03 36.886C293.646 36.5593 294.29 36.3307 294.962 36.2C295.643 36.0693 296.301 36.032 296.936 36.088C297.57 36.144 298.14 36.2887 298.644 36.522C299.157 36.7553 299.568 37.0633 299.876 37.446C300.184 37.8193 300.338 38.2627 300.338 38.776C300.338 39.2427 300.212 39.658 299.96 40.022C299.717 40.3767 299.381 40.652 298.952 40.848C298.522 41.044 298.023 41.142 297.454 41.142L297.524 40.694C298.168 40.694 298.728 40.806 299.204 41.03C299.689 41.2447 300.062 41.5433 300.324 41.926C300.594 42.3087 300.73 42.752 300.73 43.256C300.73 43.732 300.608 44.1567 300.366 44.53C300.123 44.894 299.792 45.202 299.372 45.454C298.952 45.6967 298.471 45.8787 297.93 46C297.388 46.112 296.819 46.154 296.222 46.126C295.624 46.098 295.027 45.9953 294.43 45.818C293.842 45.6407 293.282 45.3793 292.75 45.034ZM302.822 46V36.2H307.204C308.305 36.2 309.164 36.4193 309.78 36.858C310.396 37.2873 310.704 37.908 310.704 38.72C310.704 39.5227 310.41 40.1433 309.822 40.582C309.234 41.0113 308.459 41.226 307.498 41.226L307.75 40.722C308.842 40.722 309.686 40.9413 310.284 41.38C310.881 41.8187 311.18 42.4533 311.18 43.284C311.18 44.1333 310.867 44.8007 310.242 45.286C309.616 45.762 308.692 46 307.47 46H302.822ZM304.614 44.6H307.414C308.048 44.6 308.529 44.4833 308.856 44.25C309.182 44.0073 309.346 43.6387 309.346 43.144C309.346 42.6493 309.182 42.29 308.856 42.066C308.529 41.8327 308.048 41.716 307.414 41.716H304.614V44.6ZM304.614 40.386H307.05C307.638 40.386 308.086 40.2693 308.394 40.036C308.702 39.7933 308.856 39.448 308.856 39C308.856 38.5333 308.702 38.1833 308.394 37.95C308.086 37.7167 307.638 37.6 307.05 37.6H304.614V40.386ZM317.803 46.14C317.038 46.14 316.333 46.014 315.689 45.762C315.045 45.51 314.485 45.16 314.009 44.712C313.533 44.2547 313.164 43.7227 312.903 43.116C312.642 42.5 312.511 41.828 312.511 41.1C312.511 40.372 312.642 39.7047 312.903 39.098C313.164 38.482 313.533 37.95 314.009 37.502C314.485 37.0447 315.045 36.69 315.689 36.438C316.333 36.186 317.033 36.06 317.789 36.06C318.554 36.06 319.254 36.186 319.889 36.438C320.533 36.69 321.093 37.0447 321.569 37.502C322.045 37.95 322.414 38.482 322.675 39.098C322.936 39.7047 323.067 40.372 323.067 41.1C323.067 41.828 322.936 42.5 322.675 43.116C322.414 43.732 322.045 44.264 321.569 44.712C321.093 45.16 320.533 45.51 319.889 45.762C319.254 46.014 318.559 46.14 317.803 46.14ZM317.789 44.544C318.284 44.544 318.741 44.46 319.161 44.292C319.581 44.124 319.945 43.886 320.253 43.578C320.561 43.2607 320.799 42.8967 320.967 42.486C321.144 42.066 321.233 41.604 321.233 41.1C321.233 40.596 321.144 40.1387 320.967 39.728C320.799 39.308 320.561 38.944 320.253 38.636C319.945 38.3187 319.581 38.076 319.161 37.908C318.741 37.74 318.284 37.656 317.789 37.656C317.294 37.656 316.837 37.74 316.417 37.908C316.006 38.076 315.642 38.3187 315.325 38.636C315.017 38.944 314.774 39.308 314.597 39.728C314.429 40.1387 314.345 40.596 314.345 41.1C314.345 41.5947 314.429 42.052 314.597 42.472C314.774 42.892 315.017 43.2607 315.325 43.578C315.633 43.886 315.997 44.124 316.417 44.292C316.837 44.46 317.294 44.544 317.789 44.544ZM331.316 45.16V37.74H327.48L327.41 39.476C327.382 40.1293 327.34 40.75 327.284 41.338C327.237 41.9167 327.158 42.444 327.046 42.92C326.943 43.396 326.798 43.7927 326.612 44.11C326.425 44.4273 326.196 44.6373 325.926 44.74L323.966 44.46C324.32 44.4787 324.61 44.3573 324.834 44.096C325.067 43.8347 325.249 43.4707 325.38 43.004C325.51 42.5373 325.608 41.9913 325.674 41.366C325.739 40.7313 325.786 40.0453 325.814 39.308L325.926 36.2H333.108V45.16H331.316ZM323.63 48.086L323.644 44.46H334.522V48.086H332.842V46H325.324V48.086H323.63ZM340.743 46.14C339.997 46.14 339.301 46.0187 338.657 45.776C338.023 45.524 337.467 45.174 336.991 44.726C336.525 44.2687 336.161 43.732 335.899 43.116C335.638 42.5 335.507 41.828 335.507 41.1C335.507 40.372 335.638 39.7 335.899 39.084C336.161 38.468 336.529 37.936 337.005 37.488C337.481 37.0307 338.037 36.6807 338.671 36.438C339.306 36.186 340.001 36.06 340.757 36.06C341.56 36.06 342.293 36.2 342.955 36.48C343.618 36.7507 344.178 37.1567 344.635 37.698L343.459 38.804C343.105 38.4213 342.708 38.1367 342.269 37.95C341.831 37.754 341.355 37.656 340.841 37.656C340.328 37.656 339.857 37.74 339.427 37.908C339.007 38.076 338.639 38.314 338.321 38.622C338.013 38.93 337.771 39.294 337.593 39.714C337.425 40.134 337.341 40.596 337.341 41.1C337.341 41.604 337.425 42.066 337.593 42.486C337.771 42.906 338.013 43.27 338.321 43.578C338.639 43.886 339.007 44.124 339.427 44.292C339.857 44.46 340.328 44.544 340.841 44.544C341.355 44.544 341.831 44.4507 342.269 44.264C342.708 44.068 343.105 43.774 343.459 43.382L344.635 44.502C344.178 45.034 343.618 45.44 342.955 45.72C342.293 46 341.555 46.14 340.743 46.14ZM348.274 46V37.292L348.708 37.74H345.04V36.2H353.328V37.74H349.66L350.08 37.292V46H348.274ZM354.911 46V36.2H359.293C360.395 36.2 361.253 36.4193 361.869 36.858C362.485 37.2873 362.793 37.908 362.793 38.72C362.793 39.5227 362.499 40.1433 361.911 40.582C361.323 41.0113 360.549 41.226 359.587 41.226L359.839 40.722C360.931 40.722 361.776 40.9413 362.373 41.38C362.971 41.8187 363.269 42.4533 363.269 43.284C363.269 44.1333 362.957 44.8007 362.331 45.286C361.706 45.762 360.782 46 359.559 46H354.911ZM356.703 44.6H359.503C360.138 44.6 360.619 44.4833 360.945 44.25C361.272 44.0073 361.435 43.6387 361.435 43.144C361.435 42.6493 361.272 42.29 360.945 42.066C360.619 41.8327 360.138 41.716 359.503 41.716H356.703V44.6ZM356.703 40.386H359.139C359.727 40.386 360.175 40.2693 360.483 40.036C360.791 39.7933 360.945 39.448 360.945 39C360.945 38.5333 360.791 38.1833 360.483 37.95C360.175 37.7167 359.727 37.6 359.139 37.6H356.703V40.386ZM369.893 46.14C369.127 46.14 368.423 46.014 367.779 45.762C367.135 45.51 366.575 45.16 366.099 44.712C365.623 44.2547 365.254 43.7227 364.993 43.116C364.731 42.5 364.601 41.828 364.601 41.1C364.601 40.372 364.731 39.7047 364.993 39.098C365.254 38.482 365.623 37.95 366.099 37.502C366.575 37.0447 367.135 36.69 367.779 36.438C368.423 36.186 369.123 36.06 369.879 36.06C370.644 36.06 371.344 36.186 371.979 36.438C372.623 36.69 373.183 37.0447 373.659 37.502C374.135 37.95 374.503 38.482 374.765 39.098C375.026 39.7047 375.157 40.372 375.157 41.1C375.157 41.828 375.026 42.5 374.765 43.116C374.503 43.732 374.135 44.264 373.659 44.712C373.183 45.16 372.623 45.51 371.979 45.762C371.344 46.014 370.649 46.14 369.893 46.14ZM369.879 44.544C370.373 44.544 370.831 44.46 371.251 44.292C371.671 44.124 372.035 43.886 372.343 43.578C372.651 43.2607 372.889 42.8967 373.057 42.486C373.234 42.066 373.323 41.604 373.323 41.1C373.323 40.596 373.234 40.1387 373.057 39.728C372.889 39.308 372.651 38.944 372.343 38.636C372.035 38.3187 371.671 38.076 371.251 37.908C370.831 37.74 370.373 37.656 369.879 37.656C369.384 37.656 368.927 37.74 368.507 37.908C368.096 38.076 367.732 38.3187 367.415 38.636C367.107 38.944 366.864 39.308 366.687 39.728C366.519 40.1387 366.435 40.596 366.435 41.1C366.435 41.5947 366.519 42.052 366.687 42.472C366.864 42.892 367.107 43.2607 367.415 43.578C367.723 43.886 368.087 44.124 368.507 44.292C368.927 44.46 369.384 44.544 369.879 44.544Z" fill="black"/>
<path d="M251.38 112.14C250.633 112.14 249.938 112.019 249.294 111.776C248.659 111.524 248.104 111.174 247.628 110.726C247.161 110.269 246.797 109.732 246.536 109.116C246.275 108.5 246.144 107.828 246.144 107.1C246.144 106.372 246.275 105.7 246.536 105.084C246.797 104.468 247.166 103.936 247.642 103.488C248.118 103.031 248.673 102.681 249.308 102.438C249.943 102.186 250.638 102.06 251.394 102.06C252.197 102.06 252.929 102.2 253.592 102.48C254.255 102.751 254.815 103.157 255.272 103.698L254.096 104.804C253.741 104.421 253.345 104.137 252.906 103.95C252.467 103.754 251.991 103.656 251.478 103.656C250.965 103.656 250.493 103.74 250.064 103.908C249.644 104.076 249.275 104.314 248.958 104.622C248.65 104.93 248.407 105.294 248.23 105.714C248.062 106.134 247.978 106.596 247.978 107.1C247.978 107.604 248.062 108.066 248.23 108.486C248.407 108.906 248.65 109.27 248.958 109.578C249.275 109.886 249.644 110.124 250.064 110.292C250.493 110.46 250.965 110.544 251.478 110.544C251.991 110.544 252.467 110.451 252.906 110.264C253.345 110.068 253.741 109.774 254.096 109.382L255.272 110.502C254.815 111.034 254.255 111.44 253.592 111.72C252.929 112 252.192 112.14 251.38 112.14ZM258.91 112V103.292L259.344 103.74H255.676V102.2H263.964V103.74H260.296L260.716 103.292V112H258.91ZM265.534 112V102.2H269.566C270.434 102.2 271.176 102.34 271.792 102.62C272.417 102.9 272.898 103.301 273.234 103.824C273.57 104.347 273.738 104.967 273.738 105.686C273.738 106.405 273.57 107.025 273.234 107.548C272.898 108.071 272.417 108.472 271.792 108.752C271.176 109.032 270.434 109.172 269.566 109.172H266.542L267.354 108.318V112H265.534ZM267.354 108.514L266.542 107.632H269.482C270.285 107.632 270.887 107.464 271.288 107.128C271.699 106.783 271.904 106.302 271.904 105.686C271.904 105.061 271.699 104.58 271.288 104.244C270.887 103.908 270.285 103.74 269.482 103.74H266.542L267.354 102.844V108.514ZM280.147 112.14C279.381 112.14 278.677 112.014 278.033 111.762C277.389 111.51 276.829 111.16 276.353 110.712C275.877 110.255 275.508 109.723 275.247 109.116C274.985 108.5 274.855 107.828 274.855 107.1C274.855 106.372 274.985 105.705 275.247 105.098C275.508 104.482 275.877 103.95 276.353 103.502C276.829 103.045 277.389 102.69 278.033 102.438C278.677 102.186 279.377 102.06 280.133 102.06C280.898 102.06 281.598 102.186 282.233 102.438C282.877 102.69 283.437 103.045 283.913 103.502C284.389 103.95 284.757 104.482 285.019 105.098C285.28 105.705 285.411 106.372 285.411 107.1C285.411 107.828 285.28 108.5 285.019 109.116C284.757 109.732 284.389 110.264 283.913 110.712C283.437 111.16 282.877 111.51 282.233 111.762C281.598 112.014 280.903 112.14 280.147 112.14ZM280.133 110.544C280.627 110.544 281.085 110.46 281.505 110.292C281.925 110.124 282.289 109.886 282.597 109.578C282.905 109.261 283.143 108.897 283.311 108.486C283.488 108.066 283.577 107.604 283.577 107.1C283.577 106.596 283.488 106.139 283.311 105.728C283.143 105.308 282.905 104.944 282.597 104.636C282.289 104.319 281.925 104.076 281.505 103.908C281.085 103.74 280.627 103.656 280.133 103.656C279.638 103.656 279.181 103.74 278.761 103.908C278.35 104.076 277.986 104.319 277.669 104.636C277.361 104.944 277.118 105.308 276.941 105.728C276.773 106.139 276.689 106.596 276.689 107.1C276.689 107.595 276.773 108.052 276.941 108.472C277.118 108.892 277.361 109.261 277.669 109.578C277.977 109.886 278.341 110.124 278.761 110.292C279.181 110.46 279.638 110.544 280.133 110.544ZM287.437 112V102.2H289.229V109.158L294.493 102.2H296.187V112H294.395V105.056L289.131 112H287.437ZM300.993 112V103.292L301.427 103.74H297.759V102.2H306.047V103.74H302.379L302.799 103.292V112H300.993ZM309.296 106.274H314.168V107.772H309.296V106.274ZM309.436 110.474H314.966V112H307.616V102.2H314.77V103.726H309.436V110.474ZM316.813 112.14C316.654 112.14 316.496 112.126 316.337 112.098C316.178 112.07 316.006 112.037 315.819 112L315.945 110.418C316.076 110.455 316.216 110.474 316.365 110.474C316.757 110.474 317.07 110.315 317.303 109.998C317.536 109.671 317.704 109.195 317.807 108.57C317.91 107.945 317.98 107.175 318.017 106.26L318.157 102.2H325.367V112H323.575V103.292L323.995 103.74H319.333L319.725 103.278L319.627 106.19C319.599 107.161 319.534 108.015 319.431 108.752C319.328 109.489 319.17 110.11 318.955 110.614C318.75 111.109 318.474 111.487 318.129 111.748C317.784 112.009 317.345 112.14 316.813 112.14ZM332.646 105.518C333.813 105.518 334.713 105.779 335.348 106.302C335.983 106.825 336.3 107.609 336.3 108.654C336.3 109.755 335.95 110.591 335.25 111.16C334.559 111.72 333.593 112 332.352 112H328.138V102.2H329.93V105.518H332.646ZM332.268 110.6C332.968 110.6 333.509 110.437 333.892 110.11C334.284 109.783 334.48 109.307 334.48 108.682C334.48 108.066 334.289 107.618 333.906 107.338C333.523 107.049 332.977 106.904 332.268 106.904H329.93V110.6H332.268ZM342.667 112.14C341.92 112.14 341.225 112.019 340.581 111.776C339.946 111.524 339.391 111.174 338.915 110.726C338.448 110.269 338.084 109.732 337.823 109.116C337.562 108.5 337.431 107.828 337.431 107.1C337.431 106.372 337.562 105.7 337.823 105.084C338.084 104.468 338.453 103.936 338.929 103.488C339.405 103.031 339.96 102.681 340.595 102.438C341.23 102.186 341.925 102.06 342.681 102.06C343.484 102.06 344.216 102.2 344.879 102.48C345.542 102.751 346.102 103.157 346.559 103.698L345.383 104.804C345.028 104.421 344.632 104.137 344.193 103.95C343.754 103.754 343.278 103.656 342.765 103.656C342.252 103.656 341.78 103.74 341.351 103.908C340.931 104.076 340.562 104.314 340.245 104.622C339.937 104.93 339.694 105.294 339.517 105.714C339.349 106.134 339.265 106.596 339.265 107.1C339.265 107.604 339.349 108.066 339.517 108.486C339.694 108.906 339.937 109.27 340.245 109.578C340.562 109.886 340.931 110.124 341.351 110.292C341.78 110.46 342.252 110.544 342.765 110.544C343.278 110.544 343.754 110.451 344.193 110.264C344.632 110.068 345.028 109.774 345.383 109.382L346.559 110.502C346.102 111.034 345.542 111.44 344.879 111.72C344.216 112 343.479 112.14 342.667 112.14ZM350.198 112V103.292L350.632 103.74H346.964V102.2H355.252V103.74H351.584L352.004 103.292V112H350.198ZM356.835 112V102.2H361.217C362.319 102.2 363.177 102.419 363.793 102.858C364.409 103.287 364.717 103.908 364.717 104.72C364.717 105.523 364.423 106.143 363.835 106.582C363.247 107.011 362.473 107.226 361.511 107.226L361.763 106.722C362.855 106.722 363.7 106.941 364.297 107.38C364.895 107.819 365.193 108.453 365.193 109.284C365.193 110.133 364.881 110.801 364.255 111.286C363.63 111.762 362.706 112 361.483 112H356.835ZM358.627 110.6H361.427C362.062 110.6 362.543 110.483 362.869 110.25C363.196 110.007 363.359 109.639 363.359 109.144C363.359 108.649 363.196 108.29 362.869 108.066C362.543 107.833 362.062 107.716 361.427 107.716H358.627V110.6ZM358.627 106.386H361.063C361.651 106.386 362.099 106.269 362.407 106.036C362.715 105.793 362.869 105.448 362.869 105C362.869 104.533 362.715 104.183 362.407 103.95C362.099 103.717 361.651 103.6 361.063 103.6H358.627V106.386ZM371.817 112.14C371.051 112.14 370.347 112.014 369.703 111.762C369.059 111.51 368.499 111.16 368.023 110.712C367.547 110.255 367.178 109.723 366.917 109.116C366.655 108.5 366.525 107.828 366.525 107.1C366.525 106.372 366.655 105.705 366.917 105.098C367.178 104.482 367.547 103.95 368.023 103.502C368.499 103.045 369.059 102.69 369.703 102.438C370.347 102.186 371.047 102.06 371.803 102.06C372.568 102.06 373.268 102.186 373.903 102.438C374.547 102.69 375.107 103.045 375.583 103.502C376.059 103.95 376.427 104.482 376.689 105.098C376.95 105.705 377.081 106.372 377.081 107.1C377.081 107.828 376.95 108.5 376.689 109.116C376.427 109.732 376.059 110.264 375.583 110.712C375.107 111.16 374.547 111.51 373.903 111.762C373.268 112.014 372.573 112.14 371.817 112.14ZM371.803 110.544C372.297 110.544 372.755 110.46 373.175 110.292C373.595 110.124 373.959 109.886 374.267 109.578C374.575 109.261 374.813 108.897 374.981 108.486C375.158 108.066 375.247 107.604 375.247 107.1C375.247 106.596 375.158 106.139 374.981 105.728C374.813 105.308 374.575 104.944 374.267 104.636C373.959 104.319 373.595 104.076 373.175 103.908C372.755 103.74 372.297 103.656 371.803 103.656C371.308 103.656 370.851 103.74 370.431 103.908C370.02 104.076 369.656 104.319 369.339 104.636C369.031 104.944 368.788 105.308 368.611 105.728C368.443 106.139 368.359 106.596 368.359 107.1C368.359 107.595 368.443 108.052 368.611 108.472C368.788 108.892 369.031 109.261 369.339 109.578C369.647 109.886 370.011 110.124 370.431 110.292C370.851 110.46 371.308 110.544 371.803 110.544Z" fill="black"/>
<path d="M237.766 130.134C237.333 129.467 237 128.697 236.765 127.824C236.538 126.944 236.424 125.998 236.424 124.986C236.424 123.974 236.538 123.028 236.765 122.148C237 121.261 237.333 120.491 237.766 119.838H239.075C238.628 120.645 238.298 121.47 238.085 122.313C237.88 123.149 237.777 124.04 237.777 124.986C237.777 125.932 237.88 126.827 238.085 127.67C238.298 128.506 238.628 129.327 239.075 130.134H237.766ZM240.402 128V120.3H247.211V128H245.803V121.158L246.133 121.51H241.48L241.81 121.158V128H240.402ZM248.404 128L251.869 120.3H253.277L256.753 128H255.257L252.276 121.059H252.848L249.878 128H248.404ZM249.999 126.218L250.384 125.096H254.542L254.927 126.218H249.999ZM257.933 128V120.3H261.101C261.783 120.3 262.366 120.41 262.85 120.63C263.342 120.85 263.719 121.165 263.983 121.576C264.247 121.987 264.379 122.474 264.379 123.039C264.379 123.604 264.247 124.091 263.983 124.502C263.719 124.913 263.342 125.228 262.85 125.448C262.366 125.668 261.783 125.778 261.101 125.778H258.725L259.363 125.107V128H257.933ZM259.363 125.261L258.725 124.568H261.035C261.666 124.568 262.139 124.436 262.454 124.172C262.777 123.901 262.938 123.523 262.938 123.039C262.938 122.548 262.777 122.17 262.454 121.906C262.139 121.642 261.666 121.51 261.035 121.51H258.725L259.363 120.806V125.261ZM267.124 128V121.158L267.465 121.51H264.583V120.3H271.095V121.51H268.213L268.543 121.158V128H267.124ZM277.74 120.3H279.17V128H277.74V120.3ZM273.758 128H272.328V120.3H273.758V128ZM277.85 124.7H273.637V123.479H277.85V124.7ZM282.65 123.501H286.478V124.678H282.65V123.501ZM282.76 126.801H287.105V128H281.33V120.3H286.951V121.499H282.76V126.801ZM288.699 128V120.3H291.867C292.549 120.3 293.132 120.41 293.616 120.63C294.107 120.85 294.485 121.165 294.749 121.576C295.013 121.987 295.145 122.474 295.145 123.039C295.145 123.604 295.013 124.091 294.749 124.502C294.485 124.913 294.107 125.228 293.616 125.448C293.132 125.668 292.549 125.778 291.867 125.778H289.491L290.129 125.107V128H288.699ZM290.129 125.261L289.491 124.568H291.801C292.432 124.568 292.905 124.436 293.22 124.172C293.543 123.901 293.704 123.523 293.704 123.039C293.704 122.548 293.543 122.17 293.22 121.906C292.905 121.642 292.432 121.51 291.801 121.51H289.491L290.129 120.806V125.261ZM300.051 122.907C300.968 122.907 301.675 123.112 302.174 123.523C302.673 123.934 302.922 124.55 302.922 125.371C302.922 126.236 302.647 126.893 302.097 127.34C301.554 127.78 300.795 128 299.82 128H296.509V120.3H297.917V122.907H300.051ZM299.754 126.9C300.304 126.9 300.729 126.772 301.03 126.515C301.338 126.258 301.492 125.884 301.492 125.393C301.492 124.909 301.342 124.557 301.041 124.337C300.74 124.11 300.311 123.996 299.754 123.996H297.917V126.9H299.754ZM304.033 128V120.3H305.441V128H304.033ZM307.132 125.514V124.37H310.157V125.514H307.132ZM315.433 128.11C314.847 128.11 314.3 128.015 313.794 127.824C313.296 127.626 312.859 127.351 312.485 126.999C312.119 126.64 311.833 126.218 311.627 125.734C311.422 125.25 311.319 124.722 311.319 124.15C311.319 123.578 311.422 123.05 311.627 122.566C311.833 122.082 312.122 121.664 312.496 121.312C312.87 120.953 313.307 120.678 313.805 120.487C314.304 120.289 314.85 120.19 315.444 120.19C316.075 120.19 316.651 120.3 317.171 120.52C317.692 120.733 318.132 121.052 318.491 121.477L317.567 122.346C317.289 122.045 316.977 121.822 316.632 121.675C316.288 121.521 315.914 121.444 315.51 121.444C315.107 121.444 314.737 121.51 314.399 121.642C314.069 121.774 313.78 121.961 313.53 122.203C313.288 122.445 313.098 122.731 312.958 123.061C312.826 123.391 312.76 123.754 312.76 124.15C312.76 124.546 312.826 124.909 312.958 125.239C313.098 125.569 313.288 125.855 313.53 126.097C313.78 126.339 314.069 126.526 314.399 126.658C314.737 126.79 315.107 126.856 315.51 126.856C315.914 126.856 316.288 126.783 316.632 126.636C316.977 126.482 317.289 126.251 317.567 125.943L318.491 126.823C318.132 127.241 317.692 127.56 317.171 127.78C316.651 128 316.071 128.11 315.433 128.11ZM321.35 128V121.158L321.691 121.51H318.809V120.3H325.321V121.51H322.439L322.769 121.158V128H321.35ZM326.555 128V120.3H329.723C330.405 120.3 330.988 120.41 331.472 120.63C331.963 120.85 332.341 121.165 332.605 121.576C332.869 121.987 333.001 122.474 333.001 123.039C333.001 123.604 332.869 124.091 332.605 124.502C332.341 124.913 331.963 125.228 331.472 125.448C330.988 125.668 330.405 125.778 329.723 125.778H327.347L327.985 125.107V128H326.555ZM327.985 125.261L327.347 124.568H329.657C330.287 124.568 330.76 124.436 331.076 124.172C331.398 123.901 331.56 123.523 331.56 123.039C331.56 122.548 331.398 122.17 331.076 121.906C330.76 121.642 330.287 121.51 329.657 121.51H327.347L327.985 120.806V125.261ZM338.036 128.11C337.434 128.11 336.881 128.011 336.375 127.813C335.869 127.615 335.429 127.34 335.055 126.988C334.681 126.629 334.391 126.211 334.186 125.734C333.98 125.25 333.878 124.722 333.878 124.15C333.878 123.578 333.98 123.054 334.186 122.577C334.391 122.093 334.681 121.675 335.055 121.323C335.429 120.964 335.869 120.685 336.375 120.487C336.881 120.289 337.431 120.19 338.025 120.19C338.626 120.19 339.176 120.289 339.675 120.487C340.181 120.685 340.621 120.964 340.995 121.323C341.369 121.675 341.658 122.093 341.864 122.577C342.069 123.054 342.172 123.578 342.172 124.15C342.172 124.722 342.069 125.25 341.864 125.734C341.658 126.218 341.369 126.636 340.995 126.988C340.621 127.34 340.181 127.615 339.675 127.813C339.176 128.011 338.63 128.11 338.036 128.11ZM338.025 126.856C338.413 126.856 338.773 126.79 339.103 126.658C339.433 126.526 339.719 126.339 339.961 126.097C340.203 125.848 340.39 125.562 340.522 125.239C340.661 124.909 340.731 124.546 340.731 124.15C340.731 123.754 340.661 123.395 340.522 123.072C340.39 122.742 340.203 122.456 339.961 122.214C339.719 121.965 339.433 121.774 339.103 121.642C338.773 121.51 338.413 121.444 338.025 121.444C337.636 121.444 337.277 121.51 336.947 121.642C336.624 121.774 336.338 121.965 336.089 122.214C335.847 122.456 335.656 122.742 335.517 123.072C335.385 123.395 335.319 123.754 335.319 124.15C335.319 124.539 335.385 124.898 335.517 125.228C335.656 125.558 335.847 125.848 336.089 126.097C336.331 126.339 336.617 126.526 336.947 126.658C337.277 126.79 337.636 126.856 338.025 126.856ZM343.764 128V120.3H345.172V125.767L349.308 120.3H350.639V128H349.231V122.544L345.095 128H343.764ZM354.415 128V121.158L354.756 121.51H351.874V120.3H358.386V121.51H355.504L355.834 121.158V128H354.415ZM360.939 123.501H364.767V124.678H360.939V123.501ZM361.049 126.801H365.394V128H359.619V120.3H365.24V121.499H361.049V126.801ZM366.845 128.11C366.72 128.11 366.596 128.099 366.471 128.077C366.346 128.055 366.211 128.029 366.064 128L366.163 126.757C366.266 126.786 366.376 126.801 366.493 126.801C366.801 126.801 367.047 126.676 367.23 126.427C367.413 126.17 367.545 125.796 367.626 125.305C367.707 124.814 367.762 124.209 367.791 123.49L367.901 120.3H373.566V128H372.158V121.158L372.488 121.51H368.825L369.133 121.147L369.056 123.435C369.034 124.198 368.983 124.869 368.902 125.448C368.821 126.027 368.697 126.515 368.528 126.911C368.367 127.3 368.15 127.597 367.879 127.802C367.608 128.007 367.263 128.11 366.845 128.11ZM375.743 128V120.3H377.151V125.767L381.287 120.3H382.618V128H381.21V122.544L377.074 128H375.743ZM385.25 130.134H383.941C384.396 129.327 384.726 128.506 384.931 127.67C385.144 126.827 385.25 125.932 385.25 124.986C385.25 124.04 385.144 123.149 384.931 122.313C384.726 121.47 384.396 120.645 383.941 119.838H385.25C385.69 120.491 386.024 121.261 386.251 122.148C386.479 123.028 386.592 123.974 386.592 124.986C386.592 125.998 386.479 126.944 386.251 127.824C386.024 128.697 385.69 129.467 385.25 130.134Z" fill="black"/>
<path d="M185.975 1.5L215.39 77L185.975 152.5H1.5V1.5H185.975Z" fill="#F6E500" stroke="#F4F6FA" stroke-width="3"/>
<path d="M30.386 83V73.2H39.052V83H37.26V74.292L37.68 74.74H31.758L32.178 74.292V83H30.386ZM41.8154 83V73.2H45.8474C46.7154 73.2 47.4574 73.34 48.0734 73.62C48.6987 73.9 49.1794 74.3013 49.5154 74.824C49.8514 75.3467 50.0194 75.9673 50.0194 76.686C50.0194 77.4047 49.8514 78.0253 49.5154 78.548C49.1794 79.0707 48.6987 79.472 48.0734 79.752C47.4574 80.032 46.7154 80.172 45.8474 80.172H42.8234L43.6354 79.318V83H41.8154ZM43.6354 79.514L42.8234 78.632H45.7634C46.566 78.632 47.168 78.464 47.5694 78.128C47.98 77.7827 48.1854 77.302 48.1854 76.686C48.1854 76.0607 47.98 75.58 47.5694 75.244C47.168 74.908 46.566 74.74 45.7634 74.74H42.8234L43.6354 73.844V79.514ZM56.4279 83.14C55.6625 83.14 54.9579 83.014 54.3139 82.762C53.6699 82.51 53.1099 82.16 52.6339 81.712C52.1579 81.2547 51.7892 80.7227 51.5279 80.116C51.2665 79.5 51.1359 78.828 51.1359 78.1C51.1359 77.372 51.2665 76.7047 51.5279 76.098C51.7892 75.482 52.1579 74.95 52.6339 74.502C53.1099 74.0447 53.6699 73.69 54.3139 73.438C54.9579 73.186 55.6579 73.06 56.4139 73.06C57.1792 73.06 57.8792 73.186 58.5139 73.438C59.1579 73.69 59.7179 74.0447 60.1939 74.502C60.6699 74.95 61.0385 75.482 61.2999 76.098C61.5612 76.7047 61.6919 77.372 61.6919 78.1C61.6919 78.828 61.5612 79.5 61.2999 80.116C61.0385 80.732 60.6699 81.264 60.1939 81.712C59.7179 82.16 59.1579 82.51 58.5139 82.762C57.8792 83.014 57.1839 83.14 56.4279 83.14ZM56.4139 81.544C56.9085 81.544 57.3659 81.46 57.7859 81.292C58.2059 81.124 58.5699 80.886 58.8779 80.578C59.1859 80.2607 59.4239 79.8967 59.5919 79.486C59.7692 79.066 59.8579 78.604 59.8579 78.1C59.8579 77.596 59.7692 77.1387 59.5919 76.728C59.4239 76.308 59.1859 75.944 58.8779 75.636C58.5699 75.3187 58.2059 75.076 57.7859 74.908C57.3659 74.74 56.9085 74.656 56.4139 74.656C55.9192 74.656 55.4619 74.74 55.0419 74.908C54.6312 75.076 54.2672 75.3187 53.9499 75.636C53.6419 75.944 53.3992 76.308 53.2219 76.728C53.0539 77.1387 52.9699 77.596 52.9699 78.1C52.9699 78.5947 53.0539 79.052 53.2219 79.472C53.3992 79.892 53.6419 80.2607 53.9499 80.578C54.2579 80.886 54.6219 81.124 55.0419 81.292C55.4619 81.46 55.9192 81.544 56.4139 81.544ZM65.384 77.274H70.256V78.772H65.384V77.274ZM65.524 81.474H71.054V83H63.704V73.2H70.858V74.726H65.524V81.474ZM79.5649 83L76.2469 78.226L77.7169 77.316L81.6229 83H79.5649ZM73.0829 83V73.2H74.8749V83H73.0829ZM74.3289 78.87V77.302H77.6329V78.87H74.3289ZM77.8849 78.31L76.2189 78.086L79.5649 73.2H81.4969L77.8849 78.31ZM84.8206 83V74.292L85.2546 74.74H81.5866V73.2H89.8746V74.74H86.2066L86.6266 74.292V83H84.8206ZM91.4583 83V73.2H93.2503V80.158L98.5143 73.2H100.208V83H98.4163V76.056L93.1523 83H91.4583ZM102.956 83V73.2H106.988C107.856 73.2 108.598 73.34 109.214 73.62C109.839 73.9 110.32 74.3013 110.656 74.824C110.992 75.3467 111.16 75.9673 111.16 76.686C111.16 77.4047 110.992 78.0253 110.656 78.548C110.32 79.0707 109.839 79.472 109.214 79.752C108.598 80.032 107.856 80.172 106.988 80.172H103.964L104.776 79.318V83H102.956ZM104.776 79.514L103.964 78.632H106.904C107.707 78.632 108.309 78.464 108.71 78.128C109.121 77.7827 109.326 77.302 109.326 76.686C109.326 76.0607 109.121 75.58 108.71 75.244C108.309 74.908 107.707 74.74 106.904 74.74H103.964L104.776 73.844V79.514ZM117.568 83.14C116.803 83.14 116.098 83.014 115.454 82.762C114.81 82.51 114.25 82.16 113.774 81.712C113.298 81.2547 112.93 80.7227 112.668 80.116C112.407 79.5 112.276 78.828 112.276 78.1C112.276 77.372 112.407 76.7047 112.668 76.098C112.93 75.482 113.298 74.95 113.774 74.502C114.25 74.0447 114.81 73.69 115.454 73.438C116.098 73.186 116.798 73.06 117.554 73.06C118.32 73.06 119.02 73.186 119.654 73.438C120.298 73.69 120.858 74.0447 121.334 74.502C121.81 74.95 122.179 75.482 122.44 76.098C122.702 76.7047 122.832 77.372 122.832 78.1C122.832 78.828 122.702 79.5 122.44 80.116C122.179 80.732 121.81 81.264 121.334 81.712C120.858 82.16 120.298 82.51 119.654 82.762C119.02 83.014 118.324 83.14 117.568 83.14ZM117.554 81.544C118.049 81.544 118.506 81.46 118.926 81.292C119.346 81.124 119.71 80.886 120.018 80.578C120.326 80.2607 120.564 79.8967 120.732 79.486C120.91 79.066 120.998 78.604 120.998 78.1C120.998 77.596 120.91 77.1387 120.732 76.728C120.564 76.308 120.326 75.944 120.018 75.636C119.71 75.3187 119.346 75.076 118.926 74.908C118.506 74.74 118.049 74.656 117.554 74.656C117.06 74.656 116.602 74.74 116.182 74.908C115.772 75.076 115.408 75.3187 115.09 75.636C114.782 75.944 114.54 76.308 114.362 76.728C114.194 77.1387 114.11 77.596 114.11 78.1C114.11 78.5947 114.194 79.052 114.362 79.472C114.54 79.892 114.782 80.2607 115.09 80.578C115.398 80.886 115.762 81.124 116.182 81.292C116.602 81.46 117.06 81.544 117.554 81.544ZM124.859 83V73.2H129.241C130.342 73.2 131.201 73.4193 131.817 73.858C132.433 74.2873 132.741 74.908 132.741 75.72C132.741 76.5227 132.447 77.1433 131.859 77.582C131.271 78.0113 130.496 78.226 129.535 78.226L129.787 77.722C130.879 77.722 131.723 77.9413 132.321 78.38C132.918 78.8187 133.217 79.4533 133.217 80.284C133.217 81.1333 132.904 81.8007 132.279 82.286C131.653 82.762 130.729 83 129.507 83H124.859ZM126.651 81.6H129.451C130.085 81.6 130.566 81.4833 130.893 81.25C131.219 81.0073 131.383 80.6387 131.383 80.144C131.383 79.6493 131.219 79.29 130.893 79.066C130.566 78.8327 130.085 78.716 129.451 78.716H126.651V81.6ZM126.651 77.386H129.087C129.675 77.386 130.123 77.2693 130.431 77.036C130.739 76.7933 130.893 76.448 130.893 76C130.893 75.5333 130.739 75.1833 130.431 74.95C130.123 74.7167 129.675 74.6 129.087 74.6H126.651V77.386ZM134.044 83L138.454 73.2H140.246L144.67 83H142.766L138.972 74.166H139.7L135.92 83H134.044ZM136.074 80.732L136.564 79.304H141.856L142.346 80.732H136.074ZM153.061 73.2H154.881V83H153.061V73.2ZM147.993 83H146.173V73.2H147.993V83ZM153.201 78.8H147.839V77.246H153.201V78.8ZM157.644 83V73.2H159.436V80.158L164.7 73.2H166.394V83H164.602V76.056L159.338 83H157.644ZM170.822 77.274H175.694V78.772H170.822V77.274ZM170.962 81.474H176.492V83H169.142V73.2H176.296V74.726H170.962V81.474Z" fill="black"/>
</svg>
