<svg width="42" height="42" viewBox="0 0 42 42" fill="none" xmlns="http://www.w3.org/2000/svg">
<path d="M21.2352 10.0268C28.3121 10.0963 32.7455 9.65595 33.3443 17.5H41.9742C41.9742 5.34836 31.3763 3.71045 21.0105 3.71045C10.6439 3.71045 0.046875 5.34836 0.046875 17.5H8.60977C9.27229 9.50646 14.2171 9.95821 21.2352 10.0268Z" fill="currentColor"/>
<path d="M4.32229 21.4064C6.42421 21.4064 8.17323 21.5322 8.56208 19.4646C8.61436 19.1836 8.64458 18.865 8.64458 18.4966H8.54492H0C0 21.5723 1.93527 21.4064 4.32229 21.4064Z" fill="currentColor"/>
<path d="M33.3934 18.4966H33.3125C33.3125 18.8675 33.3444 19.1869 33.404 19.4646C33.8141 21.3713 35.5606 21.2529 37.6552 21.2529C40.0537 21.2529 41.9979 21.4105 41.9979 18.4966H33.3934Z" fill="currentColor"/>
<path d="M29.1758 16.402V15.1799C29.1758 14.6334 28.5459 14.5991 27.7682 14.5991H26.4979C25.721 14.5991 25.0912 14.6334 25.0912 15.1799V16.2329V17.0499H16.1051V16.2329V15.1799C16.1051 14.6334 15.4753 14.5991 14.6984 14.5991H13.4273C12.6504 14.5991 12.0206 14.6334 12.0206 15.1799V16.402V17.4689C9.97339 19.5962 3.27469 28.6517 3.03125 29.748L3.03452 37.0634C3.03452 37.739 3.5843 38.2888 4.25989 38.2888H36.9365C37.612 38.2888 38.1618 37.739 38.1618 37.0634V29.7112C37.9208 28.6468 31.2238 19.5954 29.1758 17.4681V16.402ZM15.6624 30.7324C15.0048 30.7324 14.4713 30.1997 14.4713 29.5413C14.4713 28.8829 15.0048 28.3502 15.6624 28.3502C16.32 28.3502 16.8534 28.8829 16.8534 29.5413C16.8534 30.1997 16.32 30.7324 15.6624 30.7324ZM15.6624 26.6478C15.0048 26.6478 14.4713 26.1152 14.4713 25.4567C14.4713 24.7983 15.0048 24.2657 15.6624 24.2657C16.32 24.2657 16.8534 24.7983 16.8534 25.4567C16.8534 26.1152 16.32 26.6478 15.6624 26.6478ZM15.6624 22.564C15.0048 22.564 14.4713 22.0314 14.4713 21.373C14.4713 20.7154 15.0048 20.1819 15.6624 20.1819C16.32 20.1819 16.8534 20.7154 16.8534 21.373C16.8534 22.0314 16.32 22.564 15.6624 22.564ZM20.5639 30.7324C19.9062 30.7324 19.3728 30.1997 19.3728 29.5413C19.3728 28.8829 19.9062 28.3502 20.5639 28.3502C21.2223 28.3502 21.7549 28.8829 21.7549 29.5413C21.7549 30.1997 21.2223 30.7324 20.5639 30.7324ZM20.5639 26.6478C19.9062 26.6478 19.3728 26.1152 19.3728 25.4567C19.3728 24.7983 19.9062 24.2657 20.5639 24.2657C21.2223 24.2657 21.7549 24.7983 21.7549 25.4567C21.7549 26.1152 21.2223 26.6478 20.5639 26.6478ZM20.5639 22.564C19.9062 22.564 19.3728 22.0314 19.3728 21.373C19.3728 20.7154 19.9062 20.1819 20.5639 20.1819C21.2223 20.1819 21.7549 20.7154 21.7549 21.373C21.7549 22.0314 21.2223 22.564 20.5639 22.564ZM25.4653 30.7324C24.8069 30.7324 24.2743 30.1997 24.2743 29.5413C24.2743 28.8829 24.8069 28.3502 25.4653 28.3502C26.1238 28.3502 26.6564 28.8829 26.6564 29.5413C26.6564 30.1997 26.1238 30.7324 25.4653 30.7324ZM25.4653 26.6478C24.8069 26.6478 24.2743 26.1152 24.2743 25.4567C24.2743 24.7983 24.8069 24.2657 25.4653 24.2657C26.1238 24.2657 26.6564 24.7983 26.6564 25.4567C26.6564 26.1152 26.1238 26.6478 25.4653 26.6478ZM25.4653 22.564C24.8069 22.564 24.2743 22.0314 24.2743 21.373C24.2743 20.7154 24.8069 20.1819 25.4653 20.1819C26.1238 20.1819 26.6564 20.7154 26.6564 21.373C26.6564 22.0314 26.1238 22.564 25.4653 22.564Z" fill="currentColor"/>
</svg>
