<svg width="16" height="16" viewBox="0 0 16 16" fill="none" xmlns="http://www.w3.org/2000/svg">
<path d="M3.26133 10.6357C4.83945 12.5222 6.73916 14.0075 8.90742 15.0584C9.73295 15.4496 10.837 15.9138 12.067 15.9934C12.1432 15.9967 12.2162 16 12.2924 16C13.1179 16 13.781 15.7149 14.3214 15.1281C14.3247 15.1247 14.3314 15.1181 14.3347 15.1115C14.527 14.8794 14.7458 14.6705 14.9746 14.4484C15.1304 14.2992 15.2895 14.1434 15.442 13.9843C16.1482 13.2482 16.1482 12.3133 15.4354 11.6005L13.4428 9.60796C13.1047 9.25653 12.7002 9.07087 12.2758 9.07087C11.8515 9.07087 11.4437 9.25653 11.0956 9.60464L9.90866 10.7915C9.79925 10.7286 9.68653 10.6722 9.58044 10.6191C9.44782 10.5528 9.32515 10.4898 9.21575 10.4202C8.13493 9.73394 7.15358 8.83879 6.21533 7.68835C5.74123 7.08827 5.42296 6.58433 5.20083 6.07045C5.51247 5.78864 5.80423 5.49358 6.08603 5.20514C6.18549 5.10236 6.28827 4.99959 6.39105 4.89681C6.74911 4.53875 6.9414 4.12433 6.9414 3.70327C6.9414 3.28222 6.75242 2.8678 6.39105 2.50974L5.40307 1.52176C5.28703 1.40572 5.17762 1.293 5.0649 1.17696C4.84608 0.951513 4.61732 0.719436 4.39188 0.510568C4.05039 0.175715 3.64923 0 3.22486 0C2.80381 0 2.39934 0.175715 2.04459 0.513883L0.804641 1.75383C0.35375 2.20472 0.0984656 2.75176 0.0454196 3.385C-0.0175725 4.17737 0.128304 5.01948 0.506257 6.0373C1.08645 7.6121 1.96171 9.07418 3.26133 10.6357ZM0.854371 3.45462C0.894156 3.01368 1.06324 2.64567 1.38152 2.32739L2.61484 1.09407C2.80713 0.908413 3.01931 0.812267 3.22486 0.812267C3.4271 0.812267 3.63266 0.908413 3.82163 1.1007C4.04376 1.30626 4.25263 1.52176 4.47808 1.75052C4.5908 1.86656 4.70684 1.98259 4.82288 2.10195L5.81086 3.08993C6.01641 3.29548 6.1225 3.50435 6.1225 3.7099C6.1225 3.91546 6.01641 4.12433 5.81086 4.32988C5.70808 4.43266 5.6053 4.53875 5.50253 4.64152C5.1942 4.95317 4.90576 5.24824 4.58748 5.53005C4.58085 5.53668 4.57754 5.53999 4.57091 5.54662C4.29573 5.8218 4.33883 6.08371 4.40514 6.28264C4.40845 6.29258 4.41177 6.29921 4.41508 6.30916C4.67037 6.9225 5.02511 7.50601 5.57878 8.20224C6.57339 9.42893 7.62105 10.3804 8.7748 11.1131C8.91736 11.206 9.06987 11.2789 9.21243 11.3518C9.34505 11.4182 9.46771 11.4811 9.57712 11.5508C9.59038 11.5574 9.60033 11.564 9.61359 11.5707C9.723 11.627 9.82909 11.6535 9.93518 11.6535C10.2004 11.6535 10.3728 11.4845 10.4292 11.4281L11.6691 10.1881C11.8614 9.99586 12.0703 9.89308 12.2758 9.89308C12.5278 9.89308 12.7334 10.0489 12.8627 10.1881L14.8618 12.184C15.2597 12.5818 15.2564 13.0128 14.8519 13.4339C14.7126 13.5831 14.5668 13.7257 14.4109 13.8748C14.1789 14.1003 13.9368 14.3324 13.718 14.5943C13.3368 15.0054 12.8826 15.1977 12.2957 15.1977C12.2394 15.1977 12.1797 15.1944 12.1233 15.191C11.0359 15.1214 10.0247 14.6971 9.26548 14.3357C7.20331 13.3378 5.39312 11.9221 3.89125 10.1252C2.65462 8.63655 1.82246 7.25072 1.27211 5.76544C0.930625 4.85371 0.801325 4.12101 0.854371 3.45462Z" fill="currentColor"/>
</svg>
