<svg width="16" height="16" viewBox="0 0 16 16" fill="none" xmlns="http://www.w3.org/2000/svg">
<path d="M4.65848 8.19824C4.65848 7.76739 4.3593 7.51025 3.83135 7.51025C3.61598 7.51025 3.47007 7.53102 3.39355 7.55185V8.93535C3.48401 8.95589 3.59521 8.96292 3.74772 8.96292C4.311 8.96292 4.65848 8.67798 4.65848 8.19824Z" fill="currentColor"/>
<path d="M7.92614 7.52417C7.68954 7.52417 7.53698 7.545 7.44629 7.56585V10.6311C7.5368 10.6523 7.6828 10.6523 7.81492 10.6523C8.77401 10.659 9.39963 10.131 9.39963 9.01184C9.40666 8.03833 8.83653 7.52417 7.92614 7.52417Z" fill="currentColor"/>
<path d="M14.188 5.72313H13.8038V3.86936C13.8038 3.8578 13.802 3.84615 13.8004 3.83444C13.7998 3.76084 13.7764 3.68853 13.726 3.63125L10.6411 0.107306C10.6402 0.106405 10.6393 0.106086 10.6387 0.105098C10.6203 0.0845605 10.5988 0.0674799 10.5762 0.0526942C10.5695 0.0481916 10.5627 0.0444153 10.5557 0.0405228C10.536 0.0298039 10.5152 0.020915 10.4938 0.0144953C10.4879 0.0128685 10.4827 0.0104865 10.4769 0.00897602C10.4536 0.00345678 10.4294 0 10.4049 0H2.82342C2.47721 0 2.19597 0.281568 2.19597 0.627479V5.72298H1.81186C1.31661 5.72298 0.915039 6.12437 0.915039 6.6198V11.2834C0.915039 11.7785 1.31661 12.1801 1.81186 12.1801H2.196V15.3725C2.196 15.7184 2.47724 16 2.82344 16H13.1764C13.5222 16 13.8038 15.7184 13.8038 15.3725V12.1801H14.188C14.6831 12.1801 15.0848 11.7785 15.0848 11.2834V6.61994C15.0847 6.12455 14.6831 5.72313 14.188 5.72313ZM2.82342 0.627595H10.0912V3.83784C10.0912 4.01118 10.2318 4.15157 10.4049 4.15157H13.1763V5.72333H2.82342V0.627595ZM10.5259 8.97669C10.5259 9.87359 10.1993 10.492 9.74683 10.8745C9.25385 11.2846 8.50297 11.4791 7.58573 11.4791C7.03671 11.4791 6.64755 11.4444 6.38309 11.4097V6.80798C6.77231 6.74555 7.28005 6.71078 7.8153 6.71078C8.70454 6.71078 9.28162 6.87078 9.73364 7.21117C10.22 7.57268 10.5259 8.1495 10.5259 8.97669ZM2.34411 11.4306V6.80798C2.67065 6.75267 3.12965 6.71078 3.77609 6.71078C4.42943 6.71078 4.89525 6.83592 5.20793 7.08632C5.5069 7.32251 5.708 7.71185 5.708 8.17065C5.708 8.62958 5.5555 9.01881 5.27724 9.28277C4.91582 9.62345 4.38065 9.77648 3.75489 9.77648C3.61609 9.77648 3.49055 9.76942 3.39367 9.75548V11.4307H2.34411V11.4306ZM13.1764 15.2027H2.82342V12.1801H13.1763V15.2027H13.1764ZM14.0855 7.61442H12.2848V8.68489H13.9671V9.54688H12.2848V11.4306H11.2218V6.74555H14.0855V7.61442Z" fill="currentColor"/>
</svg>
