<svg width="32" height="32" viewBox="0 0 32 32" fill="none" xmlns="http://www.w3.org/2000/svg">
<path d="M2.3379 14.2222C2.3379 7.67663 7.57147 2.37037 14.0274 2.37037C20.4829 2.37089 25.7169 7.67694 25.7169 14.2222C25.7169 20.7675 20.4829 26.0736 14.0274 26.0741C7.57147 26.0741 2.3379 20.7678 2.3379 14.2222ZM1.90735e-06 14.2222C1.90735e-06 22.0769 6.28028 28.4444 14.0274 28.4444C17.5923 28.4442 20.8451 27.094 23.3196 24.8727L30.347 32L32 30.3241L24.9361 23.1597C26.885 20.7173 28.0548 17.6086 28.0548 14.2222C28.0548 6.36783 21.7741 0.000517364 14.0274 0C6.28028 0 1.90735e-06 6.36751 1.90735e-06 14.2222Z" fill="currentColor"/>
</svg>
