<svg width="41" height="41" viewBox="0 0 41 41" fill="none" xmlns="http://www.w3.org/2000/svg">
<path d="M20.5 0C31.8218 0 41 9.17816 41 20.5C41 31.8218 31.8218 41 20.5 41C9.17816 41 0 31.8218 0 20.5C2.57703e-07 9.17816 9.17816 2.5772e-07 20.5 0ZM30.5723 14.0518C30.9165 12.6715 30.0463 12.0448 29.1445 12.4541L9.39746 20.0684C8.04976 20.609 8.05805 21.3612 9.15234 21.6963L14.2197 23.2783L25.9512 15.877C26.505 15.5411 27.0129 15.7215 26.5957 16.0918L17.0898 24.6699L16.7412 29.8955C17.2536 29.8955 17.4807 29.6618 17.7666 29.3838L20.2285 26.9893L25.3516 30.7734C26.2943 31.2936 26.9751 31.0246 27.21 29.8984L30.5723 14.0518Z" fill="currentColor"/>
</svg>
