<svg width="42" height="42" viewBox="0 0 42 42" fill="none" xmlns="http://www.w3.org/2000/svg">
<path d="M6.50394 20.9128H24.9555C26.5863 20.8523 26.5851 18.5119 24.9555 18.4519H6.50394C4.87307 18.5124 4.8743 20.8529 6.50394 20.9128Z" fill="currentColor"/>
<path d="M6.50394 15.6406H11.7758C13.4067 15.5801 13.4055 13.2397 11.7758 13.1797H6.50394C4.87307 13.2401 4.8743 15.5807 6.50394 15.6406Z" fill="currentColor"/>
<path d="M20.914 24.9543C20.914 24.2748 20.3631 23.7239 19.6836 23.7239H6.50394C4.87307 23.7844 4.8743 26.1248 6.50394 26.1848H19.6837C20.3631 26.1848 20.914 25.6339 20.914 24.9543Z" fill="currentColor"/>
<path d="M40.5459 15.9501C39.6236 15.0271 38.3456 14.4976 37.0396 14.4976C36.7132 14.4976 36.4001 14.6274 36.1693 14.8583C36.1693 14.8583 36.1693 14.8583 31.4563 19.5739V9.13828C31.4563 8.81188 31.3267 8.49901 31.0958 8.26826L23.188 0.360445C22.9573 0.129691 22.6443 0 22.3179 0H1.23047C0.550922 0 0 0.550922 0 1.23047V40.7695C0 41.4491 0.550922 42 1.23047 42H30.2258C30.9054 42 31.4563 41.4491 31.4563 40.7695V30.511C31.4563 30.511 41.6395 20.3262 41.6395 20.3261C41.8703 20.0954 42.0001 19.7817 42.0001 19.4554C42 18.1522 41.47 16.8746 40.5459 15.9501ZM23.5484 4.20107L27.2552 7.90781H23.5484V4.20107ZM28.9953 39.5391H2.46094V2.46094H21.0874V9.13828C21.0874 9.81783 21.6384 10.3688 22.3179 10.3688H28.9953V22.0355L25.4016 25.6283C23.6038 27.4267 22.5582 29.7757 22.4214 32.2942C21.9682 32.5681 20.918 32.9794 19.5946 32.9477C19.5912 32.4559 19.6162 31.8743 19.223 31.273C18.7984 30.6361 18.066 30.3133 17.046 30.3133C15.2697 30.3133 13.7118 31.8198 13.54 31.9916C13.0595 32.4722 13.0595 33.2512 13.54 33.7317C14.0205 34.2123 14.7996 34.2123 15.2801 33.7317C15.6013 33.415 16.4978 32.7237 17.1333 32.7757C17.1367 33.2675 17.1116 33.8491 17.5049 34.4503C17.9295 35.0872 18.6619 35.4101 19.6819 35.4101C22.086 35.4101 23.5822 34.5251 24.1863 34.0765C25.8887 33.9828 27.5489 33.4573 28.9952 32.5718L28.9953 39.5391ZM29.1315 29.356C28.0059 30.4821 26.5421 31.2341 24.9826 31.5118C25.2546 29.9506 25.998 28.5127 27.1416 27.3686L37.5052 17.003C37.9939 17.0968 38.4516 17.3357 38.8053 17.6896C39.1604 18.045 39.4002 18.5029 39.4944 18.9909L29.1315 29.356Z" fill="currentColor"/>
</svg>
