<svg width="41" height="41" viewBox="0 0 41 41" fill="none" xmlns="http://www.w3.org/2000/svg">
<path d="M20.5 0C31.8218 0 41 9.17816 41 20.5C41 31.8218 31.8218 41 20.5 41C9.17816 41 0 31.8218 0 20.5C2.57703e-07 9.17816 9.17816 2.5772e-07 20.5 0ZM20.5 12.9834C20.4982 12.9834 13.6625 12.9831 11.957 13.4521C11.0162 13.7103 10.2749 14.4714 10.0234 15.4375C9.5666 17.1884 9.56641 20.8418 9.56641 20.8418C9.56641 20.8668 9.56817 24.5011 10.0234 26.2461C10.275 27.212 11.0162 27.9722 11.957 28.2305C13.6621 28.6995 20.4982 28.7002 20.5 28.7002C20.5 28.7002 27.3379 28.6996 29.043 28.2305C29.9838 27.9722 30.725 27.212 30.9766 26.2461C31.432 24.5011 31.4336 20.8668 31.4336 20.8418C31.4336 20.8418 31.4335 17.1884 30.9766 15.4375C30.7251 14.4714 29.9839 13.7103 29.043 13.4521C27.3376 12.983 20.5 12.9834 20.5 12.9834Z" fill="currentColor"/>
<path d="M18.4492 24.5999V17.7666L23.9159 21.1834L18.4492 24.5999Z" fill="currentColor"/>
</svg>
