<svg width="302" height="305" viewBox="0 0 302 305" fill="none" xmlns="http://www.w3.org/2000/svg">
<path d="M150.713 0L170.042 17.8269L193.611 6.16776L207.134 28.7182L233.033 24.1714L239.656 49.6184L265.786 52.5522L264.972 78.8344L289.217 89.0112L281.031 113.999L301.427 130.594L286.532 152.264L301.427 173.933L281.031 190.529L289.217 215.517L264.972 225.693L265.786 251.975L239.656 254.909L233.033 280.356L207.134 275.81L193.611 298.36L170.042 286.701L150.713 304.528L131.384 286.701L107.815 298.36L94.2917 275.81L68.393 280.356L61.7703 254.909L35.6397 251.975L36.4546 225.693L12.209 215.517L20.3954 190.529L-0.000961304 173.933L14.8937 152.264L-0.000961304 130.594L20.3954 113.999L12.209 89.0112L36.4546 78.8344L35.6397 52.5522L61.7703 49.6184L68.393 24.1714L94.2917 28.7182L107.815 6.16776L131.384 17.8269L150.713 0Z" fill="url(#paint0_linear_2444_6639)"/>
<defs>
<linearGradient id="paint0_linear_2444_6639" x1="64.5108" y1="40.2814" x2="253.834" y2="248.134" gradientUnits="userSpaceOnUse">
<stop stop-color="#F6E500"/>
<stop offset="0.36541" stop-color="#FFF895"/>
<stop offset="1" stop-color="#F6E500"/>
</linearGradient>
</defs>
</svg>
