<svg width="1440" height="238" viewBox="0 0 1440 238" fill="none" xmlns="http://www.w3.org/2000/svg">
<g opacity="0.2">
<path d="M99.1368 238C80.0679 238 61.649 235.832 43.8802 231.497C26.1114 227.162 11.4847 221.526 0 214.59L24.7029 158.667C35.5376 164.953 47.564 170.046 60.7822 173.948C74.2172 177.633 87.2187 179.475 99.7869 179.475C107.154 179.475 112.897 179.042 117.014 178.175C121.348 177.091 124.49 175.682 126.44 173.948C128.39 171.997 129.365 169.721 129.365 167.12C129.365 163.002 127.09 159.75 122.54 157.366C117.989 154.982 111.922 153.031 104.337 151.514C96.9699 149.78 88.8439 148.046 79.9595 146.311C71.0751 144.361 62.0824 141.868 52.9813 138.833C44.0969 135.799 35.8626 131.789 28.2784 126.803C20.9108 121.818 14.9518 115.315 10.4012 107.295C5.8507 99.0583 3.57543 88.8707 3.57543 76.7322C3.57543 62.643 7.47589 49.8543 15.2768 38.3661C23.2944 26.6612 35.1042 17.3406 50.706 10.4044C66.5246 3.46812 86.1353 0 109.538 0C124.923 0 140.092 1.62568 155.043 4.87704C169.995 8.12841 183.43 13.1138 195.348 19.8333L172.271 75.4317C161.002 69.796 150.06 65.5692 139.442 62.7514C129.04 59.9335 118.856 58.5246 108.888 58.5246C101.52 58.5246 95.6697 59.1749 91.3359 60.4754C87.002 61.776 83.86 63.51 81.9098 65.6776C80.1762 67.8452 79.3094 70.2295 79.3094 72.8306C79.3094 76.7322 81.5847 79.8752 86.1353 82.2596C90.6858 84.4271 96.6448 86.2696 104.012 87.7869C111.597 89.3042 119.831 90.9299 128.715 92.6639C137.816 94.398 146.809 96.7823 155.694 99.8169C164.578 102.852 172.704 106.862 180.071 111.847C187.656 116.832 193.723 123.335 198.274 131.355C202.824 139.375 205.099 149.346 205.099 161.268C205.099 175.14 201.091 187.929 193.073 199.634C185.272 211.122 173.571 220.443 157.969 227.596C142.367 234.532 122.756 238 99.1368 238Z" fill="url(#paint0_linear_2444_10972)"/>
<path d="M274.157 232.798V64.7022H207.525V5.20218H417.499V64.7022H350.867V232.798H274.157Z" fill="url(#paint1_linear_2444_10972)"/>
<path d="M437.423 232.798V5.20218H546.961C568.197 5.20218 586.508 8.6703 601.893 15.6066C617.495 22.5428 629.521 32.5137 637.972 45.5191C646.423 58.3078 650.649 73.4809 650.649 91.0383C650.649 108.596 646.423 123.769 637.972 136.557C629.521 149.129 617.495 158.775 601.893 165.495C586.508 172.214 568.197 175.574 546.961 175.574H480.003L514.133 144.036V232.798H437.423ZM573.615 232.798L517.708 149.888H598.968L655.524 232.798H573.615ZM514.133 152.489L480.003 117.699H542.086C552.704 117.699 560.505 115.315 565.489 110.546C570.689 105.778 573.29 99.275 573.29 91.0383C573.29 82.8015 570.689 76.2987 565.489 71.5301C560.505 66.7614 552.704 64.3771 542.086 64.3771H480.003L514.133 29.5874V152.489Z" fill="url(#paint2_linear_2444_10972)"/>
<path d="M799.229 238C780.594 238 763.367 235.074 747.548 229.221C731.946 223.369 718.403 215.132 706.918 204.511C695.434 193.673 686.441 180.993 679.94 166.47C673.656 151.947 670.514 136.124 670.514 119C670.514 101.659 673.656 85.8361 679.94 71.5301C686.441 57.0073 695.434 44.4353 706.918 33.8142C718.403 22.9763 731.946 14.6311 747.548 8.77869C763.367 2.92623 780.486 0 798.904 0C817.54 0 834.659 2.92623 850.26 8.77869C865.862 14.6311 879.406 22.9763 890.89 33.8142C902.375 44.4353 911.259 57.0073 917.544 71.5301C924.044 85.8361 927.295 101.659 927.295 119C927.295 136.124 924.044 151.947 917.544 166.47C911.259 180.993 902.375 193.673 890.89 204.511C879.406 215.132 865.862 223.369 850.26 229.221C834.659 235.074 817.648 238 799.229 238ZM798.904 175.899C806.055 175.899 812.664 174.598 818.732 171.997C825.016 169.396 830.433 165.711 834.984 160.943C839.751 155.957 843.435 149.996 846.035 143.06C848.635 135.907 849.936 127.887 849.936 119C849.936 110.113 848.635 102.201 846.035 95.265C843.435 88.112 839.751 82.1512 834.984 77.3825C830.433 72.3971 825.016 68.6038 818.732 66.0027C812.664 63.4016 806.055 62.1011 798.904 62.1011C791.754 62.1011 785.036 63.4016 778.752 66.0027C772.685 68.6038 767.267 72.3971 762.5 77.3825C757.95 82.1512 754.374 88.112 751.774 95.265C749.174 102.201 747.873 110.113 747.873 119C747.873 127.887 749.174 135.907 751.774 143.06C754.374 149.996 757.95 155.957 762.5 160.943C767.267 165.711 772.685 169.396 778.752 171.997C785.036 174.598 791.754 175.899 798.904 175.899Z" fill="url(#paint3_linear_2444_10972)"/>
<path d="M955.136 232.798V5.20218H1018.19L1133.91 143.71H1104.65V5.20218H1179.41V232.798H1116.36L1000.64 94.2896H1029.9V232.798H955.136Z" fill="url(#paint4_linear_2444_10972)"/>
<path d="M1334.36 238C1315.94 238 1298.93 235.182 1283.33 229.546C1267.95 223.694 1254.51 215.457 1243.03 204.836C1231.76 194.215 1222.98 181.643 1216.7 167.12C1210.41 152.597 1207.27 136.557 1207.27 119C1207.27 101.443 1210.41 85.4025 1216.7 70.8798C1222.98 56.357 1231.87 43.7851 1243.35 33.1639C1254.84 22.5428 1268.38 14.4144 1283.98 8.77869C1299.8 2.92623 1317.14 0 1335.99 0C1358.52 0 1378.57 3.79326 1396.12 11.3798C1413.89 18.9663 1428.52 29.8042 1440 43.8934L1390.92 87.1366C1383.77 78.8998 1375.97 72.7222 1367.52 68.6038C1359.28 64.2687 1350.07 62.1011 1339.89 62.1011C1331.44 62.1011 1323.74 63.4016 1316.81 66.0027C1310.09 68.6038 1304.35 72.3971 1299.58 77.3825C1294.82 82.3679 1291.13 88.3288 1288.53 95.265C1285.93 102.201 1284.63 110.113 1284.63 119C1284.63 127.454 1285.93 135.257 1288.53 142.41C1291.13 149.346 1294.82 155.307 1299.58 160.292C1304.35 165.278 1309.98 169.179 1316.49 171.997C1323.2 174.598 1330.68 175.899 1338.91 175.899C1347.58 175.899 1356.03 174.49 1364.27 171.672C1372.5 168.638 1381.28 163.544 1390.59 156.391L1433.5 209.063C1419.63 218.383 1403.81 225.536 1386.04 230.522C1368.27 235.507 1351.05 238 1334.36 238ZM1366.87 199.309V112.822H1433.5V209.063L1366.87 199.309Z" fill="url(#paint5_linear_2444_10972)"/>
</g>
<defs>
<linearGradient id="paint0_linear_2444_10972" x1="-82.0284" y1="237.634" x2="1440.01" y2="119.071" gradientUnits="userSpaceOnUse">
<stop stop-color="#2D333D"/>
<stop offset="1" stop-color="#97ACCE"/>
</linearGradient>
<linearGradient id="paint1_linear_2444_10972" x1="-82.0284" y1="237.634" x2="1440.01" y2="119.071" gradientUnits="userSpaceOnUse">
<stop stop-color="#2D333D"/>
<stop offset="1" stop-color="#97ACCE"/>
</linearGradient>
<linearGradient id="paint2_linear_2444_10972" x1="-82.0284" y1="237.634" x2="1440.01" y2="119.071" gradientUnits="userSpaceOnUse">
<stop stop-color="#2D333D"/>
<stop offset="1" stop-color="#97ACCE"/>
</linearGradient>
<linearGradient id="paint3_linear_2444_10972" x1="-82.0284" y1="237.634" x2="1440.01" y2="119.071" gradientUnits="userSpaceOnUse">
<stop stop-color="#2D333D"/>
<stop offset="1" stop-color="#97ACCE"/>
</linearGradient>
<linearGradient id="paint4_linear_2444_10972" x1="-82.0284" y1="237.634" x2="1440.01" y2="119.071" gradientUnits="userSpaceOnUse">
<stop stop-color="#2D333D"/>
<stop offset="1" stop-color="#97ACCE"/>
</linearGradient>
<linearGradient id="paint5_linear_2444_10972" x1="-82.0284" y1="237.634" x2="1440.01" y2="119.071" gradientUnits="userSpaceOnUse">
<stop stop-color="#2D333D"/>
<stop offset="1" stop-color="#97ACCE"/>
</linearGradient>
</defs>
</svg>
