<svg width="96" height="96" viewBox="0 0 96 96" fill="none" xmlns="http://www.w3.org/2000/svg">
<g clip-path="url(#clip0_2444_10968)">
<path d="M95.8125 57.5625C95.8125 56.4971 95.2106 55.5233 94.2578 55.047L86.1637 51L94.2578 46.953C95.2106 46.4767 95.8125 45.5029 95.8125 44.4375C95.8125 43.3721 95.2106 42.3983 94.2578 41.922L73.0851 31.3357C72.9772 30.495 72.4952 29.7122 71.7043 29.2556L69.3981 27.924C69.5074 27.048 69.5625 26.175 69.5625 25.3125C69.5625 24.45 69.5074 23.577 69.3981 22.701L71.7043 21.3694C73.0496 20.5926 73.5105 18.8726 72.7337 17.5275L67.1087 7.78481C66.3319 6.4395 64.6119 5.97844 63.2668 6.75544L60.9506 8.0925C59.5464 7.02769 58.0376 6.15019 56.4375 5.4675V2.8125C56.4375 1.25925 55.1782 0 53.625 0H42.375C40.8218 0 39.5625 1.25925 39.5625 2.8125V5.4675C37.9624 6.15019 36.4536 7.02769 35.0494 8.0925L32.7332 6.75544C31.3875 5.97844 29.6678 6.43969 28.8913 7.78481L23.2663 17.5275C22.4895 18.8726 22.9504 20.5928 24.2957 21.3694L26.6019 22.701C26.4926 23.577 26.4375 24.45 26.4375 25.3125C26.4375 26.175 26.4926 27.048 26.6019 27.924L24.2957 29.2556C23.505 29.7122 23.0227 30.4952 22.9149 31.3357L1.74225 41.922C0.789375 42.3983 0.1875 43.3721 0.1875 44.4375C0.1875 45.5029 0.789375 46.4767 1.74225 46.953L9.83625 51L1.74225 55.047C0.789375 55.5233 0.1875 56.4971 0.1875 57.5625C0.1875 58.6279 0.789375 59.6017 1.74225 60.078L9.83625 64.125L1.74225 68.172C0.789375 68.6483 0.1875 69.6221 0.1875 70.6875C0.1875 71.7529 0.789375 72.7267 1.74225 73.203L46.7423 95.703C47.1381 95.901 47.5689 96 48 96C48.4311 96 48.8619 95.901 49.2578 95.703L94.2578 73.203C95.2106 72.7267 95.8125 71.7529 95.8125 70.6875C95.8125 69.6221 95.2106 68.6483 94.2578 68.172L86.1637 64.125L94.2578 60.078C95.2106 59.6017 95.8125 58.6279 95.8125 57.5625ZM32.451 28.7715C32.1932 27.6073 32.0625 26.4435 32.0625 25.3125C32.0625 24.1815 32.1932 23.0177 32.451 21.8535C32.7165 20.6552 32.1742 19.4231 31.1113 18.8096L29.5438 17.9046L32.3563 13.0333L33.9354 13.9447C34.9993 14.5588 36.3381 14.4116 37.2431 13.5814C39.0004 11.9692 41.0106 10.8004 43.2178 10.107C44.3901 9.73856 45.1875 8.65237 45.1875 7.42369V5.625H50.8125V7.42369C50.8125 8.65237 51.6099 9.73875 52.7822 10.107C54.9894 10.8004 56.9996 11.9694 58.7569 13.5814C59.6618 14.4116 61.0007 14.5588 62.0646 13.9447L63.6437 13.0333L66.4562 17.9046L64.8887 18.8096C63.8257 19.4231 63.2835 20.6554 63.549 21.8535C63.8068 23.0177 63.9375 24.1815 63.9375 25.3125C63.9375 26.4435 63.8068 27.6073 63.549 28.7715C63.2835 29.9698 63.8257 31.2019 64.8887 31.8154L66.4562 32.7204L63.6437 37.5917L62.0646 36.6801C61.0007 36.066 59.6616 36.2132 58.7569 37.0434C56.9998 38.6556 54.9896 39.8246 52.7822 40.518C51.6099 40.8862 50.8125 41.9726 50.8125 43.2013V45H45.1875V43.2013C45.1875 41.9726 44.3901 40.8862 43.2178 40.518C41.0104 39.8246 39.0002 38.6554 37.2431 37.0434C36.3384 36.2132 34.9993 36.0658 33.9354 36.6801L32.3563 37.5917L29.5438 32.7204L31.1113 31.8154C32.1744 31.2019 32.7165 29.9698 32.451 28.7715ZM9.28894 44.4375L25.2157 36.474L28.8913 42.84C29.6681 44.1855 31.3882 44.6464 32.7332 43.8694L35.0494 42.5321C36.4536 43.5971 37.9624 44.4744 39.5625 45.1573V47.8125C39.5625 49.3657 40.8218 50.625 42.375 50.625H53.625C55.1782 50.625 56.4375 49.3657 56.4375 47.8125V45.1575C58.0376 44.4746 59.5464 43.5973 60.9506 42.5323L63.2668 43.8696C64.6117 44.6464 66.3321 44.1853 67.1087 42.8402L70.7842 36.4742L86.7111 44.4375L48 63.7929L9.28894 44.4375ZM86.7111 70.6875L48 90.0429L9.28894 70.6875L16.125 67.2694L46.7423 82.578C47.1381 82.776 47.5689 82.875 48 82.875C48.4311 82.875 48.8619 82.776 49.2578 82.578L79.875 67.2694L86.7111 70.6875ZM48 76.9179L9.28894 57.5625L16.125 54.1444L46.7423 69.453C47.1381 69.651 47.5689 69.75 48 69.75C48.4311 69.75 48.8619 69.651 49.2578 69.453L79.875 54.1444L86.7111 57.5625L48 76.9179Z" fill="#F6E500"/>
<path d="M48 35.625C53.6863 35.625 58.3125 30.9988 58.3125 25.3125C58.3125 19.6262 53.6863 15 48 15C42.3137 15 37.6875 19.6262 37.6875 25.3125C37.6875 30.9988 42.3137 35.625 48 35.625ZM48 20.625C50.5847 20.625 52.6875 22.7278 52.6875 25.3125C52.6875 27.8972 50.5847 30 48 30C45.4153 30 43.3125 27.8972 43.3125 25.3125C43.3125 22.7278 45.4153 20.625 48 20.625Z" fill="#F6E500"/>
</g>
<defs>
<clipPath id="clip0_2444_10968">
<rect width="96" height="96" fill="white"/>
</clipPath>
</defs>
</svg>
