<svg width="86" height="86" viewBox="0 0 86 86" fill="none" xmlns="http://www.w3.org/2000/svg">
<path d="M14.8851 16.5385C14.8851 15.1684 13.7735 14.0569 12.4035 14.0569C11.0334 14.0569 9.92188 15.1684 9.92188 16.5385C9.92188 17.9085 11.0334 19.0201 12.4035 19.0201C13.7735 19.0201 14.8851 17.9085 14.8851 16.5385Z" fill="#F6E500"/>
<path d="M40.5195 44.6531C40.5195 46.0231 41.6311 47.1347 43.0011 47.1347C44.3712 47.1347 45.4827 46.0231 45.4827 44.6531C45.4827 43.2831 44.3712 42.1715 43.0011 42.1715C41.6311 42.1715 40.5195 43.2831 40.5195 44.6531Z" fill="#F6E500"/>
<path d="M73.5968 19.0201C74.9669 19.0201 76.0784 17.9085 76.0784 16.5385C76.0784 15.1684 74.9669 14.0569 73.5968 14.0569C72.2268 14.0569 71.1152 15.1684 71.1152 16.5385C71.1152 17.9085 72.2268 19.0201 73.5968 19.0201Z" fill="#F6E500"/>
<path d="M81.0378 36.3967C81.0378 36.3926 81.0385 36.3886 81.0385 36.3846V26.4548C84.0491 24.1895 86 20.5878 86 16.5385C86 9.69901 80.4356 4.13464 73.5962 4.13464C70.3477 4.13464 67.3884 5.3914 65.1749 7.44234H20.8251C18.6116 5.3914 15.6523 4.13464 12.4038 4.13464C5.56437 4.13464 0 9.69901 0 16.5385C0 23.378 5.56437 28.9423 12.4038 28.9423C12.5238 28.9423 12.6425 28.9367 12.7616 28.9332L30.8202 46.9917C31.1442 48.6828 31.8107 50.2533 32.7475 51.6265L30.7331 65.0569L24.6076 71.9481C24.2039 72.4021 23.9808 72.9886 23.9808 73.5962V76.9039H19.8462C18.4761 76.9039 17.3654 78.0146 17.3654 79.3846C17.3654 80.7547 18.4761 81.8654 19.8462 81.8654H66.1538C67.5239 81.8654 68.6346 80.7547 68.6346 79.3846C68.6346 78.0146 67.5239 76.9039 66.1538 76.9039H62.0192V73.5962C62.0192 72.9886 61.7961 72.4021 61.3926 71.948L55.2671 65.0567L53.2527 51.6263C54.6092 49.6381 55.4038 47.2373 55.4038 44.6539C55.4038 37.8144 49.8395 32.25 43 32.25C42.6156 32.25 42.2361 32.2702 41.8607 32.3044L35.1907 25.6346H65.1748C65.487 25.9239 65.813 26.1984 66.1537 26.4548V36.3846C66.1537 36.3888 66.1543 36.3927 66.1543 36.3967L61.8059 41.3664C61.4103 41.8185 61.1923 42.399 61.1923 43V49.6154C61.1923 50.9855 62.303 52.0962 63.6731 52.0962C65.0431 52.0962 66.1538 50.9855 66.1538 49.6154V43.9321L70.5873 38.8654H76.605L81.0385 43.9321V49.6154C81.0385 50.9855 82.1492 52.0962 83.5192 52.0962C84.8893 52.0962 86 50.9855 86 49.6154V43C86 42.399 85.782 41.8185 85.3863 41.3664L81.0378 36.3967ZM81.0385 16.5385C81.0385 19.3163 79.5078 21.7418 77.2465 23.0202C75.507 24.0023 73.3931 24.2454 71.4776 23.6717C68.4585 22.7674 66.2964 19.9879 66.1603 16.8403C66.1079 15.6262 66.3644 14.3969 66.8946 13.3034C68.1004 10.8157 70.6512 9.09618 73.5962 9.09618C77.6998 9.09618 81.0385 12.4348 81.0385 16.5385ZM4.96154 16.5385C4.96154 12.4348 8.30016 9.09618 12.4038 9.09618C15.0889 9.09618 17.4459 10.5256 18.7549 12.6632C20.0959 14.8633 20.1984 17.6686 19.0108 19.9553C18.6845 20.5836 18.2686 21.165 17.7797 21.677C16.3838 23.1345 14.4237 23.9808 12.4038 23.9808C8.30016 23.9808 4.96154 20.6422 4.96154 16.5385ZM40.5457 56.8129C42.186 57.1426 43.8924 57.1386 45.5306 56.7974C46.6868 56.5576 47.7978 56.156 48.8321 55.6046L50.0424 63.6731H35.9576L37.1677 55.6046C38.202 56.156 39.3131 56.5576 40.4693 56.7974C40.4948 56.8027 40.5202 56.8077 40.5457 56.8129ZM57.0577 76.9039H28.9423V74.5394L34.191 68.6346H51.8089L57.0577 74.5394V76.9039ZM50.4423 44.6539C50.4423 47.7203 48.5781 50.3587 45.9238 51.497C44.071 52.2895 41.9291 52.2895 40.0763 51.497C37.6776 50.4683 35.926 48.2139 35.6106 45.5263C35.324 43.5205 36.0226 41.3945 37.3167 39.8585C37.6835 39.4233 38.1003 39.03 38.5556 38.6881C39.7965 37.7611 41.3352 37.2116 43 37.2116C47.1037 37.2116 50.4423 40.5502 50.4423 44.6539ZM36.5735 34.0481C35.9626 34.4217 35.3832 34.8482 34.8446 35.3201C33.2684 36.699 32.0426 38.4678 31.3219 40.4769L18.296 27.4512C19.0735 27.0298 19.8078 26.5209 20.4776 25.9436C21.9343 24.6913 23.0991 23.1094 23.8514 21.312L36.5821 34.0428C36.5791 34.0443 36.5763 34.0463 36.5735 34.0481ZM30.2292 20.6731L24.7311 15.1751C24.6256 14.2142 24.4094 13.2864 24.0964 12.4039H61.9007C61.1687 14.4727 61.0107 16.7169 61.4154 18.8712C61.5304 19.4828 61.6929 20.0863 61.9007 20.6731H30.2292ZM73.5962 28.9423C74.4456 28.9423 75.2751 28.8562 76.0769 28.6928V33.9039H71.1154V28.6928C71.9172 28.8562 72.7467 28.9423 73.5962 28.9423Z" fill="#F6E500"/>
</svg>
