<svg width="41" height="41" viewBox="0 0 41 41" fill="none" xmlns="http://www.w3.org/2000/svg">
<path d="M20.1299 0C31.2474 0 40.2605 9.01241 40.2607 20.1299C40.2607 31.2476 31.2476 40.2607 20.1299 40.2607C9.01241 40.2605 0 31.2474 0 20.1299C0.000253571 9.01257 9.01257 0.000253586 20.1299 0ZM19.7158 14.7646C18.5639 14.7533 17.5895 14.7693 17.0371 15.0342C16.6697 15.2104 16.3859 15.6039 16.5586 15.627C16.7718 15.6548 17.2555 15.7544 17.5117 16.0967C17.8387 16.5339 17.8313 17.5081 17.8311 17.5303C17.8311 17.5303 18.0207 20.2637 17.3867 20.6035C16.952 20.8365 16.3554 20.3614 15.0732 18.1875C14.4169 17.0741 13.9209 15.8428 13.9209 15.8428C13.9175 15.8347 13.8223 15.6107 13.6543 15.4893C13.4474 15.3398 13.1582 15.2939 13.1582 15.2939L10.0908 15.3135C10.0908 15.3135 9.63018 15.3258 9.46094 15.5225C9.31076 15.6967 9.44922 16.0586 9.44922 16.0586C9.46287 16.0899 11.859 21.5831 14.5713 24.3555C17.0655 26.9034 19.8965 26.7363 19.8965 26.7363H21.1797C21.1797 26.7363 21.567 26.6943 21.7656 26.4854C21.9444 26.2967 21.9416 25.9431 21.9414 25.9316C21.9414 25.9316 21.9176 24.2417 22.7168 23.9922C23.5044 23.7477 24.5158 25.6261 25.5889 26.3486C26.3925 26.8902 27.004 26.7774 27.0146 26.7754L29.8828 26.7363C29.8828 26.7363 31.3825 26.6457 30.6719 25.4883C30.6131 25.3934 30.2571 24.6312 28.54 23.0664C26.741 21.4283 26.982 21.6932 29.1475 18.8594C30.4664 17.1338 30.9938 16.0804 30.8291 15.6299C30.6726 15.199 29.7021 15.3135 29.7021 15.3135L26.4736 15.333C26.4639 15.3318 26.2304 15.3034 26.0566 15.4053C25.8853 15.5064 25.7737 15.7404 25.7715 15.7451C25.7715 15.7451 25.2606 17.0798 24.5791 18.2158C23.1414 20.6116 22.5673 20.7383 22.332 20.5898C21.785 20.2423 21.9209 19.1963 21.9209 18.4531C21.9209 16.1307 22.2802 15.1626 21.2227 14.9121C20.872 14.8286 20.6135 14.7739 19.7158 14.7646Z" fill="#3490F3"/>
</svg>
