<svg width="41" height="41" viewBox="0 0 41 41" fill="none" xmlns="http://www.w3.org/2000/svg">
<path d="M20.1299 0C31.2474 0 40.2605 9.01241 40.2607 20.1299C40.2607 31.2476 31.2476 40.2607 20.1299 40.2607C9.01241 40.2605 0 31.2474 0 20.1299C0.000253571 9.01257 9.01257 0.000253586 20.1299 0ZM30.0186 13.7979C30.3564 12.4428 29.5016 11.8279 28.6162 12.2295L9.22559 19.707C7.902 20.2379 7.90977 20.9757 8.98438 21.3047L13.96 22.8584L25.4805 15.5908C26.0243 15.2611 26.5229 15.4382 26.1133 15.8018L16.7793 24.2256L16.4365 29.3564C16.9398 29.3564 17.1625 29.1266 17.4434 28.8535L19.8613 26.502L24.8916 30.2188C25.8173 30.7294 26.4852 30.4651 26.7158 29.3594L30.0186 13.7979Z" fill="#1E7DE3"/>
</svg>
