<svg width="41" height="41" viewBox="0 0 41 41" fill="none" xmlns="http://www.w3.org/2000/svg">
<circle cx="20.1304" cy="20.1304" r="20.1304" fill="url(#paint0_linear_2444_6417)"/>
<path fill-rule="evenodd" clip-rule="evenodd" d="M20.3389 29.7378C18.4424 29.7378 17.5611 29.4597 16.0291 28.3474C15.0601 29.5987 11.9915 30.5766 11.8577 28.9036C11.8577 27.6476 11.5808 26.5864 11.267 25.4277C10.8933 24.0003 10.4688 22.4107 10.4688 20.1074C10.4688 14.6063 14.9632 10.4678 20.2882 10.4678C25.6178 10.4678 29.7938 14.8102 29.7938 20.1584C29.8117 25.4238 25.5816 29.7097 20.3389 29.7378ZM20.4174 15.2227C17.8241 15.0883 15.803 16.8911 15.3554 19.7181C14.9862 22.0585 15.6415 24.9087 16.1998 25.057C16.4675 25.1219 17.1412 24.575 17.5611 24.1533C18.2554 24.635 19.064 24.9244 19.9052 24.9921C22.5923 25.1219 24.8883 23.0674 25.0687 20.3716C25.1737 17.6701 23.1048 15.3819 20.4174 15.2273V15.2227Z" fill="white"/>
<defs>
<linearGradient id="paint0_linear_2444_6417" x1="20.1304" y1="0" x2="20.1304" y2="40.2607" gradientUnits="userSpaceOnUse">
<stop stop-color="#44CCFF"/>
<stop offset="0.519258" stop-color="#4C47E0"/>
<stop offset="1" stop-color="#9933DD"/>
</linearGradient>
</defs>
</svg>
