<svg width="41" height="41" viewBox="0 0 41 41" fill="none" xmlns="http://www.w3.org/2000/svg">
<path d="M20.1299 0C31.2474 0 40.2605 9.01241 40.2607 20.1299C40.2607 31.2476 31.2476 40.2607 20.1299 40.2607C9.01241 40.2605 0 31.2474 0 20.1299C0.000253571 9.01257 9.01257 0.000253586 20.1299 0ZM25.6885 20.6904C25.1978 20.0456 24.3034 19.9419 23.6914 20.459C23.676 20.472 22.3403 21.5511 20.1436 21.5527C17.9446 21.5512 16.5793 20.47 16.5664 20.459C15.9544 19.9422 15.0609 20.0459 14.5703 20.6904C14.0796 21.3353 14.1781 22.2778 14.79 22.7949C14.8622 22.8557 16.1662 23.9229 18.3115 24.3604L15.3154 27.6602C14.771 28.2552 14.787 29.2026 15.3516 29.7764C15.6272 30.0564 15.983 30.1953 16.3379 30.1953C16.7099 30.1952 17.0818 30.0418 17.3604 29.7373L20.1436 26.6133L23.208 29.7578C23.7632 30.3419 24.6617 30.3407 25.2158 29.7559C25.77 29.1709 25.7699 28.2237 25.2148 27.6396L22.0586 24.3428C24.1478 23.8942 25.4006 22.8525 25.4688 22.7949C26.0806 22.2778 26.1792 21.3353 25.6885 20.6904ZM20.1338 10.0654C17.3545 10.0656 15.1016 12.3185 15.1016 15.0977C15.1016 17.8769 17.3545 20.1297 20.1338 20.1299C22.9132 20.1299 25.1669 17.877 25.167 15.0977C25.167 12.3183 22.9132 10.0654 20.1338 10.0654ZM20.1338 13.0176C21.2827 13.0176 22.2148 13.9488 22.2148 15.0977C22.2148 16.2465 21.2827 17.1777 20.1338 17.1777C18.985 17.1775 18.0537 16.2464 18.0537 15.0977C18.0537 13.9489 18.985 13.0178 20.1338 13.0176Z" fill="#F7931E"/>
</svg>
