<svg width="41" height="41" viewBox="0 0 41 41" fill="none" xmlns="http://www.w3.org/2000/svg">
<path d="M20.1299 0C31.2474 0 40.2605 9.01241 40.2607 20.1299C40.2607 31.2476 31.2476 40.2607 20.1299 40.2607C9.01241 40.2605 0 31.2474 0 20.1299C0.000253571 9.01257 9.01257 0.000253586 20.1299 0ZM20.7969 7.38086C14.1992 7.38102 8.82977 12.7508 8.82715 19.3506C8.82627 21.4602 9.37731 23.5196 10.4248 25.335L8.72656 31.5371L15.0723 29.873C16.8205 30.8266 18.7888 31.3293 20.792 31.3301H20.7969C27.3965 31.3274 32.7647 25.9585 32.7676 19.3604C32.7688 16.162 31.5246 13.1541 29.2646 10.8916C27.0047 8.62904 23.999 7.38224 20.7969 7.38086Z" fill="#29A627"/>
<path d="M20.7969 9.40283C23.4543 9.40375 25.9527 10.4402 27.8311 12.3208C29.7092 14.2013 30.7431 16.7007 30.7422 19.3589C30.74 24.8448 26.2766 29.3081 20.793 29.3081H20.7891C19.0039 29.3074 17.2531 28.8278 15.7256 27.9214L15.3623 27.7056L11.5967 28.6938L12.6016 25.022L12.3652 24.646C11.3693 23.062 10.843 21.231 10.8438 19.3511C10.8459 13.8656 15.3091 9.4029 20.7969 9.40283ZM16.5547 13.8228C16.3553 13.8229 16.0317 13.8977 15.7578 14.1968C15.4837 14.4962 14.711 15.2199 14.7109 16.6919C14.7109 18.1631 15.7809 19.5845 15.9316 19.7856C16.0812 19.9853 18.0408 23.0066 21.041 24.3022C21.7544 24.6103 22.3117 24.7943 22.7461 24.9321C23.4624 25.1598 24.1147 25.1273 24.6299 25.0503C25.2046 24.9645 26.4001 24.327 26.6494 23.6284C26.8984 22.9298 26.898 22.3313 26.8232 22.2065C26.7485 22.0818 26.5491 22.0067 26.25 21.8569C25.9503 21.707 24.4824 20.9848 24.207 20.8843C23.933 20.7845 23.7335 20.7345 23.5342 21.0337C23.3348 21.3331 22.7614 22.0069 22.5869 22.2065C22.4124 22.4061 22.2375 22.4305 21.9385 22.2808C21.639 22.131 20.6752 21.815 19.5332 20.7964C18.6443 20.0034 18.0437 19.0246 17.8691 18.7251C17.6947 18.4257 17.8513 18.2639 18.001 18.1147C18.1355 17.9807 18.2997 17.7649 18.4492 17.5903C18.5987 17.4158 18.6484 17.2907 18.748 17.0913C18.8477 16.8916 18.7984 16.7166 18.7236 16.5669C18.6482 16.4154 18.0508 14.9446 17.8018 14.3462C17.559 13.7632 17.3115 13.8427 17.1279 13.8335C16.9538 13.8248 16.7539 13.8228 16.5547 13.8228Z" fill="#29A627"/>
</svg>
