<svg width="0" height="0" class="hidden">
  <symbol fill="none" xmlns="http://www.w3.org/2000/svg" viewBox="0 0 11 15" id="ic_arr_hor">
    <path d="M3.30843e-07 7.56881L11 -4.80825e-07L6.17544 7.56881L11 15L3.30843e-07 7.56881Z" fill="currentColor"></path>
  </symbol>
  <symbol fill="none" xmlns="http://www.w3.org/2000/svg" viewBox="0 0 12 8" id="ic_arrow_hor">
    <path d="M11.3536 4.03556C11.5488 3.8403 11.5488 3.52372 11.3536 3.32845L8.17157 0.146473C7.97631 -0.0487893 7.65973 -0.0487893 7.46447 0.146473C7.2692 0.341735 7.2692 0.658318 7.46447 0.85358L10.2929 3.68201L7.46447 6.51043C7.2692 6.7057 7.2692 7.02228 7.46447 7.21754C7.65973 7.4128 7.97631 7.4128 8.17157 7.21754L11.3536 4.03556ZM0 3.68201V4.18201H11V3.68201V3.18201H0V3.68201Z" fill="currentColor"></path>
  </symbol>
  <symbol fill="none" xmlns="http://www.w3.org/2000/svg" viewBox="0 0 51 12" id="ic_arrow_hor_big">
    <path d="M50.5303 6.05329C50.8232 5.76039 50.8232 5.28552 50.5303 4.99263L45.7574 0.219654C45.4645 -0.073239 44.9896 -0.0732391 44.6967 0.219654C44.4038 0.512548 44.4038 0.987421 44.6967 1.28031L48.9393 5.52296L44.6967 9.7656C44.4038 10.0585 44.4038 10.5334 44.6967 10.8263C44.9896 11.1191 45.4645 11.1191 45.7574 10.8263L50.5303 6.05329ZM0 5.52295L-4.31362e-08 6.27295L50 6.27296L50 5.52296L50 4.77296L4.31362e-08 4.77295L0 5.52295Z" fill="currentColor"></path>
  </symbol>
  <symbol fill="none" xmlns="http://www.w3.org/2000/svg" viewBox="0 0 49 94" id="ic_brand_arr_hor">
    <path d="M49 47.4312L3.8147e-06 -2.14186e-06L21.4912 47.4312L-2.94173e-07 94L49 47.4312Z" fill="currentColor"></path>
  </symbol>
  <symbol fill="none" xmlns="http://www.w3.org/2000/svg" viewBox="0 0 42 42" id="ic_call_to_us">
    <path d="M21.2352 10.0268C28.3121 10.0963 32.7455 9.65595 33.3443 17.5H41.9742C41.9742 5.34836 31.3763 3.71045 21.0105 3.71045C10.6439 3.71045 0.046875 5.34836 0.046875 17.5H8.60977C9.27229 9.50646 14.2171 9.95821 21.2352 10.0268Z" fill="currentColor"></path>
    <path d="M4.32229 21.4064C6.42421 21.4064 8.17323 21.5322 8.56208 19.4646C8.61436 19.1836 8.64458 18.865 8.64458 18.4966H8.54492H0C0 21.5723 1.93527 21.4064 4.32229 21.4064Z" fill="currentColor"></path>
    <path d="M33.3934 18.4966H33.3125C33.3125 18.8675 33.3444 19.1869 33.404 19.4646C33.8141 21.3713 35.5606 21.2529 37.6552 21.2529C40.0537 21.2529 41.9979 21.4105 41.9979 18.4966H33.3934Z" fill="currentColor"></path>
    <path d="M29.1758 16.402V15.1799C29.1758 14.6334 28.5459 14.5991 27.7682 14.5991H26.4979C25.721 14.5991 25.0912 14.6334 25.0912 15.1799V16.2329V17.0499H16.1051V16.2329V15.1799C16.1051 14.6334 15.4753 14.5991 14.6984 14.5991H13.4273C12.6504 14.5991 12.0206 14.6334 12.0206 15.1799V16.402V17.4689C9.97339 19.5962 3.27469 28.6517 3.03125 29.748L3.03452 37.0634C3.03452 37.739 3.5843 38.2888 4.25989 38.2888H36.9365C37.612 38.2888 38.1618 37.739 38.1618 37.0634V29.7112C37.9208 28.6468 31.2238 19.5954 29.1758 17.4681V16.402ZM15.6624 30.7324C15.0048 30.7324 14.4713 30.1997 14.4713 29.5413C14.4713 28.8829 15.0048 28.3502 15.6624 28.3502C16.32 28.3502 16.8534 28.8829 16.8534 29.5413C16.8534 30.1997 16.32 30.7324 15.6624 30.7324ZM15.6624 26.6478C15.0048 26.6478 14.4713 26.1152 14.4713 25.4567C14.4713 24.7983 15.0048 24.2657 15.6624 24.2657C16.32 24.2657 16.8534 24.7983 16.8534 25.4567C16.8534 26.1152 16.32 26.6478 15.6624 26.6478ZM15.6624 22.564C15.0048 22.564 14.4713 22.0314 14.4713 21.373C14.4713 20.7154 15.0048 20.1819 15.6624 20.1819C16.32 20.1819 16.8534 20.7154 16.8534 21.373C16.8534 22.0314 16.32 22.564 15.6624 22.564ZM20.5639 30.7324C19.9062 30.7324 19.3728 30.1997 19.3728 29.5413C19.3728 28.8829 19.9062 28.3502 20.5639 28.3502C21.2223 28.3502 21.7549 28.8829 21.7549 29.5413C21.7549 30.1997 21.2223 30.7324 20.5639 30.7324ZM20.5639 26.6478C19.9062 26.6478 19.3728 26.1152 19.3728 25.4567C19.3728 24.7983 19.9062 24.2657 20.5639 24.2657C21.2223 24.2657 21.7549 24.7983 21.7549 25.4567C21.7549 26.1152 21.2223 26.6478 20.5639 26.6478ZM20.5639 22.564C19.9062 22.564 19.3728 22.0314 19.3728 21.373C19.3728 20.7154 19.9062 20.1819 20.5639 20.1819C21.2223 20.1819 21.7549 20.7154 21.7549 21.373C21.7549 22.0314 21.2223 22.564 20.5639 22.564ZM25.4653 30.7324C24.8069 30.7324 24.2743 30.1997 24.2743 29.5413C24.2743 28.8829 24.8069 28.3502 25.4653 28.3502C26.1238 28.3502 26.6564 28.8829 26.6564 29.5413C26.6564 30.1997 26.1238 30.7324 25.4653 30.7324ZM25.4653 26.6478C24.8069 26.6478 24.2743 26.1152 24.2743 25.4567C24.2743 24.7983 24.8069 24.2657 25.4653 24.2657C26.1238 24.2657 26.6564 24.7983 26.6564 25.4567C26.6564 26.1152 26.1238 26.6478 25.4653 26.6478ZM25.4653 22.564C24.8069 22.564 24.2743 22.0314 24.2743 21.373C24.2743 20.7154 24.8069 20.1819 25.4653 20.1819C26.1238 20.1819 26.6564 20.7154 26.6564 21.373C26.6564 22.0314 26.1238 22.564 25.4653 22.564Z" fill="currentColor"></path>
  </symbol>
  <symbol fill="none" xmlns="http://www.w3.org/2000/svg" viewBox="0 0 16 17" id="ic_configurator">
    <path d="M14.4199 5.44238V11.749L7.59473 16.0879L0.769531 11.749V5.44238L7.59473 0.922852L14.4199 5.44238Z" stroke="currentColor" stroke-width="1.53846"></path>
    <line x1="7.76923" y1="4" x2="7.76923" y2="17" stroke="currentColor" stroke-width="1.53846"></line>
    <path d="M4.72656 6.13612L8.04609 3.62132M10.5609 6.13612L7.24136 3.62132" stroke="currentColor" stroke-width="1.53846"></path>
  </symbol>
  <symbol fill="none" xmlns="http://www.w3.org/2000/svg" viewBox="0 0 16 16" id="ic_email">
    <path d="M11.332 13.6667H4.66536C2.66536 13.6667 1.33203 12.6667 1.33203 10.3333V5.66667C1.33203 3.33334 2.66536 2.33334 4.66536 2.33334H11.332C13.332 2.33334 14.6654 3.33334 14.6654 5.66667V10.3333C14.6654 12.6667 13.332 13.6667 11.332 13.6667Z" stroke="currentColor" stroke-miterlimit="10" stroke-linecap="round" stroke-linejoin="round"></path>
    <path d="M11.3346 6L9.24797 7.66667C8.5613 8.21333 7.43463 8.21333 6.74797 7.66667L4.66797 6" stroke="currentColor" stroke-miterlimit="10" stroke-linecap="round" stroke-linejoin="round"></path>
  </symbol>
  <symbol fill="none" xmlns="http://www.w3.org/2000/svg" viewBox="0 0 16 16" id="ic_location">
    <path d="M6.01203 1.89336L2.4187 4.69336C1.8187 5.16003 1.33203 6.15336 1.33203 6.90669V11.8467C1.33203 13.3934 2.59203 14.66 4.1387 14.66H11.8587C13.4054 14.66 14.6654 13.3934 14.6654 11.8534V7.00003C14.6654 6.19336 14.1254 5.16003 13.4654 4.70003L9.34536 1.81336C8.41203 1.16003 6.91203 1.19336 6.01203 1.89336Z" stroke="currentColor" stroke-width="0.833333" stroke-linecap="round" stroke-linejoin="round"></path>
  </symbol>
  <symbol fill="none" xmlns="http://www.w3.org/2000/svg" viewBox="0 0 13 10" id="ic_menu">
    <line y1="1" x2="13" y2="1" stroke="currentColor" stroke-width="2"></line>
    <line y1="4.25" x2="10" y2="4.25" stroke="currentColor" stroke-width="2"></line>
    <line y1="8.25" x2="10" y2="8.25" stroke="currentColor" stroke-width="2"></line>
  </symbol>
  <symbol fill="none" xmlns="http://www.w3.org/2000/svg" viewBox="0 0 16 16" id="ic_phone">
    <path d="M3.26133 10.6357C4.83945 12.5222 6.73916 14.0075 8.90742 15.0584C9.73295 15.4496 10.837 15.9138 12.067 15.9934C12.1432 15.9967 12.2162 16 12.2924 16C13.1179 16 13.781 15.7149 14.3214 15.1281C14.3247 15.1247 14.3314 15.1181 14.3347 15.1115C14.527 14.8794 14.7458 14.6705 14.9746 14.4484C15.1304 14.2992 15.2895 14.1434 15.442 13.9843C16.1482 13.2482 16.1482 12.3133 15.4354 11.6005L13.4428 9.60796C13.1047 9.25653 12.7002 9.07087 12.2758 9.07087C11.8515 9.07087 11.4437 9.25653 11.0956 9.60464L9.90866 10.7915C9.79925 10.7286 9.68653 10.6722 9.58044 10.6191C9.44782 10.5528 9.32515 10.4898 9.21575 10.4202C8.13493 9.73394 7.15358 8.83879 6.21533 7.68835C5.74123 7.08827 5.42296 6.58433 5.20083 6.07045C5.51247 5.78864 5.80423 5.49358 6.08603 5.20514C6.18549 5.10236 6.28827 4.99959 6.39105 4.89681C6.74911 4.53875 6.9414 4.12433 6.9414 3.70327C6.9414 3.28222 6.75242 2.8678 6.39105 2.50974L5.40307 1.52176C5.28703 1.40572 5.17762 1.293 5.0649 1.17696C4.84608 0.951513 4.61732 0.719436 4.39188 0.510568C4.05039 0.175715 3.64923 0 3.22486 0C2.80381 0 2.39934 0.175715 2.04459 0.513883L0.804641 1.75383C0.35375 2.20472 0.0984656 2.75176 0.0454196 3.385C-0.0175725 4.17737 0.128304 5.01948 0.506257 6.0373C1.08645 7.6121 1.96171 9.07418 3.26133 10.6357ZM0.854371 3.45462C0.894156 3.01368 1.06324 2.64567 1.38152 2.32739L2.61484 1.09407C2.80713 0.908413 3.01931 0.812267 3.22486 0.812267C3.4271 0.812267 3.63266 0.908413 3.82163 1.1007C4.04376 1.30626 4.25263 1.52176 4.47808 1.75052C4.5908 1.86656 4.70684 1.98259 4.82288 2.10195L5.81086 3.08993C6.01641 3.29548 6.1225 3.50435 6.1225 3.7099C6.1225 3.91546 6.01641 4.12433 5.81086 4.32988C5.70808 4.43266 5.6053 4.53875 5.50253 4.64152C5.1942 4.95317 4.90576 5.24824 4.58748 5.53005C4.58085 5.53668 4.57754 5.53999 4.57091 5.54662C4.29573 5.8218 4.33883 6.08371 4.40514 6.28264C4.40845 6.29258 4.41177 6.29921 4.41508 6.30916C4.67037 6.9225 5.02511 7.50601 5.57878 8.20224C6.57339 9.42893 7.62105 10.3804 8.7748 11.1131C8.91736 11.206 9.06987 11.2789 9.21243 11.3518C9.34505 11.4182 9.46771 11.4811 9.57712 11.5508C9.59038 11.5574 9.60033 11.564 9.61359 11.5707C9.723 11.627 9.82909 11.6535 9.93518 11.6535C10.2004 11.6535 10.3728 11.4845 10.4292 11.4281L11.6691 10.1881C11.8614 9.99586 12.0703 9.89308 12.2758 9.89308C12.5278 9.89308 12.7334 10.0489 12.8627 10.1881L14.8618 12.184C15.2597 12.5818 15.2564 13.0128 14.8519 13.4339C14.7126 13.5831 14.5668 13.7257 14.4109 13.8748C14.1789 14.1003 13.9368 14.3324 13.718 14.5943C13.3368 15.0054 12.8826 15.1977 12.2957 15.1977C12.2394 15.1977 12.1797 15.1944 12.1233 15.191C11.0359 15.1214 10.0247 14.6971 9.26548 14.3357C7.20331 13.3378 5.39312 11.9221 3.89125 10.1252C2.65462 8.63655 1.82246 7.25072 1.27211 5.76544C0.930625 4.85371 0.801325 4.12101 0.854371 3.45462Z" fill="currentColor"></path>
  </symbol>
  <symbol fill="none" xmlns="http://www.w3.org/2000/svg" viewBox="0 0 32 32" id="ic_search">
    <path d="M2.3379 14.2222C2.3379 7.67663 7.57147 2.37037 14.0274 2.37037C20.4829 2.37089 25.7169 7.67694 25.7169 14.2222C25.7169 20.7675 20.4829 26.0736 14.0274 26.0741C7.57147 26.0741 2.3379 20.7678 2.3379 14.2222ZM1.90735e-06 14.2222C1.90735e-06 22.0769 6.28028 28.4444 14.0274 28.4444C17.5923 28.4442 20.8451 27.094 23.3196 24.8727L30.347 32L32 30.3241L24.9361 23.1597C26.885 20.7173 28.0548 17.6086 28.0548 14.2222C28.0548 6.36783 21.7741 0.000517364 14.0274 0C6.28028 0 1.90735e-06 6.36751 1.90735e-06 14.2222Z" fill="currentColor"></path>
  </symbol>
  <symbol fill="none" xmlns="http://www.w3.org/2000/svg" viewBox="0 0 41 41" id="ic_tg">
    <path d="M20.5 0C31.8218 0 41 9.17816 41 20.5C41 31.8218 31.8218 41 20.5 41C9.17816 41 0 31.8218 0 20.5C2.57703e-07 9.17816 9.17816 2.5772e-07 20.5 0ZM30.5723 14.0518C30.9165 12.6715 30.0463 12.0448 29.1445 12.4541L9.39746 20.0684C8.04976 20.609 8.05805 21.3612 9.15234 21.6963L14.2197 23.2783L25.9512 15.877C26.505 15.5411 27.0129 15.7215 26.5957 16.0918L17.0898 24.6699L16.7412 29.8955C17.2536 29.8955 17.4807 29.6618 17.7666 29.3838L20.2285 26.9893L25.3516 30.7734C26.2943 31.2936 26.9751 31.0246 27.21 29.8984L30.5723 14.0518Z" fill="currentColor"></path>
  </symbol>
  <symbol fill="none" xmlns="http://www.w3.org/2000/svg" viewBox="0 0 42 42" id="ic_write_to_us">
    <path d="M6.50394 20.9128H24.9555C26.5863 20.8523 26.5851 18.5119 24.9555 18.4519H6.50394C4.87307 18.5124 4.8743 20.8529 6.50394 20.9128Z" fill="currentColor"></path>
    <path d="M6.50394 15.6406H11.7758C13.4067 15.5801 13.4055 13.2397 11.7758 13.1797H6.50394C4.87307 13.2401 4.8743 15.5807 6.50394 15.6406Z" fill="currentColor"></path>
    <path d="M20.914 24.9543C20.914 24.2748 20.3631 23.7239 19.6836 23.7239H6.50394C4.87307 23.7844 4.8743 26.1248 6.50394 26.1848H19.6837C20.3631 26.1848 20.914 25.6339 20.914 24.9543Z" fill="currentColor"></path>
    <path d="M40.5459 15.9501C39.6236 15.0271 38.3456 14.4976 37.0396 14.4976C36.7132 14.4976 36.4001 14.6274 36.1693 14.8583C36.1693 14.8583 36.1693 14.8583 31.4563 19.5739V9.13828C31.4563 8.81188 31.3267 8.49901 31.0958 8.26826L23.188 0.360445C22.9573 0.129691 22.6443 0 22.3179 0H1.23047C0.550922 0 0 0.550922 0 1.23047V40.7695C0 41.4491 0.550922 42 1.23047 42H30.2258C30.9054 42 31.4563 41.4491 31.4563 40.7695V30.511C31.4563 30.511 41.6395 20.3262 41.6395 20.3261C41.8703 20.0954 42.0001 19.7817 42.0001 19.4554C42 18.1522 41.47 16.8746 40.5459 15.9501ZM23.5484 4.20107L27.2552 7.90781H23.5484V4.20107ZM28.9953 39.5391H2.46094V2.46094H21.0874V9.13828C21.0874 9.81783 21.6384 10.3688 22.3179 10.3688H28.9953V22.0355L25.4016 25.6283C23.6038 27.4267 22.5582 29.7757 22.4214 32.2942C21.9682 32.5681 20.918 32.9794 19.5946 32.9477C19.5912 32.4559 19.6162 31.8743 19.223 31.273C18.7984 30.6361 18.066 30.3133 17.046 30.3133C15.2697 30.3133 13.7118 31.8198 13.54 31.9916C13.0595 32.4722 13.0595 33.2512 13.54 33.7317C14.0205 34.2123 14.7996 34.2123 15.2801 33.7317C15.6013 33.415 16.4978 32.7237 17.1333 32.7757C17.1367 33.2675 17.1116 33.8491 17.5049 34.4503C17.9295 35.0872 18.6619 35.4101 19.6819 35.4101C22.086 35.4101 23.5822 34.5251 24.1863 34.0765C25.8887 33.9828 27.5489 33.4573 28.9952 32.5718L28.9953 39.5391ZM29.1315 29.356C28.0059 30.4821 26.5421 31.2341 24.9826 31.5118C25.2546 29.9506 25.998 28.5127 27.1416 27.3686L37.5052 17.003C37.9939 17.0968 38.4516 17.3357 38.8053 17.6896C39.1604 18.045 39.4002 18.5029 39.4944 18.9909L29.1315 29.356Z" fill="currentColor"></path>
  </symbol>
  <symbol fill="none" xmlns="http://www.w3.org/2000/svg" viewBox="0 0 41 41" id="ic_youtube">
    <path d="M20.5 0C31.8218 0 41 9.17816 41 20.5C41 31.8218 31.8218 41 20.5 41C9.17816 41 0 31.8218 0 20.5C2.57703e-07 9.17816 9.17816 2.5772e-07 20.5 0ZM20.5 12.9834C20.4982 12.9834 13.6625 12.9831 11.957 13.4521C11.0162 13.7103 10.2749 14.4714 10.0234 15.4375C9.5666 17.1884 9.56641 20.8418 9.56641 20.8418C9.56641 20.8668 9.56817 24.5011 10.0234 26.2461C10.275 27.212 11.0162 27.9722 11.957 28.2305C13.6621 28.6995 20.4982 28.7002 20.5 28.7002C20.5 28.7002 27.3379 28.6996 29.043 28.2305C29.9838 27.9722 30.725 27.212 30.9766 26.2461C31.432 24.5011 31.4336 20.8668 31.4336 20.8418C31.4336 20.8418 31.4335 17.1884 30.9766 15.4375C30.7251 14.4714 29.9839 13.7103 29.043 13.4521C27.3376 12.983 20.5 12.9834 20.5 12.9834Z" fill="currentColor"></path>
    <path d="M18.4492 24.5999V17.7666L23.9159 21.1834L18.4492 24.5999Z" fill="currentColor"></path>
  </symbol>
</svg>